<svg width="619" height="431" viewBox="0 0 619 431" fill="none" xmlns="http://www.w3.org/2000/svg">
<path d="M10.8127 356.512C90.056 356.512 169.254 356.512 248.497 356.512C327.336 356.512 406.174 356.512 484.968 356.512C529.447 356.512 573.88 356.512 618.359 356.512C619.214 356.512 619.214 354.823 618.359 354.823C539.116 354.823 459.918 354.823 380.674 354.823C301.836 354.823 222.997 354.823 144.204 354.823C99.7252 354.823 55.2915 354.823 10.8127 354.823C9.95825 354.823 9.95825 356.512 10.8127 356.512Z" fill="black"/>
<path d="M193.329 354.148C188.338 351.501 184.082 347.279 181.244 341.817C179.922 339.284 178.797 336.412 178.21 333.541C177.672 330.67 178.65 327.742 181.586 328.192C183.494 328.474 185.011 329.938 186.381 331.289C186.675 330.839 186.968 330.388 187.262 329.938C184.082 327.573 181.586 324.308 180.069 320.31C179.042 317.551 176.644 308.825 180.754 307.98C181.244 307.867 181.39 307.192 181.195 306.741C177.28 297.452 176.351 287.092 175.519 276.958C175.127 272.116 174.736 266.26 178.014 262.544C181.88 258.04 187.213 261.193 190.442 265.022C196.461 272.172 199.592 282.363 202.773 291.427C206.1 300.942 208.987 310.626 211.091 320.535C213.488 332.021 214.761 343.788 214.222 355.555C214.173 356.625 215.641 356.625 215.69 355.555C216.767 331.458 210.455 308.093 202.479 286.135C199.201 277.127 195.482 265.528 187.751 260.349C184.767 258.378 181.146 257.815 178.21 260.18C175.225 262.601 174.1 266.88 173.904 270.877C173.659 277.014 174.589 283.489 175.421 289.513C176.253 295.762 177.623 301.899 180.02 307.586C180.167 307.192 180.314 306.741 180.461 306.347C176.155 307.248 177.036 314.398 177.867 317.833C179.189 323.463 182.369 328.249 186.626 331.402C187.311 331.908 188.143 330.67 187.507 330.05C185.158 327.798 182.173 325.265 178.993 326.897C175.617 328.643 176.546 333.147 177.525 336.356C180.069 344.858 185.647 351.839 192.693 355.555C193.427 356.062 194.21 354.598 193.329 354.148Z" fill="black"/>
<path d="M208.938 305.165C207.372 291.709 207.861 278.534 211.531 265.585C213.293 259.335 215.152 253.142 216.962 246.949C218.43 241.938 221.024 232.648 227.238 236.983C231.69 240.08 232.522 248.3 233.55 253.649C234.822 260.18 235.703 266.767 236.241 273.467C237.268 286.079 237.122 298.859 235.947 311.471C234.577 326.335 231.886 341.029 228.216 355.33C227.972 356.4 229.342 356.794 229.635 355.78C236.73 328.024 240.302 298.69 237.366 269.864C236.681 262.882 235.605 255.957 234.137 249.201C233.012 244.134 231.837 237.772 227.385 235.182C223.715 233.099 220.192 235.125 218.235 238.954C217.109 241.15 216.473 243.683 215.739 246.048C214.663 249.764 213.586 253.424 212.51 257.14C210.357 264.571 208.057 271.891 207.176 279.717C206.247 288.162 206.54 296.72 207.519 305.165C207.568 306.235 209.036 306.235 208.938 305.165Z" fill="black"/>
<path d="M179.531 261.475C193.623 290.358 204.73 321.774 207.274 355.105C207.372 356.175 208.84 356.175 208.742 355.105C206.149 321.493 195.042 289.851 180.803 260.631C180.363 259.673 179.091 260.518 179.531 261.475Z" fill="black"/>
<path d="M224.449 236.195C225.623 246.048 225.183 256.014 224.84 265.923C224.498 275.663 224.155 285.403 223.813 295.2C223.128 315.018 222.687 335.005 219.507 354.542C219.36 355.612 220.73 356.062 220.926 354.992C224.106 335.287 224.596 315.187 225.281 295.2C225.623 285.065 226.015 274.931 226.357 264.853C226.7 255.169 227.042 245.429 225.868 235.801C225.77 234.675 224.351 235.182 224.449 236.195Z" fill="black"/>
<path d="M210.406 264.628C216.62 274.255 221.073 285.178 223.421 296.832C223.617 297.902 225.036 297.452 224.84 296.382C222.443 284.559 217.99 273.467 211.678 263.727C211.14 262.882 209.868 263.727 210.406 264.628Z" fill="black"/>
<path d="M233.746 252.917C229.782 261.194 226.651 269.92 224.351 279.041C224.106 280.111 225.525 280.561 225.77 279.492C228.021 270.54 231.152 261.926 235.018 253.762C235.458 252.861 234.186 251.96 233.746 252.917Z" fill="black"/>
<path d="M180.608 307.811C190.932 312.653 199.495 321.492 204.926 332.697C205.366 333.654 206.638 332.809 206.198 331.852C200.571 320.254 191.666 311.246 180.999 306.235C180.118 305.728 179.776 307.361 180.608 307.811Z" fill="black"/>
<path d="M194.406 269.808C193.525 279.435 193.916 289.063 195.482 298.578C195.678 299.648 197.097 299.197 196.901 298.127C195.384 288.781 195.042 279.266 195.874 269.808C195.972 268.738 194.504 268.738 194.406 269.808Z" fill="black"/>
<path d="M19.8722 354.485C18.7468 350.713 17.9149 346.772 17.5235 342.775C17.3767 341.086 17.2789 339.396 17.2789 337.651C17.2789 336.75 17.1321 335.455 17.3278 334.611C17.3278 334.273 17.3767 333.935 17.3767 333.597C18.3064 332.809 19.0893 332.922 19.7254 333.879C20.1657 334.329 21.0465 334.048 20.9975 333.26C20.8507 330.951 20.8508 328.643 21.0954 326.334C21.2422 325.208 21.389 324.082 21.6336 323.013C21.7315 322.619 22.9058 318.79 23.0037 318.959C23.3462 319.522 24.178 319.522 24.3248 318.734C26.4288 308.768 30.1964 299.478 34.7958 290.752C35.9701 288.5 37.2423 286.247 38.5145 284.052C39.9335 281.631 42.2821 277.802 44.435 282.025C46.6369 286.304 47.273 292.553 47.4687 297.452C47.958 307.811 45.9029 318.114 43.0161 327.855C40.227 337.37 36.753 346.885 30.7835 354.373C30.1475 355.161 31.175 356.343 31.8111 355.555C36.9977 349.08 40.276 341.142 42.9671 332.978C45.8051 324.251 48.1048 315.187 48.7898 305.897C49.1323 301.393 49.0834 296.832 48.4962 292.328C48.0069 288.443 47.273 283.489 45.169 280.223C40.8142 273.58 35.7744 285.684 33.964 289.063C29.071 298.183 25.1077 307.867 22.9058 318.283C23.3462 318.227 23.7866 318.171 24.2269 318.058C23.0037 316.2 21.4868 318.058 20.9486 319.635C19.4318 323.857 19.1382 328.755 19.4807 333.203C19.9211 332.978 20.3125 332.809 20.7529 332.584C19.8232 331.627 18.3064 330.388 16.9853 331.12C15.6152 331.908 15.811 334.048 15.811 335.512C15.6642 342.099 16.5938 348.574 18.4532 354.823C18.7468 355.949 20.1657 355.499 19.8722 354.485Z" fill="black"/>
<path d="M42.4779 280.111C40.8143 293.398 38.0253 306.46 34.062 319.072C30.3922 330.895 24.227 342.324 22.857 354.936C22.7591 356.006 24.227 356.006 24.3249 354.936C25.0588 348.236 27.3096 342.043 29.6583 335.962C31.8601 330.22 33.9641 324.42 35.7745 318.509C39.5421 306.179 42.2333 293.454 43.848 280.505C43.9948 279.492 42.5758 279.041 42.4779 280.111Z" fill="black"/>
<path d="M28.9734 300.211C29.5116 309.163 30.2945 318.058 31.322 326.954C31.4688 328.024 32.8388 327.573 32.741 326.504C31.7134 317.777 30.9306 308.994 30.4413 300.211C30.3923 299.141 28.9244 299.085 28.9734 300.211Z" fill="black"/>
<path d="M38.1233 310.289C42.0377 305.841 45.4139 300.83 48.2518 295.425C48.7411 294.468 47.469 293.624 46.9796 294.581C44.1906 299.873 40.9123 304.715 37.0958 309.107C36.4108 309.838 37.4383 311.021 38.1233 310.289Z" fill="black"/>
<path d="M14.4411 353.641C11.0649 348.067 8.22697 342.099 6.07405 335.737C5.09545 332.866 4.26364 329.882 3.57862 326.898C3.23611 325.321 2.8936 323.745 2.60002 322.112C2.4043 321.155 1.13212 314.905 2.8936 315.3C3.48076 315.412 3.92113 314.905 3.77434 314.286C2.55109 306.516 1.76821 298.69 1.52356 290.808C1.4257 287.205 1.37677 283.489 2.06179 279.998C2.4043 278.309 2.8936 276.339 3.8722 274.931C6.12298 271.778 8.47163 274.368 9.93953 276.733C16.9855 288.106 21.487 301.787 23.6399 315.468C23.7867 316.538 25.2057 316.088 25.0589 315.018C23.6889 306.516 21.4381 298.296 18.3555 290.47C16.7408 286.417 14.9304 282.532 12.8753 278.816C11.5053 276.339 9.74381 272.454 6.95479 271.778C0.838538 270.314 0.0556585 282.588 0.00672846 286.923C-0.0911316 296.269 0.887471 305.672 2.35537 314.849C2.64895 314.511 2.94253 314.173 3.23611 313.836C-2.63549 312.653 2.20858 328.136 2.94253 330.783C5.24224 339.284 8.71628 347.335 13.12 354.655C13.7071 355.386 14.9793 354.542 14.4411 353.641Z" fill="black"/>
<path d="M4.80196 273.524C10.2821 293.06 14.9305 312.935 18.747 332.978C18.9427 334.048 20.3617 333.598 20.166 332.528C16.3495 312.485 11.7011 292.61 6.22093 273.073C5.92735 272.06 4.50838 272.51 4.80196 273.524Z" fill="black"/>
<path d="M1.2301 299.647C7.05278 302.519 11.799 307.417 14.8327 313.779C15.273 314.736 16.5452 313.892 16.1048 312.934C12.9244 306.291 8.03138 301.167 1.96405 298.183C1.08331 297.789 0.34936 299.253 1.2301 299.647Z" fill="black"/>
<path d="M14.8816 285.291C13.6094 290.865 12.8265 296.495 12.5329 302.238C12.484 303.307 13.9519 303.307 14.0008 302.238C14.2455 296.664 15.0284 291.146 16.3005 285.741C16.5452 284.672 15.1262 284.221 14.8816 285.291Z" fill="black"/>
<path d="M174.589 378.132C177.819 375.767 181.684 375.036 185.354 376.33C188.534 377.457 191.176 378.977 194.602 378.808C197.782 378.639 200.865 377.682 204.045 377.457C205.758 377.344 207.47 377.4 209.134 378.076C210.797 378.751 211.972 379.765 213.733 379.878C214.663 379.934 214.663 378.245 213.733 378.188C211.727 378.076 210.015 376.443 208.057 375.993C206.492 375.655 204.877 375.655 203.262 375.824C199.837 376.218 196.461 377.344 193.036 377.119C189.464 376.894 186.43 374.416 182.907 374.022C179.678 373.684 176.546 374.698 173.855 376.668C173.072 377.231 173.806 378.695 174.589 378.132Z" fill="black"/>
<path d="M298.969 373.347C303.862 373.178 308.755 372.952 313.599 372.784C315.997 372.671 318.492 372.389 320.89 372.615C322.896 372.784 324.413 374.079 326.272 374.585C327.789 374.979 329.257 374.698 330.774 374.304C333.367 373.628 335.911 373.009 338.602 372.896C343.251 372.615 347.899 373.234 352.499 373.853C353.428 373.966 353.428 372.277 352.499 372.164C347.899 371.545 343.251 370.926 338.602 371.207C336.401 371.32 334.199 371.658 332.046 372.221C329.453 372.896 327.446 373.403 324.951 372.108C321.33 370.306 317.514 370.926 313.697 371.095C308.804 371.263 303.911 371.489 299.067 371.658C298.04 371.714 298.039 373.403 298.969 373.347Z" fill="black"/>
<path d="M474.824 430.042C479.766 430.887 484.61 429.817 489.454 428.747C492.439 428.072 495.423 427.396 498.506 427.284C501.54 427.171 504.378 427.959 507.313 428.747C509.858 429.423 512.304 429.705 514.898 429.367C517.491 428.973 519.986 428.184 522.58 427.847C528.206 427.058 533.491 430.211 539.118 429.817C540.048 429.761 540.048 428.072 539.118 428.128C533.882 428.466 528.989 425.651 523.754 425.989C521.258 426.158 518.861 426.89 516.365 427.396C513.038 428.072 510.102 427.79 506.824 426.89C501.931 425.482 497.381 425.369 492.39 426.383C486.665 427.509 480.989 429.367 475.166 428.41C474.286 428.241 473.894 429.873 474.824 430.042Z" fill="black"/>
<path d="M205.758 418.895C246.125 418.895 286.541 418.895 326.908 418.895C327.838 418.895 327.838 417.206 326.908 417.206C286.541 417.206 246.125 417.206 205.758 417.206C204.828 417.206 204.828 418.895 205.758 418.895Z" fill="#161616"/>
<path d="M318.443 428.072C339.19 428.072 359.887 428.072 380.634 428.072C381.563 428.072 381.563 426.383 380.634 426.383C359.887 426.383 339.19 426.383 318.443 426.383C317.465 426.383 317.465 428.072 318.443 428.072Z" fill="#161616"/>
<path d="M476.243 401.16C498.017 401.16 519.84 401.16 541.613 401.16C542.543 401.16 542.543 399.471 541.613 399.471C519.84 399.471 498.017 399.471 476.243 399.471C475.313 399.471 475.313 401.16 476.243 401.16Z" fill="#161616"/>
<path d="M566.568 403.637C579.485 403.637 592.452 403.637 605.369 403.637C606.299 403.637 606.299 401.948 605.369 401.948C592.452 401.948 579.485 401.948 566.568 401.948C565.638 401.948 565.638 403.637 566.568 403.637Z" fill="#161616"/>
<path d="M34.6492 386.521C57.6952 386.521 80.6923 386.521 103.738 386.521C104.668 386.521 104.668 384.832 103.738 384.832C80.6923 384.832 57.6952 384.832 34.6492 384.832C33.7195 384.832 33.7195 386.521 34.6492 386.521Z" fill="#161616"/>
<path d="M100.558 380.384C113.329 380.384 126.051 380.384 138.821 380.384C139.751 380.384 139.751 378.695 138.821 378.695C126.051 378.695 113.329 378.695 100.558 378.695C99.6284 378.695 99.6284 380.384 100.558 380.384Z" fill="#161616"/>
<path d="M320.107 394.122C336.841 394.122 353.526 394.122 370.26 394.122C371.19 394.122 371.19 392.433 370.26 392.433C353.526 392.433 336.841 392.433 320.107 392.433C319.128 392.433 319.128 394.122 320.107 394.122Z" fill="#161616"/>
<path d="M535.791 102.31C535.987 97.9747 543.13 102.31 545.136 101.916C547.779 101.409 548.366 98.031 551.4 98.7629C553.259 99.2133 555.02 100.227 556.978 100.002C558.25 99.8327 559.179 98.9881 560.403 98.594C562.311 97.9747 564.219 98.6503 565.638 100.227C566.323 100.959 567.351 99.7764 566.666 99.0444C564.513 96.6797 561.822 96.173 559.082 97.3554C556.782 98.3688 555.412 98.2562 553.112 97.468C551.987 97.0739 550.812 96.6798 549.638 96.8487C548.268 97.0739 547.73 97.8621 546.8 98.8192C544.011 101.578 542.005 99.0444 539.069 98.5377C536.818 98.1436 534.519 99.4386 534.372 102.31C534.274 103.436 535.742 103.436 535.791 102.31Z" fill="#122E4F"/>
<path d="M544.158 93.7519C544.549 90.0359 550.225 93.1888 551.889 93.3577C554.14 93.5829 554.678 92.1191 556.292 90.7679C559.277 88.2343 561.43 91.4435 564.415 91.2746C565.247 91.2183 565.687 90.6552 566.372 90.2048C568.28 88.9662 570.14 88.6847 571.852 90.5426C572.537 91.2746 573.565 90.0922 572.88 89.3603C570.874 87.2208 568.476 87.0519 566.078 88.2906C565.002 88.8536 565.638 89.4729 563.779 89.4729C562.849 89.4729 561.675 88.6284 560.745 88.3469C559.424 87.9528 558.054 87.7276 556.733 88.3469C554.58 89.3603 554.482 91.8376 551.448 91.5561C549.932 91.4435 548.61 90.3737 547.045 90.2611C544.941 90.0922 542.886 91.1057 542.592 93.6956C542.543 94.8216 544.011 94.8216 544.158 93.7519Z" fill="#122E4F"/>
<path d="M79.9095 297.396C81.9157 295.706 83.6282 294.918 85.9769 296.213C86.9065 296.72 87.7873 297.283 88.8148 297.508C90.9677 297.902 92.9249 296.664 94.8332 295.706C96.5947 294.806 98.0626 294.299 99.9219 295.425C100.949 296.044 101.781 296.889 102.956 297.114C105.304 297.621 108.778 295.031 110.638 297.114C111.323 297.846 112.35 296.664 111.665 295.932C109.855 293.905 107.653 294.862 105.402 295.312C103.885 295.594 102.907 295.538 101.537 294.637C100.901 294.186 100.313 293.623 99.5794 293.342C98.6008 292.948 97.6222 292.891 96.5947 293.117C95.2736 293.454 94.0503 294.243 92.7781 294.862C90.4784 295.988 88.9616 295.932 86.613 294.749C83.6282 293.173 81.72 293.68 79.0288 295.932C78.4416 296.551 79.1756 298.015 79.9095 297.396Z" fill="#122E4F"/>
<path d="M94.0501 288.669C97.3773 284.39 103.053 289.344 107.163 288.331C108.68 287.937 109.659 287.374 111.225 287.993C112.154 288.387 112.937 289.119 113.867 289.513C115.677 290.245 117.39 289.908 119.053 289.007C119.885 288.556 119.151 287.092 118.319 287.543C114.894 289.457 113.377 286.473 110.393 285.91C109.463 285.741 108.729 286.023 107.848 286.361C106.185 286.924 104.913 286.98 103.151 286.529C99.726 285.685 95.7137 283.996 92.9247 287.543C92.3865 288.275 93.414 289.457 94.0501 288.669Z" fill="#122E4F"/>
<path d="M199.446 57.4936C195.629 54.1718 198.173 46.7399 203.066 47.9786C205.073 48.4853 206.785 50.3433 206.785 52.8205C206.785 55.7482 204.632 58.3381 202.137 58.507C201.207 58.5633 201.207 60.2524 202.137 60.1961C205.268 60.0272 207.911 57.1558 208.253 53.5525C208.547 50.0617 206.345 47.1341 203.458 46.4021C196.852 44.6568 193.672 54.6222 198.712 59.0137C199.446 59.6331 200.18 58.1692 199.446 57.4936Z" fill="#122E4F"/>
<path d="M51.2853 237.828C48.8388 234.731 51.1385 229.214 54.9061 230.396C59.4566 231.804 58.2823 239.179 53.7318 239.123C52.8021 239.123 52.8021 240.812 53.7318 240.812C56.4719 240.812 58.9673 238.447 59.3588 235.294C59.7502 232.367 58.0376 229.833 55.689 228.876C50.3556 226.736 46.637 234.45 50.2578 239.01C50.8939 239.799 51.9214 238.616 51.2853 237.828Z" fill="#122E4F"/>
<path d="M303.618 220.206C301.807 221.726 300.437 223.753 299.85 226.23C299.165 229.158 300.926 233.268 299.214 235.464C298.137 236.871 296.278 237.828 295.789 239.743C295.593 240.418 295.642 241.037 295.838 241.713C296.082 242.67 296.425 242.839 296.425 243.853C296.425 245.542 295.153 246.274 293.929 247.006C293.098 247.512 293.832 248.976 294.663 248.469C296.229 247.512 298.235 245.936 298.088 243.627C297.991 242.164 296.767 241.263 297.452 239.686C297.893 238.729 299.018 237.997 299.654 237.265C300.877 235.97 301.709 234.619 301.514 232.649C301.269 230.509 300.731 228.876 301.22 226.681C301.709 224.597 302.786 222.908 304.303 221.67C305.085 221.05 304.351 219.586 303.618 220.206Z" fill="#122E4F"/>
<path d="M310.81 225.836C306.651 225.385 306.162 231.297 306.358 234.732C306.456 236.646 306.554 238.56 305.526 240.137C304.988 240.925 304.205 241.544 303.862 242.501C303.569 243.346 303.764 244.021 303.911 244.922C304.352 247.681 303.031 249.483 301.416 251.284C300.731 252.073 301.758 253.255 302.443 252.467C303.716 251.003 305.183 249.314 305.526 247.174C305.673 246.161 305.33 245.373 305.33 244.415C305.33 242.67 306.26 242.051 306.945 240.812C308.021 239.011 307.972 236.815 307.826 234.732C307.679 232.311 307.532 227.187 310.81 227.525C311.789 227.638 311.74 225.948 310.81 225.836Z" fill="#122E4F"/>
<path d="M315.263 17.6315C315.459 13.7467 321.135 15.2105 323.239 13.9156C324.755 12.9584 325.636 11.2131 326.468 9.58035C326.957 8.62322 327.398 7.55348 328.034 6.70895C329.306 5.01989 330.774 5.2451 332.535 5.0762C334.835 4.85099 336.694 3.55603 338.113 1.47287C338.7 0.628338 337.673 -0.553987 337.086 0.29054C335.716 2.31741 334.003 3.27453 331.801 3.44343C330.725 3.49973 329.697 3.44343 328.67 4.00645C326.81 5.07619 325.93 7.38456 324.951 9.35513C324.168 10.8753 323.434 12.1139 321.966 12.7332C320.547 13.3526 318.933 13.0148 317.465 13.4089C315.508 13.9156 313.991 15.3231 313.844 17.6878C313.746 18.7012 315.214 18.7012 315.263 17.6315Z" fill="#122E4F"/>
<path d="M319.569 24.6693C321.037 21.9105 324.021 21.2349 326.37 19.8837C328.474 18.7013 329.55 17.1812 330.187 14.5913C331.116 10.5939 333.807 11.1006 336.792 10.5938C338.603 10.256 340.07 9.58042 340.804 7.49725C341.147 6.48381 339.728 6.0334 339.385 7.04684C338.456 9.58042 334.786 8.96109 332.829 9.46781C330.823 9.91823 329.453 10.988 328.865 13.2963C328.327 15.3795 328.132 16.6744 326.468 17.8568C325.44 18.5887 324.266 19.0954 323.141 19.6585C321.183 20.6156 319.373 21.6853 318.248 23.8248C317.807 24.7256 319.079 25.5701 319.569 24.6693Z" fill="#122E4F"/>
<path d="M540.097 282.982C538.922 278.816 542.641 274.537 546.164 277.071C550.029 279.829 547.876 286.135 543.571 286.023C542.641 285.966 542.641 287.655 543.571 287.712C549.051 287.937 551.938 279.886 547.338 276.001C542.837 272.172 537.063 277.577 538.678 283.489C538.971 284.503 540.39 284.052 540.097 282.982Z" fill="#122E4F"/>
<path d="M309.587 338.552C308.217 335.624 309.685 331.345 312.963 331.908C314.284 332.134 315.557 333.26 315.557 334.949C315.557 336.581 314.431 338.214 312.963 338.27C312.034 338.327 312.034 340.016 312.963 339.96C317.563 339.734 318.395 332.246 314.089 330.501C309.343 328.643 306.211 334.836 308.315 339.397C308.804 340.354 310.077 339.509 309.587 338.552Z" fill="#122E4F"/>
<path d="M517.54 8.00392C516.121 6.20226 518.176 3.66867 519.937 4.85101C522.139 6.37116 520.818 9.46777 518.763 10.0871C517.833 10.3686 518.225 12.0014 519.154 11.7198C522.726 10.7064 523.95 4.90733 520.133 3.10567C516.904 1.58552 514.164 6.25857 516.463 9.18626C517.148 10.0308 518.176 8.84845 517.54 8.00392Z" fill="#122E4F"/>
<path d="M14.392 65.4879C11.5541 63.7989 13.2666 58.6191 16.4471 59.6889C20.1658 60.9275 18.8936 66.4451 15.6153 67.2333C14.6856 67.4585 15.077 69.0913 16.0067 68.8661C20.8997 67.6274 21.8294 59.2947 16.4471 57.9435C11.7987 56.7612 9.45008 64.4182 13.6091 66.8955C14.4899 67.4585 15.2238 65.9947 14.392 65.4879Z" fill="#122E4F"/>
<path d="M3.52981 104.393C3.43195 127.139 3.38302 149.941 3.28516 172.687C93.1207 172.293 182.956 171.899 272.792 171.561C272.547 149.153 272.254 126.745 272.009 104.336C182.516 104.336 93.0228 104.393 3.52981 104.393Z" fill="#4072AF"/>
<path d="M1.52344 104.224C1.52344 126.295 1.52344 148.309 1.52344 170.379C1.52344 172.575 4.45924 172.575 4.45924 170.379C4.45924 148.309 4.45924 126.295 4.45924 104.224C4.45924 102.029 1.52344 102.029 1.52344 104.224Z" fill="#161616"/>
<path d="M4.36236 105.125C39.2495 105.125 74.1366 105.125 109.024 105.125C144.058 105.125 179.14 105.125 214.174 105.125C233.893 105.125 253.612 105.125 273.38 105.125C275.288 105.125 275.288 101.747 273.38 101.747C238.493 101.747 203.605 101.747 168.718 101.747C133.684 101.747 98.6016 101.747 63.5677 101.747C43.8489 101.747 24.1301 101.747 4.36236 101.747C2.45408 101.747 2.45408 105.125 4.36236 105.125Z" fill="#161616"/>
<path d="M271.764 103.379C272.009 126.35 272.253 149.378 272.498 172.349C272.498 174.545 275.434 174.545 275.434 172.349C275.189 149.378 274.945 126.35 274.7 103.379C274.7 101.24 271.764 101.24 271.764 103.379Z" fill="#161616"/>
<path d="M2.99151 173.644C38.2701 173.644 73.4997 173.644 108.778 173.644C144.057 173.644 179.286 173.644 214.565 173.644C234.382 173.644 254.198 173.644 274.064 173.644C275.972 173.644 275.972 170.266 274.064 170.266C238.785 170.266 203.556 170.266 168.277 170.266C132.999 170.266 97.769 170.266 62.4904 170.266C42.6738 170.266 22.8571 170.266 2.99151 170.266C1.08323 170.266 1.08323 173.644 2.99151 173.644Z" fill="#161616"/>
<path d="M341.783 111.711C340.217 113.175 338.211 115.371 336.352 118.411C334.737 121.058 333.71 123.591 333.073 125.562C334.541 126.35 337.673 128.32 338.309 131.811C339.043 135.64 336.303 139.13 332.682 143.635C330.284 146.562 326.615 150.503 321.232 154.107C320.303 154.107 318.443 153.994 316.388 152.756C313.942 151.235 312.767 148.983 312.327 148.082C310.272 148.758 307.63 149.884 304.743 151.855C302.052 153.713 299.997 155.74 298.529 157.429C299.214 159.23 301.269 164.185 305.917 166.324C307.728 167.169 310.027 167.619 314.284 166.775C318.59 165.93 324.413 163.903 331.312 158.498C341.147 150.785 346.04 141.777 347.41 139.074C350.835 132.374 353.282 127.589 351.863 122.127C350.052 115.315 343.3 112.331 341.783 111.711Z" fill="#161616"/>
<path d="M312.425 136.147C315.067 131.868 318.688 128.659 322.896 126.744C323.777 126.35 323.385 124.718 322.505 125.112C317.905 127.195 314.04 130.629 311.153 135.302C310.566 136.203 311.838 137.048 312.425 136.147Z" fill="#161616"/>
<path d="M304.352 137.16C308.315 127.195 315.997 119.875 325.294 117.229C326.223 116.948 325.832 115.315 324.902 115.596C315.312 118.299 307.239 125.956 303.08 136.259C302.688 137.329 303.911 138.173 304.352 137.16Z" fill="#161616"/>
<path d="M297.55 138.962C298.676 131.192 302.345 124.379 307.581 119.256C312.572 114.358 320.254 109.065 327.055 110.079C327.985 110.191 327.985 108.502 327.055 108.39C320.107 107.376 312.376 112.612 307.141 117.454C301.465 122.747 297.354 130.122 296.131 138.455C295.984 139.581 297.403 140.031 297.55 138.962Z" fill="#161616"/>
<path d="M381.074 390.237C381.27 397.557 381.416 404.876 381.612 412.195C361.404 419.064 351.471 423.568 351.814 425.708C352.254 428.41 368.45 427.509 400.401 423.005C399.716 410.506 399.031 397.951 398.297 385.452C392.572 387.028 386.848 388.605 381.074 390.237Z" fill="#161616" stroke="#161616" stroke-width="2" stroke-miterlimit="10"/>
<path d="M445.025 245.936C442.09 246.949 442.726 247.343 426.872 261.363C410.089 276.17 401.722 283.602 395.9 287.374C392.524 289.57 389.783 291.146 386.407 294.75C380.829 300.774 377.991 307.643 375.789 314.343C368.939 335.231 367.912 355.218 367.716 364.114C367.52 372.334 367.667 383.932 369.38 397.838C374.664 399.302 379.068 399.696 382.199 399.753C387.631 399.865 395.362 399.978 403.386 395.248C405.735 393.841 407.545 392.377 408.67 391.42C407.252 381.792 406.175 369.687 406.713 355.781C407.154 344.577 408.475 334.724 410.041 326.56C412.634 324.308 416.597 321.099 421.735 317.89C427.655 314.23 433.576 311.528 449.918 306.01C469.491 299.423 470.176 300.155 473.062 297.34C480.549 290.133 485.931 275.607 481.723 262.995C476.243 246.386 456.964 241.938 445.025 245.936Z" fill="white"/>
<path d="M437.49 251.622C428.438 258.885 419.435 266.204 410.383 273.467C402.359 279.942 393.747 286.023 386.407 293.623C379.361 300.886 375.447 309.951 372.903 320.311C370.114 331.796 368.303 343.676 367.374 355.556C366.297 369.237 366.542 382.975 367.912 396.6C368.01 397.669 369.478 397.669 369.38 396.6C366.982 373.291 368.156 349.588 372.952 326.842C375.251 315.863 378.285 305.278 385.38 297.114C392.23 289.232 400.842 283.264 408.719 276.902C418.554 268.963 428.389 261.025 438.224 253.086C439.007 252.467 438.273 251.003 437.49 251.622Z" fill="#161616"/>
<path d="M465.234 299.366C454.469 302.913 443.851 306.854 433.38 311.359C428.781 313.329 424.083 315.3 419.582 317.608C415.863 319.522 412.389 321.943 410.236 326.053C409.747 327.01 411.019 327.855 411.508 326.898C413.857 322.337 418.065 320.085 422.126 318.171C426.824 315.975 431.57 313.892 436.365 311.865C446.004 307.812 455.741 304.208 465.576 300.999C466.506 300.718 466.114 299.085 465.234 299.366Z" fill="#161616"/>
<path d="M410.872 317.608C405.784 341.536 404.854 366.422 408.132 390.744C408.279 391.814 409.698 391.364 409.551 390.294C406.322 366.253 407.251 341.649 412.291 318.059C412.487 316.989 411.068 316.538 410.872 317.608Z" fill="#161616"/>
<path d="M368.548 396.544C368.792 399.696 373.049 399.19 374.909 399.415C379.41 399.922 383.912 400.316 388.462 400.034C395.802 399.584 402.995 397.219 408.768 391.814C409.502 391.139 408.475 389.956 407.741 390.632C402.799 395.249 396.683 397.501 390.42 398.176C387.19 398.514 383.961 398.514 380.731 398.289C379.557 398.233 370.114 397.951 370.016 396.544C369.918 395.474 368.45 395.474 368.548 396.544Z" fill="#161616"/>
<path opacity="0.11" d="M464.793 280.392C458.041 276.451 450.31 286.529 431.227 296.551C415.619 304.771 411.753 302.744 405.637 307.023C394.872 314.511 385.331 335.85 392.181 397.838C393.698 397.838 395.459 397.669 397.417 397.219C402.554 395.98 406.224 393.165 408.426 391.194C406.713 378.864 405.686 363.325 407.349 345.59C408.034 338.102 409.111 331.233 410.383 325.04C415.031 321.943 422.273 317.495 431.57 313.329C454.127 303.138 468.121 303.758 470.371 294.637C471.546 289.513 468.806 282.701 464.793 280.392Z" fill="#666666"/>
<path opacity="0.12" d="M459.851 301.281C459.607 299.76 443.753 300.549 427.117 306.967C416.499 311.021 410.726 313.273 405.686 319.635C397.661 329.657 397.221 342.55 396.585 360.454C396.291 368.955 396.487 381.229 399.08 395.924C402.31 394.742 405.49 393.616 408.719 392.433C407.496 381.961 406.713 369.35 407.349 355.105C407.839 344.464 408.964 334.949 410.383 326.616C411.802 324.871 413.955 322.394 416.989 319.973C423.594 314.624 429.417 313.273 436.267 311.133C445.123 308.262 460.096 302.744 459.851 301.281Z" fill="#666666"/>
<path d="M541.907 351.896C552.574 347.899 561.626 345.646 568.231 344.295C577.675 342.381 579.877 342.775 581.638 344.295C584.672 346.885 584.036 350.714 585.161 374.586C585.552 382.412 585.748 384.382 584.378 386.803C579.73 395.305 564.268 394.911 563.094 391.195C562.653 389.731 564.121 387.028 571.461 381.567C571.216 376.218 570.971 370.87 570.678 365.521C562.311 367.829 553.944 370.194 545.626 372.502C544.451 365.69 543.179 358.821 541.907 351.896Z" fill="#161616" stroke="#161616" stroke-width="2" stroke-miterlimit="10"/>
<path d="M456.426 254.944C453.197 263.671 455.496 273.017 456.573 277.409C457.796 282.476 458.97 283.151 460.928 289.964C463.032 297.283 463.668 302.576 464.548 308.938C465.821 318.227 467.289 328.812 469.588 339.397C472.426 352.459 473.992 359.159 478.689 366.422C480.744 369.631 485.588 376.838 494.102 380.666C495.717 381.398 497.87 382.186 503.203 382.975C509.075 383.875 518.176 385.227 530.213 383.538C540.488 382.13 549.051 378.977 555.46 375.993C556.733 370.588 556.684 366.084 556.488 363.213C556.194 359.609 555.705 352.909 551.448 347.223C550.225 345.59 548.415 343.225 545.381 341.987C542.054 340.692 539.069 341.536 533.784 343.169C527.668 345.027 525.417 347.054 521.405 346.097C519.693 345.703 518.42 344.914 517.638 344.351C516.463 342.268 514.849 339.115 513.332 335.062C509.368 324.477 509.075 315.975 508.537 306.629C507.313 285.572 506.677 275.044 503.741 263.389C500.659 251.172 499.778 245.035 495.179 241.319C490.432 237.491 485.05 237.772 481.723 237.941C473.552 238.335 460.928 242.839 456.426 254.944Z" fill="white"/>
<path d="M497.527 245.204C505.552 264.571 506.188 286.304 507.949 307.248C509.222 322.393 510.347 343.169 523.705 351.164C524.537 351.67 525.271 350.206 524.439 349.7C517.589 345.59 514.163 337.482 512.255 329.206C510.2 320.141 509.662 310.626 508.977 301.28C507.509 281.912 506.188 262.15 498.848 244.303C498.408 243.346 497.136 244.19 497.527 245.204Z" fill="#161616"/>
<path d="M457.747 283.771C466.359 306.235 464.206 331.852 472.573 354.373C475.9 363.381 480.891 371.827 487.986 377.4C496.598 384.1 507.803 385.452 517.931 385.283C530.702 385.058 543.277 381.679 555.118 376.331C555.999 375.937 555.607 374.304 554.726 374.698C544.402 379.371 533.54 382.58 522.433 383.368C511.864 384.157 499.827 383.537 490.481 377.232C474.09 366.14 469.735 342.324 467.093 322.45C465.331 308.994 463.766 295.425 458.921 282.87C458.628 281.969 457.356 282.813 457.747 283.771Z" fill="#161616"/>
<path d="M516.708 344.633C525.564 350.601 535.693 339.115 545.038 342.606C550.225 344.576 552.769 350.995 554.188 356.625C555.754 362.706 555.95 369.068 554.873 375.261C554.678 376.331 556.097 376.781 556.292 375.711C557.271 369.856 557.222 363.832 556.048 358.033C554.922 352.74 552.965 346.716 549.1 343.225C545.528 339.96 540.781 339.903 536.476 340.861C530.702 342.155 523.118 347.054 517.442 343.225C516.61 342.662 515.876 344.07 516.708 344.633Z" fill="#161616"/>
<path opacity="0.11" d="M490.286 244.472C482.065 253.761 498.653 274.199 498.946 308.543C499.191 335.399 493.662 346.547 501.099 355.555C511.766 368.448 535.888 361.016 538.531 360.172C542.739 358.821 551.742 356.85 552.476 351.614C552.916 348.18 549.785 344.295 546.604 342.381C536.916 336.469 527.864 349.531 519.35 345.252C512.94 341.986 511.521 331.177 508.83 311.077C506.628 294.58 507.998 291.09 505.405 272.96C503.497 259.617 501.05 242.951 495.179 241.994C492.83 241.544 490.677 243.965 490.286 244.472Z" fill="#666666"/>
<path opacity="0.17" d="M503.595 266.542C502.812 266.598 502.763 277.408 502.665 290.752C502.42 328.643 504.28 336.694 508.537 343.788C510.298 346.716 513.625 352.121 519.693 355.161C533.099 361.974 550.91 353.022 550.959 347.335C550.959 344.464 546.408 342.324 545.674 341.986C541.026 339.847 537.454 341.93 528.011 343.788C524.096 344.576 520.769 344.97 518.42 345.196C516.659 342.662 514.212 338.721 512.255 333.429C508.488 323.463 508.781 315.356 508.537 306.741C507.998 285.459 504.573 266.486 503.595 266.542Z" fill="#666666"/>
<path d="M321.771 172.687C321.869 171.392 324.462 170.717 326.028 170.323C332.438 168.69 337.967 169.929 339.435 170.604C342.175 171.843 344.915 173.081 347.704 174.32C347.851 173.363 348.291 171.336 349.71 169.816C352.254 167.17 355.875 168.183 356.854 168.521C358.126 168.915 360.132 169.816 363.557 174.095C367.08 178.486 367.57 180.739 369.576 183.61C374.224 190.254 381.221 191.999 384.744 192.843C387.827 193.632 394.041 195.152 401.038 191.774C407.203 188.79 410.677 183.554 412.194 181.189C413.662 178.881 414.151 177.529 417.087 169.816C423.056 154.108 424.965 149.266 429.124 144.424C431.374 141.778 434.114 138.681 436.952 139.413C440.426 140.314 441.894 146.563 442.53 149.21C443.215 152.137 444.096 157.711 442.09 167.451C441.405 170.829 439.056 180.795 432.255 191.774C429.417 196.39 425.454 202.64 418.408 207.932C415.325 210.241 410.285 213.957 402.995 215.083C396.536 216.096 391.594 214.576 387.386 213.225C382.738 211.761 375.007 208.495 366.836 200.782C361.6 201.064 357.588 201.458 354.799 201.852C350.053 202.471 348.046 202.978 345.894 201.57C345.16 201.064 344.083 200.163 342.566 200.275C341.147 200.388 340.658 201.289 339.435 201.57C338.065 201.908 335.814 201.627 334.542 199.712C333.514 198.192 333.612 196.278 333.661 195.659C332.829 194.814 331.508 193.238 330.872 190.873C330.432 189.24 330.481 187.889 330.481 186.369C330.53 184.567 330.53 183.666 330.921 182.934C332.046 180.682 335.276 180.795 335.765 180.851C334.199 179.5 332.78 178.768 331.9 178.374C328.866 176.966 327.251 177.417 324.462 175.671C323.337 174.883 321.673 173.813 321.771 172.687Z" fill="white"/>
<path d="M437.392 138.681C433.135 136.823 429.955 140.933 427.704 144.592C424.328 150.054 421.441 155.909 418.995 161.99C414.395 173.588 411.264 187.1 401.82 194.87C401.037 195.489 401.771 196.953 402.554 196.334C410.187 189.972 414.004 180.006 417.478 170.266C419.582 164.41 421.833 158.668 424.573 153.206C425.943 150.56 427.362 147.914 428.927 145.437C430.787 142.453 433.282 138.737 436.952 140.313C437.882 140.707 438.273 139.075 437.392 138.681Z" fill="#161616"/>
<path d="M351.814 175.333C349.71 176.121 348.878 173.137 349.514 171.505C350.003 170.21 351.275 169.534 352.352 169.14C354.407 168.464 356.756 168.915 358.664 169.984C361.844 171.786 363.655 175.446 365.612 178.711C369.037 184.454 373.588 189.071 379.117 191.886C390.126 197.46 402.995 194.476 411.459 184.679C412.144 183.891 411.068 182.709 410.432 183.497C404.658 190.253 396.487 193.856 388.267 192.956C379.851 192.055 372.218 186.425 367.324 178.599C363.704 172.687 359.153 164.748 351.667 167.62C349.563 168.408 347.508 170.547 347.85 173.306C348.144 175.783 350.101 177.754 352.254 176.91C353.086 176.628 352.694 174.995 351.814 175.333Z" fill="#161616"/>
<path d="M346.725 173.025C342.811 170.773 338.7 169.027 334.346 168.521C330.529 168.07 325.196 168.239 322.064 171.223C319.226 173.925 322.945 175.671 324.951 176.628C329.55 178.824 334.737 179.499 339.19 182.146C340.022 182.652 340.755 181.188 339.924 180.682C337.184 179.049 334.248 178.261 331.312 177.304C329.746 176.797 328.229 176.234 326.713 175.558C325.881 175.22 324.217 174.826 323.581 174.038C322.456 172.687 323.875 171.842 324.951 171.392C331.752 168.183 339.777 170.885 346.04 174.489C346.823 174.939 347.557 173.475 346.725 173.025Z" fill="#161616"/>
<path d="M338.847 181.076C336.743 179.612 334.101 179.443 331.997 180.963C330.284 182.145 328.865 184.735 329.648 187.044C330.529 189.69 333.954 189.971 335.96 190.422C339.043 191.041 341.979 191.041 344.817 189.408C345.648 188.902 344.915 187.438 344.083 187.945C340.902 189.802 337.379 189.127 334.003 188.226C332.682 187.888 332.633 187.944 331.801 186.312C330.725 185.298 330.774 184.229 331.85 183.215C332.144 182.934 332.437 182.708 332.731 182.427C334.395 181.245 336.45 181.414 338.113 182.54C338.896 183.103 339.63 181.639 338.847 181.076Z" fill="#161616"/>
<path d="M330.431 188.001C329.453 191.098 330.725 194.307 333.22 195.827C336.45 197.798 340.119 196.334 343.202 194.926C344.083 194.532 343.691 192.899 342.81 193.293C340.755 194.251 338.505 195.264 336.254 195.039C333.318 194.757 330.725 191.998 331.85 188.451C332.144 187.438 330.725 186.988 330.431 188.001Z" fill="#161616"/>
<path d="M332.731 195.095C331.85 198.248 334.052 200.894 336.548 201.738C340.217 202.921 343.153 200.556 345.795 197.91C346.529 197.178 345.453 195.996 344.768 196.728C343.104 198.36 341.392 200.106 339.141 200.331C336.89 200.556 333.171 198.98 334.15 195.545C334.444 194.532 333.025 194.081 332.731 195.095Z" fill="#161616"/>
<path d="M341.245 184.06C342.713 184.623 344.963 186.143 343.789 188.226C343.3 189.127 344.572 189.971 345.061 189.071C345.746 187.832 345.697 186.199 344.963 184.961C344.229 183.609 342.908 182.877 341.587 182.427C340.706 182.089 340.315 183.722 341.245 184.06Z" fill="#161616"/>
<path d="M343.349 189.803C344.376 191.098 343.936 193.124 342.468 193.631C341.587 193.913 341.93 195.545 342.859 195.264C345.453 194.419 346.187 190.816 344.425 188.564C343.74 187.832 342.713 189.014 343.349 189.803Z" fill="#161616"/>
<path d="M344.034 193.969C345.012 194.588 345.159 196.277 344.376 197.122C343.691 197.854 344.719 199.092 345.404 198.304C346.872 196.672 346.578 193.631 344.768 192.505C343.985 191.998 343.202 193.462 344.034 193.969Z" fill="#161616"/>
<path d="M345.746 174.376C346.823 174.939 347.899 175.558 348.976 176.121C349.808 176.571 350.59 175.108 349.71 174.657C348.633 174.094 347.557 173.475 346.48 172.912C345.648 172.461 344.915 173.925 345.746 174.376Z" fill="#161616"/>
<path d="M352.401 176.966C353.477 175.896 354.945 175.446 356.364 175.84C357.294 176.065 357.685 174.432 356.756 174.207C354.798 173.7 352.89 174.263 351.373 175.784C350.639 176.515 351.667 177.698 352.401 176.966Z" fill="#161616"/>
<path d="M353.233 178.993C351.863 183.666 353.477 188.846 357.147 191.379C357.979 191.942 358.713 190.478 357.881 189.915C354.749 187.776 353.477 183.328 354.652 179.443C354.945 178.374 353.526 177.923 353.233 178.993Z" fill="#161616"/>
<path d="M342.908 200.556C345.844 202.977 349.025 203.484 352.499 202.695C357.343 201.682 361.991 201.175 366.933 201.795C367.863 201.907 367.863 200.218 366.933 200.106C363.116 199.599 359.3 199.655 355.483 200.331C351.129 201.119 347.557 202.301 343.642 199.092C342.859 198.473 342.125 199.937 342.908 200.556Z" fill="#161616"/>
<path d="M365.661 201.063C372.658 204.891 379.117 210.015 386.358 213.168C393.013 216.039 400.303 216.602 407.251 214.632C414.395 212.605 420.169 207.763 425.209 201.738C430.444 195.545 435.141 188.564 438.469 180.738C442.383 171.617 444.291 161.483 443.313 151.348C443.215 150.279 441.747 150.279 441.845 151.348C442.921 162.496 440.426 173.588 435.631 183.271C431.178 192.28 424.866 201.288 417.478 207.369C410.04 213.449 400.401 215.476 391.496 213.168C382.395 210.803 374.713 204.103 366.346 199.543C365.563 199.149 364.829 200.612 365.661 201.063Z" fill="#161616"/>
<path opacity="0.16" d="M439.35 145.212C437.441 145.324 437.686 154.67 435.386 164.242C432.01 178.092 422.322 196.277 408.083 201.851C398.004 205.792 387.826 202.527 371.63 197.291C366.493 195.658 357.441 192.224 344.915 191.323C334.59 190.591 332.046 192.28 331.948 193.181C331.899 193.744 332.829 194.138 333.367 195.94C333.807 197.46 333.318 197.966 333.758 198.924C334.541 200.669 336.89 200.894 337.722 201.007C339.777 201.232 341.44 200.387 342.321 199.881C343.251 200.387 344.719 201.063 346.529 201.513C350.052 202.358 352.058 201.57 356.511 201.063C361.11 200.556 364.144 200.219 367.471 201.288C370.652 202.302 372.12 203.991 374.86 206.13C375.692 206.75 383.52 212.774 393.208 214.632C396.242 215.195 403.19 216.433 410.921 212.999C415.325 211.085 418.114 208.439 421.294 205.455C423.3 203.54 432.255 194.757 438.811 178.373C441.698 171.223 444.047 165.199 443.411 157.26C442.872 151.461 440.964 145.099 439.35 145.212Z" fill="#666666"/>
<path opacity="0.17" d="M345.697 195.658C348.046 194.307 350.786 195.433 351.863 195.883C357.979 198.304 358.566 196.615 367.814 198.191C375.447 199.486 375.74 202.02 385.771 205.736C395.41 209.339 403.19 212.211 410.872 209.396C421.784 205.398 426.823 192.73 427.215 193.124C427.606 193.462 423.203 205.736 412.683 211.479C403.141 216.715 393.208 214.069 390.37 213.337C385.771 212.098 382.052 210.071 377.991 207.819C373.245 205.229 369.526 202.527 366.835 200.5C363.41 200.331 360.719 200.669 358.86 200.95C354.309 201.738 352.401 202.921 348.682 202.302C347.703 202.133 343.642 201.457 343.3 199.318C343.104 197.91 344.425 196.39 345.697 195.658Z" fill="#666666"/>
<path d="M432.255 140.82C430.934 142.678 429.221 145.775 427.949 170.379C427.264 184.004 426.579 198.305 427.607 219.305C428.047 227.863 428.879 239.574 430.591 253.424C436.071 257.028 446.053 262.376 459.264 263.277C480.451 264.741 495.913 253.706 501.099 249.652C498.457 243.628 494.836 234.282 492.537 222.346C489.699 207.707 491.069 201.232 489.552 183.272C487.546 159.513 486.567 147.633 480.304 140.426C468.316 126.576 441.992 127.026 432.255 140.82Z" fill="#DBE2EF"/>
<path opacity="0.22" d="M458.922 130.685C462.396 136.653 466.848 145.492 470.371 156.978C471.888 161.989 479.423 187.775 473.943 220.937C471.056 238.559 465.429 252.747 460.047 263.22C463.815 263.501 468.218 263.445 473.062 262.713C485.931 260.686 495.57 254.549 501.295 250.045C499.485 246.216 497.185 240.811 495.228 234.055C494.836 232.591 492.928 226.004 491.656 215.757C490.775 208.776 490.922 206.467 490.335 195.094C490.188 192.448 489.601 181.694 488.329 169.308C486.469 151.179 485.05 147.238 482.702 143.747C479.374 138.792 475.166 136.146 473.307 134.964C467.436 131.473 461.955 130.798 458.922 130.685Z" fill="#666666"/>
<path opacity="0.22" d="M488.378 172.969C487.644 182.09 486.665 191.492 485.491 201.176C482.8 223.021 479.228 243.346 475.166 261.982C478.494 261.475 482.751 260.462 487.399 258.379C493.466 255.676 498.017 252.073 501.099 249.258C494.592 236.083 492.341 225.048 491.509 217.166C490.677 209.227 490.971 201.57 489.356 182.878C488.965 178.712 488.622 175.277 488.378 172.969Z" fill="#666666"/>
<path d="M412.291 73.8211C411.313 76.5799 411.362 79.8454 411.362 86.4327C411.362 91.1058 411.411 97.6368 413.515 105.35C415.129 111.318 416.695 117.286 421.539 122.579C422.909 124.099 428.83 130.573 437.197 130.573C438.811 130.573 440.181 130.348 441.062 130.123C441.454 131.812 442.285 134.177 443.851 136.598C444.683 137.836 445.515 138.793 446.249 139.525C447.423 139.525 450.408 139.3 453.49 137.048C456.426 134.852 457.796 131.981 458.286 130.742C457.405 129.729 455.105 126.745 454.958 122.41C454.909 121.227 455.056 120.214 455.203 119.313C456.818 116.948 458.53 113.852 459.998 110.08C460.732 108.222 461.27 106.476 461.76 104.843C462.493 105.069 463.961 105.35 465.38 104.562C466.897 103.661 467.435 101.916 468.072 99.7763C469.001 96.6234 470.029 93.0763 468.757 89.9234C467.533 86.9394 465.625 87.6151 463.961 84.8563C461.417 80.7462 463.912 76.5799 462.885 72.0758C461.319 65.1506 452.61 62.1666 449.233 60.9843C435.386 56.2549 416.597 61.5473 412.291 73.8211Z" fill="white"/>
<path d="M411.019 81.9289C412.243 82.1541 413.025 79.9583 414.934 77.7625C416.891 75.5668 420.169 73.2584 426.041 72.6391C430.836 72.0761 435.631 71.4567 440.426 70.8937C441.943 71.0063 445.417 71.4567 448.891 74.2155C451.68 76.4676 453.197 79.1701 453.931 80.6339C455.448 80.6902 456.916 80.8028 458.433 80.8591C458.726 82.9423 459.069 85.0255 459.362 87.1086C459.558 86.8834 462.2 84.181 464.94 85.1944C467.142 85.9826 468.072 88.6851 468.463 89.9237C469.686 93.3582 468.855 96.1169 469.589 96.3421C470.469 96.68 472.182 92.964 472.378 92.4573C472.818 91.5002 474.237 88.1784 474.628 82.9986C474.922 78.776 475.118 75.9609 473.699 73.3147C473.209 72.4139 472.72 71.8508 472.573 70.7248C472.329 68.5853 473.797 67.403 474.628 65.3761C475.069 64.3064 475.167 63.293 473.894 55.5233C472.524 47.1906 472.035 46.0646 471.301 45.8394C470.322 45.6142 469.442 47.1343 468.316 48.4293C466.359 50.7377 462.983 53.2712 456.72 54.2284C456.72 51.6948 456.426 49.6679 456.182 48.2041C455.741 45.952 455.497 45.952 453.931 40.6596C453.05 37.6756 452.855 36.437 452.267 36.3807C451.289 36.2681 450.946 39.1395 448.647 40.1529C447.619 40.6033 447.228 40.2092 445.857 40.4344C444.634 40.6033 442.971 41.2226 441.062 43.0806C441.062 43.0806 438.127 45.389 433.234 48.2604C427.802 51.4133 425.992 47.9789 420.365 50.8502C416.157 52.9897 413.613 56.8183 412.536 58.5636C411.46 60.309 408.426 65.3761 408.426 72.3576C408.328 76.355 409.307 81.6474 411.019 81.9289Z" fill="#122E4F"/>
<path d="M411.068 84.1804C410.236 93.7517 411.606 103.492 415.129 112.219C418.114 119.594 422.86 126.913 429.71 129.841C436.707 132.825 444.732 130.629 450.555 125.562C456.475 120.382 460.194 112.669 462.396 104.618C462.689 103.605 461.27 103.154 460.977 104.168C458.873 111.825 455.35 119.2 449.723 124.155C443.9 129.222 435.729 131.361 428.928 127.645C422.811 124.324 418.701 117.398 416.059 110.473C412.878 102.197 411.753 93.1324 412.536 84.1804C412.634 83.1106 411.166 83.1106 411.068 84.1804Z" fill="#161616"/>
<path d="M460.39 88.4032C461.075 84.9688 464.549 85.0814 466.31 87.2771C467.827 89.0788 468.169 91.725 468.218 94.146C468.316 98.1997 467.044 105.688 462.004 103.83C461.124 103.492 460.732 105.125 461.613 105.463C468.757 108.109 470.322 96.6795 469.442 91.162C468.903 87.9528 467.093 84.5183 464.01 84.0679C461.662 83.7301 459.509 85.4192 458.971 88.0654C458.775 88.9662 460.194 89.4166 460.39 88.4032Z" fill="#161616"/>
<path d="M429.221 84.8562C428.096 87.5587 426.97 90.2049 425.894 92.9074C425.356 94.3149 424.768 95.7225 424.866 97.3552C425.111 100.677 427.655 102.873 430.298 103.605C431.227 103.886 431.619 102.253 430.689 101.972C427.509 101.071 425.551 98.1435 426.921 94.4275C427.998 91.4998 429.27 88.6284 430.493 85.7007C430.885 84.7436 429.613 83.8991 429.221 84.8562Z" fill="#161616"/>
<path d="M422.077 92.2318C421.784 91.8377 421.588 91.331 421.539 90.8243C421.49 90.5991 421.49 90.3176 421.539 90.0924C421.539 89.9234 421.784 89.4167 421.784 89.3041C421.686 89.3041 421.637 89.3604 421.539 89.3604C421.588 89.5293 421.588 89.6982 421.588 89.8671C421.588 90.1486 421.588 90.4302 421.588 90.7117C421.539 91.4436 421.392 92.1192 421.148 92.7948C421.539 92.6822 421.979 92.5696 422.371 92.4007C421.882 91.894 421.686 91.3873 421.735 90.5991C421.833 89.5293 420.365 89.5293 420.267 90.5991C420.169 91.7251 420.56 92.8511 421.343 93.5831C421.784 94.0335 422.371 93.8083 422.567 93.189C423.007 91.894 423.203 90.4302 423.007 89.0789C422.86 88.1218 422.175 87.1646 421.294 87.6151C420.463 88.0092 420.12 89.3604 420.12 90.3739C420.12 91.4999 420.463 92.5696 421.148 93.4142C421.686 94.2587 422.713 93.02 422.077 92.2318Z" fill="#161616"/>
<path d="M440.769 91.3871C440.622 90.9367 440.524 90.5426 440.524 90.0921C440.524 89.8669 440.573 89.6417 440.622 89.4165C440.622 89.3602 440.671 89.2476 440.671 89.1913C440.769 89.0224 440.72 89.0224 440.475 89.1913C440.475 89.2476 440.573 89.5291 440.573 89.6417C440.573 89.8669 440.573 90.0921 440.524 90.3174C440.426 90.8241 440.23 91.2745 439.986 91.6686C440.377 91.7249 440.769 91.7812 441.16 91.8375C440.573 90.8804 440.622 89.7543 441.258 88.7972C440.867 88.8535 440.475 88.9098 440.084 88.9661C440.573 89.6417 440.23 90.6552 439.643 90.993C439.986 91.1619 440.377 91.3308 440.72 91.4997C440.573 91.0493 440.475 90.6552 440.426 90.1484C440.426 89.8669 440.475 89.5854 440.475 89.3039C440.475 89.1913 440.524 89.135 440.524 89.0224C440.377 88.7972 440.328 88.7409 440.426 88.9098C440.573 89.3602 440.671 89.698 440.622 90.2047C440.622 90.4299 440.524 90.7678 440.524 90.9367C440.524 91.0493 440.475 91.1056 440.475 91.2182C440.818 91.1619 440.866 91.0493 440.671 90.8241C440.133 89.9232 438.86 90.7678 439.399 91.6686C439.937 92.5694 441.111 93.3577 441.747 92.0627C442.237 90.993 442.237 89.135 441.747 88.1216C441.209 87.0518 439.937 86.714 439.301 87.8964C438.714 89.0224 438.86 90.7115 439.252 91.8938C439.447 92.4005 439.888 92.682 440.328 92.4005C441.845 91.4997 442.139 89.1913 441.062 87.7275C440.72 87.277 440.181 87.5022 439.888 87.8964C439.007 89.2476 438.958 91.2182 439.79 92.6257C440.035 93.0199 440.622 93.2451 440.964 92.7946C441.845 91.4997 442.775 88.4594 441.013 87.5023C440.23 87.1081 439.545 87.6712 439.301 88.5157C438.958 89.5854 438.958 90.7678 439.35 91.7812C439.741 92.7946 441.16 92.4005 440.769 91.3871Z" fill="#161616"/>
<path d="M425.111 81.9284C422.567 80.0141 419.239 80.9149 417.625 83.7863C417.135 84.6872 418.408 85.5317 418.897 84.6309C420.071 82.4914 422.518 81.9847 424.377 83.3359C425.16 83.9553 425.894 82.4914 425.111 81.9284Z" fill="#161616"/>
<path d="M438.616 82.379C440.867 80.1833 444.341 80.8589 445.368 84.1807C445.662 85.1941 447.081 84.7437 446.787 83.7303C445.368 79.1698 440.671 78.1001 437.588 81.1967C436.903 81.8723 437.931 83.0547 438.616 82.379Z" fill="#161616"/>
<path d="M440.426 130.742C441.209 134.064 442.726 137.048 444.928 139.413C445.613 140.145 446.64 138.962 445.955 138.23C443.949 136.035 442.53 133.388 441.845 130.292C441.551 129.222 440.132 129.672 440.426 130.742Z" fill="#161616"/>
<path d="M453.931 120.327C454.371 124.099 455.497 127.533 457.405 130.686C457.943 131.587 459.215 130.742 458.677 129.842C456.916 126.97 455.79 123.817 455.399 120.327C455.301 119.313 453.833 119.257 453.931 120.327Z" fill="#161616"/>
<path d="M445.025 139.694C450.31 141.777 456.377 136.879 458.334 131.305C458.677 130.291 457.258 129.841 456.916 130.854C455.252 135.584 449.821 139.806 445.417 138.061C444.536 137.723 444.145 139.356 445.025 139.694Z" fill="#161616"/>
<path d="M441.307 131.643C444.83 130.967 447.961 129.053 450.457 126.125C451.093 125.337 450.065 124.155 449.429 124.943C447.081 127.702 444.194 129.391 440.915 130.066C439.986 130.235 440.377 131.812 441.307 131.643Z" fill="#161616"/>
<path d="M442.139 132.769C446.249 131.418 450.897 127.702 452.757 123.198C453.148 122.241 451.876 121.34 451.484 122.353C449.772 126.463 445.515 129.954 441.698 131.193C440.818 131.474 441.209 133.051 442.139 132.769Z" fill="#161616"/>
<path d="M411.313 77.7622C408.524 73.99 409.649 67.2338 411.019 62.9549C412.683 57.7188 415.961 53.7776 420.707 52.2575C424.866 50.9063 429.319 51.0752 433.38 49.2735C437.882 47.2466 441.16 41.6727 446.347 42.0669C447.276 42.1232 447.276 40.4341 446.347 40.3778C440.426 39.9274 436.805 46.4584 431.472 48.2038C426.334 49.9491 420.609 49.3298 415.961 52.7642C412.291 55.4667 409.992 60.0271 408.964 64.8128C407.937 69.3733 407.398 75.1724 410.236 78.9446C410.872 79.7891 411.949 78.6068 411.313 77.7622Z" fill="#122E4F"/>
<path d="M426.97 71.4001C426.579 67.2901 427.362 63.2363 429.466 59.8582C431.814 56.086 435.386 54.3969 438.909 52.4827C441.845 50.9062 444.536 48.9356 446.64 46.0643C448.695 43.3618 449.723 39.3643 452.316 37.2812C451.974 37.1686 451.631 37.056 451.289 36.9997C453.735 43.587 458.628 51.6381 454.224 58.6196C453.686 59.5204 454.958 60.3649 455.497 59.4641C460.243 51.9196 455.203 43.3055 452.561 36.1551C452.414 35.761 451.876 35.5921 451.533 35.8736C448.695 38.0694 447.717 42.0105 445.515 44.8819C442.628 48.7667 438.86 50.5121 434.995 52.6516C428.634 56.1986 424.573 63.0674 425.405 71.4001C425.6 72.4698 427.117 72.4698 426.97 71.4001Z" fill="#122E4F"/>
<path d="M440.818 70.6117C443.949 63.9118 449.087 58.6757 455.35 56.1421C458.286 54.9598 461.368 54.2842 464.157 52.6514C466.848 51.1312 469.148 48.9918 471.154 46.4582C470.763 46.4019 470.371 46.3456 469.98 46.2893C471.79 50.7371 473.503 55.748 473.845 60.6463C474.188 65.9386 471.643 69.9924 468.854 73.8772C468.267 74.7217 469.295 75.9041 469.882 75.0595C472.671 71.1184 475.411 66.9521 475.313 61.6597C475.215 56.0858 473.209 50.3993 471.203 45.4448C471.007 44.938 470.371 44.8817 470.029 45.2759C467.484 48.4288 464.451 50.906 460.928 52.3699C457.943 53.6085 454.812 54.2841 451.925 55.9169C446.591 58.9009 442.236 63.7992 439.447 69.7672C439.105 70.7243 440.377 71.5688 440.818 70.6117Z" fill="#122E4F"/>
<path d="M471.644 70.9498C475.166 78.832 474.53 88.1781 470.029 95.3285C469.491 96.2293 470.763 97.0738 471.301 96.173C476.145 88.5159 476.683 78.4942 472.916 70.1052C472.475 69.1481 471.203 69.9926 471.644 70.9498Z" fill="#122E4F"/>
<path opacity="0.14" d="M453.441 80.0705C453.588 82.8293 453.686 86.8267 453.441 91.6124C452.952 100.17 452.561 107.546 449.282 114.471C445.172 123.085 438.126 127.589 433.429 129.841C435.68 130.01 439.301 129.898 443.46 128.321C446.885 127.026 449.478 125.168 451.142 123.704C452.071 127.927 453.05 132.15 453.98 136.372C455.448 134.346 456.867 132.262 458.334 130.235C457.062 127.308 455.79 124.324 454.518 121.396C455.546 119.482 456.524 117.455 457.503 115.259C459.264 111.431 460.683 107.771 461.857 104.28C462.494 104.562 464.353 105.294 466.017 104.28C467.876 103.154 468.316 100.621 468.708 98.3123C469.099 95.8913 470.176 89.4166 466.848 86.6015C465.478 85.4192 463.081 84.631 461.172 85.8133C460.145 86.4889 459.607 87.5024 459.313 88.1217C459.068 85.8133 458.873 83.5049 458.628 81.1965C456.916 80.8587 455.154 80.4646 453.441 80.0705Z" fill="#666666"/>
<path opacity="0.2" d="M442.237 70.499C444.977 67.0646 448.255 62.1664 451.093 55.6916C453.099 51.0749 454.42 46.7959 455.252 43.1926C457.454 47.7531 457.258 51.4127 457.111 52.9891C456.279 60.1958 450.604 64.6999 447.423 67.2335C445.417 68.81 443.558 69.8234 442.237 70.499Z" fill="#212121"/>
<path opacity="0.16" d="M452.267 76.8049C455.056 75.6788 458.335 74.0461 461.809 71.6251C468.121 67.1773 472.377 61.8849 475.02 58.0001C475.362 60.3647 475.705 65.0378 473.503 69.3167C469.98 76.2982 461.319 79.6763 452.267 76.8049Z" fill="#212121"/>
<path opacity="0.22" d="M420.218 73.7646C420.12 71.3999 420.267 68.0218 421.197 64.137C423.398 55.2413 428.879 48.5977 429.71 49.1607C430.395 49.6111 428.732 54.9035 420.218 73.7646Z" fill="#212121"/>
<path d="M422.616 110.023C429.906 110.417 437.001 108.728 443.558 105.012C444.194 104.674 443.656 103.548 443.019 103.942C436.659 107.546 429.71 109.178 422.665 108.784C421.882 108.728 421.931 109.967 422.616 110.023Z" fill="#161616"/>
<path d="M423.35 110.248C424.328 112.275 425.013 114.471 425.405 116.723C425.551 117.511 426.579 117.173 426.481 116.385C426.09 114.02 425.356 111.712 424.328 109.573C423.986 108.897 423.007 109.573 423.35 110.248Z" fill="#161616"/>
<path d="M425.502 116.779C428.438 120.045 433.184 118.412 436.316 116.329C440.084 113.908 442.824 109.854 443.753 105.012C443.9 104.224 442.824 103.886 442.677 104.674C441.894 108.672 439.888 112.05 436.952 114.415C434.163 116.61 429.123 119.088 426.285 115.878C425.796 115.315 425.013 116.216 425.502 116.779Z" fill="#161616"/>
<path d="M424.817 112.557C428.145 113.57 431.961 112.444 435.142 111.318C438.224 110.248 441.062 108.503 443.215 105.688C443.704 105.068 442.922 104.168 442.432 104.787C440.377 107.433 437.784 109.066 434.848 110.079C431.863 111.093 428.194 112.275 425.111 111.318C424.426 111.149 424.132 112.388 424.817 112.557Z" fill="#161616"/>
<path d="M425.307 113.176C425.698 114.246 426.09 115.315 426.481 116.385C426.726 117.061 427.704 116.554 427.509 115.878C427.166 114.865 426.921 113.908 426.726 112.838C426.481 113.12 426.285 113.345 426.041 113.626C427.215 113.851 428.389 113.964 429.613 113.964C430.2 113.964 430.395 112.838 429.759 112.725C428.634 112.5 427.753 112.557 426.628 112.951C426.285 113.063 426.09 113.514 426.285 113.908C426.579 114.415 426.921 114.978 427.215 115.484C427.606 116.16 428.487 115.597 428.145 114.865C427.998 114.358 427.851 113.851 427.704 113.401C427.362 113.57 427.019 113.739 426.677 113.908C427.166 114.64 427.362 115.428 427.166 116.272C427.509 116.16 427.851 116.047 428.194 115.935C427.509 114.64 426.921 116.16 426.775 116.554C426.628 117.061 427.215 117.624 427.606 117.286C431.619 113.795 436.316 112.05 441.062 110.361C441.747 110.136 441.454 108.897 440.769 109.122C435.925 110.811 431.129 112.613 427.068 116.16C427.362 116.385 427.606 116.61 427.9 116.892C428.096 116.385 428.683 116.272 428.781 115.484C428.879 114.809 428.634 113.795 427.998 113.57C426.236 112.894 426.872 115.766 427.313 116.554C427.606 117.117 428.291 116.835 428.34 116.216C428.438 115.034 428.243 114.189 427.704 113.232C427.362 112.669 426.53 113.007 426.677 113.739C426.872 114.696 426.872 114.64 427.215 115.541C427.509 115.315 427.851 115.09 428.145 114.921C427.851 114.414 427.509 113.851 427.215 113.345C427.117 113.683 427.019 113.964 426.873 114.302C427.704 113.908 428.536 113.851 429.417 114.077C429.466 113.683 429.515 113.232 429.564 112.838C428.438 112.838 427.46 112.782 426.285 112.557C425.845 112.444 425.502 112.838 425.6 113.345C425.796 114.415 426.041 115.372 426.383 116.385C426.726 116.216 427.068 116.047 427.411 115.878C427.019 114.809 426.628 113.739 426.236 112.669C425.992 111.768 425.013 112.444 425.307 113.176Z" fill="#161616"/>
<path d="M428.438 115.203C430.151 114.02 431.912 113.12 433.821 112.331C433.674 111.937 433.527 111.543 433.38 111.149C431.668 112.05 429.955 112.951 428.291 113.795C427.753 114.077 428.145 115.203 428.732 114.978C433.331 112.894 437.882 110.755 442.041 107.602C441.747 107.377 441.503 107.152 441.209 106.87C440.573 108.841 437.735 109.066 436.267 109.685C435.044 110.192 433.869 110.868 432.646 111.374C430.934 112.05 428.928 111.937 427.606 113.626C427.117 114.246 427.9 115.146 428.389 114.527C429.466 113.12 431.472 113.176 432.94 112.613C434.408 112.05 435.827 111.205 437.344 110.642C439.399 109.91 441.454 109.854 442.285 107.264C442.432 106.758 441.845 106.251 441.454 106.532C437.392 109.573 432.891 111.712 428.389 113.739C428.536 114.133 428.683 114.527 428.83 114.921C430.542 114.02 432.255 113.12 433.918 112.275C434.506 111.994 434.065 110.868 433.478 111.093C431.521 111.881 429.662 112.894 427.851 114.077C427.264 114.527 427.851 115.653 428.438 115.203Z" fill="#161616"/>
<path d="M441.649 109.01C441.649 108.953 441.6 108.897 441.6 108.841C441.6 108.784 441.6 108.841 441.6 108.953C441.551 109.01 441.454 109.122 441.405 109.179H441.454C441.307 109.179 441.16 109.235 441.013 109.235C440.769 109.179 440.769 108.672 440.72 109.01C440.72 109.122 440.72 109.179 440.769 109.291C440.818 109.516 440.915 109.629 441.111 109.798C441.356 110.023 441.747 109.854 441.845 109.573C441.992 109.235 441.894 108.897 441.649 108.728C441.649 108.728 441.6 108.728 441.6 108.672C441.649 108.728 441.747 108.841 441.796 108.897C441.845 109.066 441.845 109.066 441.845 108.953C441.845 108.897 441.845 108.841 441.845 108.841C441.845 108.672 441.796 108.503 441.747 108.39C441.6 108.165 441.405 107.996 441.16 107.996C440.524 107.996 440.426 108.841 440.622 109.347C440.72 109.685 440.964 109.91 441.307 109.798C441.551 109.685 441.796 109.291 441.649 109.01Z" fill="#161616"/>
<path d="M441.747 103.886C442.677 104.337 443.46 105.069 443.998 106.082C444.34 106.758 445.319 106.138 444.928 105.463C444.243 104.168 443.264 103.211 442.041 102.704C441.356 102.366 441.062 103.605 441.747 103.886Z" fill="#161616"/>
<path d="M428.389 117.68C432.255 114.527 436.512 112.331 441.111 111.149C441.796 110.98 441.503 109.742 440.818 109.91C436.071 111.093 431.766 113.345 427.802 116.554C427.264 117.061 427.802 118.187 428.389 117.68Z" fill="#161616"/>
<path d="M427.411 116.667C432.206 116.385 436.658 114.696 440.622 111.599C441.209 111.149 440.671 110.023 440.084 110.53C436.267 113.514 432.01 115.203 427.411 115.428C426.677 115.484 426.677 116.723 427.411 116.667Z" fill="#161616"/>
<path d="M431.863 115.259C434.555 114.583 437.05 113.401 439.399 111.712C439.986 111.262 439.448 110.192 438.86 110.642C436.61 112.275 434.212 113.401 431.619 114.077C430.885 114.189 431.178 115.428 431.863 115.259Z" fill="#161616"/>
<path d="M428.487 117.455C432.402 117.342 436.022 116.047 439.252 113.514C439.839 113.063 439.301 111.937 438.714 112.444C435.631 114.865 432.206 116.104 428.487 116.216C427.802 116.216 427.802 117.511 428.487 117.455Z" fill="#161616"/>
<path d="M428.487 117.342C428.438 118.299 429.221 118.412 429.857 118.299C431.325 118.074 432.744 117.68 434.163 117.286C434.848 117.061 434.554 115.878 433.869 116.047C433.135 116.273 432.402 116.441 431.619 116.61C431.276 116.667 429.613 116.779 429.564 117.286C429.661 116.554 428.536 116.554 428.487 117.342Z" fill="#161616"/>
<path d="M437.833 123.93C438.322 122.354 442.726 122.692 446.543 123.255C446.543 122.41 446.689 121.171 447.13 119.82C447.472 118.75 448.011 117.681 449.968 115.203C452.072 112.557 453.148 111.262 454.518 110.305C455.546 109.573 457.258 108.616 459.656 108.166C460.635 108.56 461.662 108.954 462.641 109.292C462.934 108.222 463.521 106.195 464.647 102.254C465.381 99.6078 465.821 98.2566 466.8 97.8062C467.778 97.412 469.099 97.8061 469.784 98.7633C470.763 100.171 469.882 102.198 469.344 105.632C469.05 107.603 469.295 107.265 469.197 114.64C469.099 122.185 468.855 122.129 468.904 125.281C468.953 128.209 469.295 132.375 470.469 137.386C471.546 136.823 473.258 136.204 475.314 136.26C480.109 136.317 483.485 139.92 485.98 142.679C490.873 148.027 492.977 153.939 494.396 158.105C497.136 166.157 497.479 172.857 497.528 175.784C497.577 180.345 497.675 184.624 495.668 189.578C495.032 191.155 493.271 195.377 489.259 198.586C487.595 199.938 484.463 202.415 480.402 202.021C478.054 201.796 475.95 200.67 473.699 198.586C466.164 191.549 462.69 178.768 461.613 174.32C459.558 166.213 457.307 154.446 456.916 139.751C455.839 139.695 454.567 139.413 453.197 138.794C448.157 136.373 446.2 130.574 445.809 129.11C444.781 129.166 441.111 129.11 438.812 126.182C438.322 125.507 437.637 124.662 437.833 123.93Z" fill="white"/>
<path d="M444.634 127.871C442.041 127.645 439.056 126.519 438.371 123.254C438.224 123.592 438.028 123.929 437.882 124.267C441.649 123.366 445.417 124.661 449.184 124.042C450.114 123.873 449.723 122.24 448.793 122.409C445.025 123.029 441.258 121.734 437.49 122.634C437.099 122.747 436.903 123.254 437.001 123.648C437.833 127.702 441.405 129.222 444.683 129.503C445.612 129.616 445.612 127.927 444.634 127.871Z" fill="#161616"/>
<path d="M447.423 121.846C446.836 117.849 452.169 118.074 454.175 118.693C455.105 118.975 455.496 117.342 454.567 117.061C451.288 116.047 445.221 116.779 446.004 122.24C446.151 123.366 447.57 122.916 447.423 121.846Z" fill="#161616"/>
<path d="M449.527 117.961C449.967 115.991 450.897 114.189 452.561 113.288C454.518 112.275 456.475 113.288 458.285 114.189C459.117 114.639 459.9 113.176 459.019 112.725C456.769 111.543 454.371 110.417 451.973 111.712C449.918 112.781 448.646 115.034 448.108 117.511C447.912 118.581 449.331 119.031 449.527 117.961Z" fill="#161616"/>
<path d="M454.665 111.205C454.567 111.092 456.23 109.516 456.475 109.347C457.16 108.953 457.943 108.728 458.726 108.728C460.634 108.728 462.347 109.797 463.863 110.924C464.646 111.487 465.38 110.079 464.597 109.46C462.151 107.658 459.166 106.25 456.279 107.602C455.056 108.165 452.12 110.698 453.588 112.444C454.273 113.176 455.301 111.993 454.665 111.205Z" fill="#161616"/>
<path d="M469.197 125.449C469.784 120.664 469.98 115.934 469.686 111.092C469.539 108.334 469.784 106.194 470.371 103.492C470.665 102.084 470.909 100.62 470.567 99.2126C470.029 97.2984 468.169 95.7219 466.408 96.7353C465.282 97.4109 464.989 98.9311 464.597 100.226C463.863 102.647 463.178 105.124 462.493 107.545C462.2 108.559 463.619 109.009 463.912 107.996C464.304 106.588 464.695 105.181 465.136 103.829C465.38 102.985 465.772 100.17 466.359 99.663C468.805 99.3252 469.784 100.113 469.197 102.14C469.05 102.816 468.903 103.435 468.707 104.111C468.463 105.181 468.218 106.194 468.12 107.264C467.925 109.966 468.365 112.781 468.365 115.54C468.365 118.749 468.169 121.902 467.778 125.055C467.68 126.069 469.099 126.519 469.197 125.449Z" fill="#161616"/>
<path d="M443.851 129.672C446.395 129.898 447.031 132.938 448.206 134.965C448.793 136.034 449.527 136.992 450.408 137.78C452.12 139.356 454.126 140.201 456.328 140.426C457.258 140.539 457.258 138.85 456.328 138.737C452.609 138.343 450.261 135.866 448.548 132.262C447.472 130.01 446.2 128.209 443.851 128.04C442.872 127.927 442.921 129.616 443.851 129.672Z" fill="#161616"/>
<path d="M456.083 139.694C457.6 145.718 457.747 151.911 458.187 158.105C458.579 163.341 459.313 168.577 460.585 173.588C463.08 183.271 467.386 192.224 473.6 199.43C474.285 200.218 475.313 198.98 474.628 198.248C468.218 190.816 463.863 181.47 461.564 171.392C459.117 160.807 460.145 149.716 457.502 139.243C457.209 138.23 455.79 138.68 456.083 139.694Z" fill="#161616"/>
<path d="M467.778 124.774C468.512 134.176 470.909 143.354 474.922 151.574C478.836 159.568 484.854 166.494 486.224 175.84C486.371 176.909 487.79 176.459 487.643 175.389C486.42 166.888 481.38 160.413 477.515 153.319C472.867 144.705 470.078 134.908 469.246 124.83C469.148 123.704 467.68 123.704 467.778 124.774Z" fill="#161616"/>
<path d="M471.154 137.836C478.445 135.133 485.637 141.889 489.454 148.421C493.466 155.289 495.277 163.735 496.108 171.898C496.891 179.893 496.353 188.62 491.705 195.038C487.399 201.006 479.423 203.371 473.992 197.966C473.258 197.234 472.23 198.473 472.964 199.149C478.102 204.272 485.686 203.54 490.726 198.586C496.891 192.561 498.408 182.765 497.772 173.925C497.087 164.298 494.983 153.994 489.894 146.112C485.637 139.581 478.2 133.444 470.811 136.147C469.882 136.541 470.224 138.174 471.154 137.836Z" fill="#161616"/>
<path opacity="0.15" d="M467.974 99.776C465.38 100.902 465.576 108.559 465.772 114.077C466.457 130.46 466.799 138.681 469.588 151.292C473.6 169.252 477.27 173.926 479.276 176.121C482.163 179.274 487.692 183.835 490.041 182.033C493.76 179.162 487.839 162.046 486.371 157.879C481.429 143.691 480.353 138.962 476.683 137.498C474.481 136.654 472.328 136.991 470.811 137.498C468.707 132.318 468.365 128.152 468.414 125.281C468.463 122.86 468.805 122.86 468.952 119.2C469.246 112.556 468.218 112.162 468.756 107.827C469.295 103.604 470.714 101.071 469.686 100.057C469.344 99.4945 468.512 99.5508 467.974 99.776Z" fill="#666666"/>
<path opacity="0.15" d="M472.182 140.369C475.656 144.254 478.053 147.97 479.668 150.898C483.631 157.935 485.295 164.241 485.882 166.662C486.714 170.097 487.105 173.081 487.35 175.276C486.518 172.349 484.952 167.957 482.212 163.059C480.01 159.118 478.591 157.766 476.732 154.219C475.215 151.292 473.307 146.788 472.182 140.369Z" fill="#666666"/>
</svg>
