<svg width="84" height="84" viewBox="0 0 84 84" fill="none" xmlns="http://www.w3.org/2000/svg">
<path d="M12.3467 74.8933L5.74875 0.887329H78.2513L71.6468 74.8822L41.956 83.1135L12.3467 74.8933Z" fill="#136F82"/>
<path d="M42.0006 76.8219L65.9925 70.1702L71.6369 6.93787H42.0006V76.8219Z" fill="#52C4D3"/>
<path d="M42.0006 33.7502H54.0113L54.8408 24.4557H42.0006V15.3792H64.7607L64.5428 17.8145L62.3116 42.8268H42.0006V33.7502Z" fill="white"/>
<path d="M42.0545 57.3228L42.0145 57.3347L31.9062 54.6053L31.2598 47.3662H22.1498L23.4209 61.618L42.0131 66.7781L42.0545 66.7663V57.3228Z" fill="#EBEBEB"/>
<path d="M53.2396 42.443L52.1463 54.5981L42.023 57.3307V66.7741L60.6303 61.6173L60.7668 60.0836L62.3457 42.443H53.2396Z" fill="white"/>
<path d="M42.0315 15.3792V24.4557H20.1075L19.9257 22.4161L19.5123 17.8145L19.2951 15.3792H42.0315ZM42.0007 33.7515V42.8281H32.0198L31.838 40.7885L31.4239 36.1869L31.2073 33.7515H42.0007Z" fill="#EBEBEB"/>
</svg>
