<svg width="83" height="70" viewBox="0 0 83 70" fill="none" xmlns="http://www.w3.org/2000/svg">
<path fill-rule="evenodd" clip-rule="evenodd" d="M12.5203 56.6419V51.3157C12.5203 50.6159 12.9561 50.0537 13.6778 50.0537H13.8775C14.5989 50.0537 15.0327 50.6165 15.0327 51.3157V62.5289C15.0327 65.2633 13.6872 67.4391 11.3424 68.8252C10.2683 69.4641 9.04228 69.7998 7.79385 69.7968H7.29552C4.57144 69.7968 2.40728 68.445 1.02448 66.0924C0.38723 65.0142 0.0528934 63.7827 0.057014 62.5289V62.0293C0.057014 59.2939 1.40317 57.1194 3.74597 55.7308C4.81986 55.0905 6.04659 54.7547 7.29552 54.7591H7.79385C9.63735 54.7591 11.2014 55.4765 12.5203 56.6419ZM2.56906 62.2786C2.56906 64.2539 3.52259 65.7389 5.24646 66.6862C5.94353 67.069 6.70026 67.2747 7.49556 67.2747C9.42661 67.2747 10.859 66.36 11.8469 64.7171C12.3063 63.9528 12.5203 63.1165 12.5203 62.2275C12.5203 60.5153 11.713 59.179 10.3386 58.1865C9.5054 57.5849 8.56743 57.2832 7.54452 57.2832C5.43969 57.2832 3.92494 58.3509 3.01583 60.2474C2.70912 60.8886 2.56906 61.5693 2.56906 62.2786ZM23.7483 54.7591H24.0965C27.0074 54.7591 29.2211 56.1767 30.624 58.7278C31.1849 59.7483 31.4852 60.8623 31.4852 62.0293V62.5289C31.4852 65.2633 30.1422 67.442 27.7939 68.8255C26.7068 69.4658 25.5059 69.7968 24.246 69.7968H23.7483C21.0242 69.7968 18.8594 68.445 17.4773 66.0924C16.8397 65.0143 16.5051 63.7828 16.5088 62.5289V62.0293C16.5088 59.2936 17.8605 57.1263 20.1975 55.7314C21.2839 55.0833 22.4858 54.7591 23.7483 54.7591ZM19.0212 62.2786C19.0212 64.1959 19.9582 65.6064 21.5712 66.5983C22.3286 67.0638 23.1628 67.2747 24.0476 67.2747C25.9345 67.2747 27.3293 66.3141 28.3 64.7151C28.763 63.9528 28.9725 63.1152 28.9725 62.2275C28.9725 60.4446 28.1172 59.0827 26.6549 58.0957C25.8538 57.5543 24.9619 57.2832 23.997 57.2832C21.8922 57.2832 20.3774 58.3509 19.4686 60.2474C19.1613 60.8886 19.0212 61.5693 19.0212 62.2786ZM41.9292 57.4847C41.5499 57.3063 40.8398 57.247 40.43 57.2314C38.331 57.152 36.8124 58.3388 35.9214 60.1979C35.6138 60.8392 35.4734 61.5179 35.4734 62.2275C35.4734 64.388 36.6033 65.9007 38.5239 66.8229C39.2256 67.1595 40.1314 67.2233 40.8982 67.2233C41.5726 67.2233 42.5258 66.8086 43.1243 66.5231L43.228 66.4736H43.6926L43.7439 66.484C44.3151 66.6035 44.7463 66.9671 44.7463 67.5843V67.834C44.7463 69.3698 41.9509 69.7213 40.8843 69.7962C37.1201 70.0576 34.3049 67.9821 33.2317 64.3773C33.0453 63.7513 32.9613 63.1295 32.9613 62.4772V61.9782C32.9613 59.2428 34.3133 57.0761 36.65 55.6826C37.7364 55.0348 38.938 54.7093 40.2002 54.7093H40.6982C42.0372 54.7093 43.2705 55.0911 44.3761 55.8493L44.4669 55.9124L44.5243 56.0075C44.6436 56.206 44.7463 56.4358 44.7463 56.6722V56.9218C44.7463 57.5657 44.2665 57.9121 43.6874 58.0241L43.6395 58.0325H43.491C43.1162 58.0325 42.2638 57.6429 41.9292 57.4847ZM50.0781 59.1927C51.054 58.2116 52.0332 57.2324 53.0237 56.2675C53.2996 55.9983 54.3445 54.859 54.756 54.859H55.206L55.2572 54.8698C55.8304 54.9892 56.2597 55.3535 56.2597 55.972V56.2213C56.2597 56.6432 55.7675 57.1334 55.4961 57.4222C54.919 58.0364 54.3114 58.6305 53.7207 59.2321L50.6854 62.3258C51.9923 63.6409 53.2979 64.957 54.5942 66.2822C54.9537 66.648 55.3104 67.0165 55.6644 67.3877C55.7892 67.5195 55.9734 67.6836 56.0781 67.8662C56.1906 68.0374 56.2597 68.2304 56.2597 68.4365V68.6969L56.2451 68.7571C56.1041 69.3327 55.7403 69.7968 55.1051 69.7968H54.9051C54.4894 69.7968 54.02 69.3248 53.7353 69.055C53.1485 68.4996 52.5821 67.9157 52.0069 67.3483L50.0781 65.4472V68.4856C50.0781 69.1855 49.6417 69.748 48.921 69.748H48.7232C48.0015 69.748 47.5658 69.1855 47.5658 68.4856V51.3646C47.5658 50.6647 48.0018 50.1048 48.7232 50.1048H48.921C49.6417 50.1048 50.0781 50.6647 50.0781 51.3646V59.1927ZM81.3902 54.859H81.6398C82.3933 54.859 82.8962 55.3688 82.8962 56.1211C82.8962 57.1653 81.9018 57.4326 81.0417 57.4326C79.9134 57.4326 78.836 58.1185 78.0582 58.8877C77.0885 59.8476 76.6641 61.0771 76.6641 62.4287V68.5351C76.6641 69.235 76.2286 69.7968 75.5066 69.7968H75.3082C74.5861 69.7968 74.151 69.2353 74.151 68.5351V62.0781C74.151 59.5986 75.3532 57.5745 77.3576 56.1549C78.5543 55.3069 79.9251 54.8593 81.3902 54.8593V54.859ZM63.5342 66.9606C64.4485 67.2812 65.4908 67.2353 66.4288 67.0713C66.9086 66.8665 68.1355 66.3291 68.5868 66.4079L68.6572 66.4199L68.722 66.4518C68.9976 66.5859 69.2605 66.7757 69.4012 67.0573C69.73 67.7171 69.5721 68.3805 68.9263 68.7552L68.7113 68.8799C66.3283 70.2607 63.7936 70.0693 61.418 68.7796C60.2823 68.1631 59.4134 67.248 58.7724 66.1325L58.6226 65.8717C57.0926 63.2116 57.2991 60.4134 59.0246 57.8838C59.6202 57.0094 60.3987 56.334 61.3087 55.8056L61.6531 55.6061C63.8973 54.3053 66.3027 54.3945 68.6075 55.5361C69.847 56.15 70.8511 57.0651 71.543 58.2685L71.6675 58.4853C72.1701 59.3597 71.519 60.1214 70.8469 60.6422C70.0669 61.2464 69.2793 61.9736 68.5317 62.6214C66.8645 64.0664 65.2 65.5146 63.5342 66.9606ZM61.3765 65.4391C63.2408 63.8343 65.1057 62.2278 66.9651 60.6162C67.6005 60.0661 68.2973 59.4951 68.9276 58.9166C68.4218 58.2767 67.5769 57.8154 66.859 57.5403C65.4098 56.986 63.9809 57.1722 62.652 57.9424C60.9125 58.9508 60.1717 60.5566 60.2365 62.555C60.2625 63.3421 60.4732 64.1006 60.8892 64.7702C61.0357 65.0062 61.1995 65.2278 61.3765 65.4391ZM47.8183 14.8932H55.2319V22.5022H58.9802C60.7115 22.5022 62.4918 22.1927 64.1311 21.6351C64.9367 21.3606 65.8407 20.9791 66.6353 20.499C65.5888 19.1272 65.0544 17.3951 64.8975 15.6878C64.6835 13.3652 65.1504 10.3424 66.7157 8.5247L67.4952 7.61975L68.4237 8.36943C70.7617 10.2552 72.728 12.8906 73.0746 15.8948C75.8898 15.0634 79.1952 15.2601 81.6765 16.6979L82.6945 17.2877L82.1589 18.3379C80.0603 22.4498 75.6726 23.7239 71.3832 23.4983C64.9646 39.5494 50.9905 47.1484 34.0471 47.1484C25.2932 47.1484 17.2623 43.8629 12.6889 36.0654L12.614 35.9384L11.9477 34.5771C10.4019 31.1448 9.8883 27.3847 10.2365 23.6276L10.3412 22.5022H16.681V14.8932H24.0943V7.44983H38.9218V0.00646973H47.8183V14.8932Z" fill="#364548"/>
<path fill-rule="evenodd" clip-rule="evenodd" d="M71.8372 17.7083C72.3342 13.8293 69.4432 10.7828 67.6502 9.33618C65.584 11.7346 65.263 18.0204 68.5046 20.6669C66.6954 22.2802 62.8836 23.7424 58.9803 23.7424H11.4677C11.0883 27.8333 11.8036 31.6005 13.4373 34.8248L13.9778 35.8176C14.32 36.4004 14.6939 36.9637 15.0979 37.5051C17.0514 37.6311 18.8524 37.6744 20.5001 37.6379H20.5007C23.7387 37.5663 26.3808 37.1822 28.3831 36.4856C28.5247 36.4414 28.6778 36.4542 28.8102 36.5213C28.9425 36.5884 29.0436 36.7046 29.0922 36.8452C29.1407 36.9859 29.1329 37.1399 29.0703 37.2749C29.0078 37.4098 28.8954 37.515 28.757 37.5683C28.4904 37.6614 28.2129 37.748 27.9263 37.8303H27.9253C26.3487 38.2825 24.6579 38.5865 22.4765 38.7216C22.6062 38.7239 22.3416 38.7411 22.341 38.7411C22.2667 38.746 22.1734 38.7568 22.0988 38.7607C21.2403 38.8092 20.3137 38.8193 19.3663 38.8193C18.3301 38.8193 17.3098 38.7997 16.1688 38.7411L16.1397 38.7607C20.0984 43.2281 26.2884 45.9075 34.0476 45.9075C50.4686 45.9075 64.397 38.5989 70.565 22.191C74.9406 22.6418 79.1461 21.5214 81.059 17.7721C78.0119 16.0068 74.0934 16.5696 71.8372 17.7083Z" fill="#22A0C8"/>
<path fill-rule="evenodd" clip-rule="evenodd" d="M71.8371 17.7083C72.3341 13.8293 69.4431 10.7828 67.6501 9.33618C65.5839 11.7346 65.2629 18.0204 68.5044 20.6669C66.6953 22.2802 62.8834 23.7424 58.9802 23.7424H14.2811C14.0872 30.0074 16.4028 34.7629 20.4996 37.6379H20.5006C23.7386 37.5663 26.3806 37.1822 28.383 36.4856C28.5246 36.4414 28.6777 36.4542 28.81 36.5213C28.9424 36.5884 29.0435 36.7046 29.0921 36.8452C29.1406 36.9859 29.1328 37.1399 29.0702 37.2749C29.0077 37.4098 28.8953 37.515 28.7568 37.5683C28.4903 37.6614 28.2128 37.748 27.9262 37.8303H27.9252C26.3485 38.2825 24.5125 38.6256 22.3311 38.7607C22.3305 38.7607 22.2783 38.7102 22.2777 38.7102C27.8662 41.5885 35.9694 41.5781 45.2599 37.995C55.677 33.9768 65.3709 26.3219 72.1344 17.5663C72.0326 17.6126 71.9334 17.6598 71.8371 17.7083Z" fill="#37B1D9"/>
<path fill-rule="evenodd" clip-rule="evenodd" d="M11.5568 28.7129C11.8518 30.9043 12.4905 32.9561 13.4373 34.8249L13.9777 35.8177C14.3199 36.4005 14.6938 36.9639 15.0979 37.5052C17.0516 37.6312 18.8527 37.6745 20.5007 37.638C23.7387 37.5664 26.3807 37.1823 28.3831 36.4857C28.5247 36.4415 28.6778 36.4543 28.8101 36.5214C28.9424 36.5885 29.0436 36.7047 29.0921 36.8453C29.1407 36.9859 29.1329 37.14 29.0703 37.275C29.0077 37.4099 28.8954 37.5151 28.7569 37.5684C28.4904 37.6615 28.2129 37.7481 27.9263 37.8304H27.9253C26.3486 38.2826 24.5223 38.6061 22.341 38.7415C22.2661 38.7461 22.1354 38.7471 22.0599 38.7513C21.202 38.7995 20.2848 38.8291 19.3371 38.8291C18.3012 38.8291 17.2416 38.8093 16.1014 38.751C20.0601 43.2184 26.2883 45.9076 34.0475 45.9076C48.1056 45.9076 60.3365 40.5501 67.4352 28.7129H11.5568Z" fill="#1B81A5"/>
<path fill-rule="evenodd" clip-rule="evenodd" d="M14.7088 28.7129C15.5492 32.5605 17.5687 35.5811 20.5006 37.638C23.7386 37.5664 26.3807 37.1823 28.383 36.4857C28.5246 36.4415 28.6777 36.4543 28.8101 36.5214C28.9424 36.5885 29.0435 36.7047 29.0921 36.8453C29.1406 36.9859 29.1328 37.14 29.0702 37.275C29.0077 37.4099 28.8953 37.5151 28.7569 37.5684C28.4904 37.6615 28.2128 37.748 27.9262 37.8304H27.9252C26.3486 38.2826 24.4837 38.6061 22.302 38.7415C27.8902 41.6191 35.9701 41.5778 45.2599 37.9951C50.8799 35.8271 56.2889 32.5999 61.1414 28.7129H14.7088Z" fill="#1D91B4"/>
<path fill-rule="evenodd" clip-rule="evenodd" d="M17.9163 16.1338H24.3416V22.585H17.9163V16.1338ZM18.4516 16.6715H18.9586V22.0475H18.4516V16.6715ZM19.4048 16.6715H19.9323V22.0475H19.4051V16.6715H19.4048ZM20.3781 16.6715H20.9056V22.0475H20.3781V16.6715ZM21.352 16.6715H21.8792V22.0475H21.352V16.6715ZM22.3256 16.6715H22.8528V22.0475H22.3256V16.6715ZM23.2989 16.6715H23.8063V22.0475H23.2989V16.6715ZM25.3298 8.69043H31.7555V15.1413H25.3295V8.69043H25.3298ZM25.8655 9.22819H26.3722V14.6038H25.8655V9.22819ZM26.8187 9.22819H27.3458V14.6038H26.819V9.22819H26.8187ZM27.792 9.22819H28.3191V14.6038H27.792V9.22819ZM28.7656 9.22819H29.2928V14.6038H28.7656V9.22819ZM29.7392 9.22819H30.2667V14.6038H29.7392V9.22819ZM30.7125 9.22819H31.2203V14.6038H30.7125V9.22819Z" fill="#23A3C2"/>
<path fill-rule="evenodd" clip-rule="evenodd" d="M25.3299 16.1338H31.7556V22.585H25.3296V16.1338H25.3299ZM25.8655 16.6715H26.3723V22.0475H25.8655V16.6715ZM26.8187 16.6715H27.3459V22.0475H26.8191V16.6715H26.8187ZM27.792 16.6715H28.3192V22.0475H27.792V16.6715ZM28.7657 16.6715H29.2928V22.0475H28.7657V16.6715ZM29.7393 16.6715H30.2668V22.0475H29.7393V16.6715ZM30.7126 16.6715H31.2203V22.0475H30.7126V16.6715Z" fill="#34BBDE"/>
<path fill-rule="evenodd" clip-rule="evenodd" d="M32.7439 16.1338H39.1692V22.585H32.7439V16.1338ZM33.2792 16.6715H33.7859V22.0475H33.2792V16.6715ZM34.2324 16.6715H34.7595V22.0475H34.2324V16.6715ZM35.206 16.6715H35.7332V22.0475H35.206V16.6715ZM36.1796 16.6715H36.7068V22.0475H36.1796V16.6715ZM37.1529 16.6715H37.6808V22.0475H37.1529V16.6715ZM38.1266 16.6715H38.6336V22.0475H38.1266V16.6715Z" fill="#23A3C2"/>
<path fill-rule="evenodd" clip-rule="evenodd" d="M32.7439 8.69043H39.1692V15.1413H32.7439V8.69043ZM33.2792 9.22819H33.7859V14.6038H33.2792V9.22819ZM34.2324 9.22819H34.7595V14.6038H34.2324V9.22819ZM35.206 9.22819H35.7332V14.6038H35.206V9.22819ZM36.1796 9.22819H36.7068V14.6038H36.1796V9.22819ZM37.1529 9.22819H37.6807V14.6038H37.1529V9.22819ZM38.1265 9.22819H38.6336V14.6038H38.1265V9.22819ZM40.1574 16.1338H46.5828V22.585H40.1574V16.1338ZM40.6931 16.6715H41.1998V22.0475H40.6931V16.6715ZM41.6463 16.6715H42.1734V22.0475H41.6463V16.6715ZM42.6196 16.6715H43.1467V22.0475H42.6196V16.6715ZM43.5932 16.6715H44.1207V22.0475H43.5932V16.6715ZM44.5668 16.6715H45.0943V22.0475H44.5668V16.6715ZM45.5404 16.6715H46.0475V22.0475H45.5404V16.6715Z" fill="#34BBDE"/>
<path fill-rule="evenodd" clip-rule="evenodd" d="M40.1573 8.69043H46.5827V15.1413H40.1573V8.69043ZM40.693 9.22819H41.1997V14.6038H40.693V9.22819ZM41.6462 9.22819H42.1733V14.6038H41.6462V9.22819ZM42.6195 9.22819H43.1466V14.6038H42.6195V9.22819ZM43.5931 9.22819H44.1206V14.6038H43.5931V9.22819ZM44.5667 9.22819H45.0942V14.6038H44.5667V9.22819ZM45.5404 9.22819H46.0474V14.6038H45.5404V9.22819Z" fill="#23A3C2"/>
<path fill-rule="evenodd" clip-rule="evenodd" d="M40.1573 1.2467H46.5827V7.69852H40.1573V1.2467ZM40.693 1.78414H41.1997V7.16044H40.693V1.78381V1.78414ZM41.6462 1.78414H42.1733V7.16044H41.6462V1.78381V1.78414ZM42.6195 1.78414H43.1466V7.16044H42.6195V1.78381V1.78414ZM43.5931 1.78414H44.1206V7.16044H43.5931V1.78381V1.78414ZM44.5667 1.78414H45.0942V7.16044H44.5667V1.78381V1.78414ZM45.5404 1.78414H46.0474V7.16044H45.5404V1.78381V1.78414Z" fill="#34BBDE"/>
<path fill-rule="evenodd" clip-rule="evenodd" d="M47.571 16.1338H53.9963V22.585H47.571V16.1338ZM48.1059 16.6715H48.6133V22.0475H48.1062V16.6715H48.1059ZM49.0591 16.6715H49.5866V22.0475H49.0594V16.6715H49.0591ZM50.0331 16.6715H50.5606V22.0475H50.0331V16.6715ZM51.0064 16.6715H51.5339V22.0475H51.0064V16.6715ZM51.9803 16.6715H52.5075V22.0475H51.9803V16.6715ZM52.9536 16.6715H53.4607V22.0475H52.9536V16.6715Z" fill="#23A3C2"/>
<path fill-rule="evenodd" clip-rule="evenodd" d="M31.3532 33.0442C31.588 33.0411 31.8211 33.0848 32.0389 33.1729C32.2568 33.2609 32.455 33.3915 32.6221 33.5572C32.7893 33.7228 32.922 33.9201 33.0125 34.1376C33.1031 34.3551 33.1497 34.5886 33.1497 34.8243C33.1496 35.0601 33.1029 35.2935 33.0123 35.511C32.9216 35.7285 32.7889 35.9258 32.6217 36.0913C32.4545 36.2569 32.2562 36.3875 32.0383 36.4754C31.8204 36.5634 31.5873 36.607 31.3525 36.6038C30.8865 36.5974 30.4418 36.407 30.1146 36.0739C29.7873 35.7407 29.6039 35.2916 29.604 34.8237C29.6041 34.3558 29.7877 33.9067 30.115 33.5737C30.4424 33.2407 30.8872 33.0505 31.3532 33.0442Z" fill="#D3ECEC"/>
<path fill-rule="evenodd" clip-rule="evenodd" d="M31.3533 33.5491C31.5154 33.5491 31.67 33.5797 31.8127 33.6354C31.7142 33.6928 31.6373 33.7811 31.5939 33.8867C31.5505 33.9924 31.5429 34.1094 31.5723 34.2198C31.6018 34.3302 31.6666 34.4278 31.7568 34.4975C31.847 34.5672 31.9576 34.6051 32.0714 34.6054C32.2675 34.6054 32.4378 34.4964 32.5259 34.3349C32.6304 34.5875 32.6511 34.867 32.5851 35.1323C32.5191 35.3976 32.3699 35.6345 32.1595 35.8081C31.9491 35.9817 31.6887 36.0828 31.4167 36.0964C31.1447 36.11 30.8755 36.0353 30.649 35.8836C30.4225 35.7318 30.2506 35.5109 30.1587 35.2534C30.0668 34.996 30.0599 34.7158 30.1388 34.4541C30.2178 34.1924 30.3784 33.9632 30.5971 33.8002C30.8158 33.6372 31.0809 33.5492 31.3533 33.5491ZM0 29.3561H82.4576C80.6624 28.8991 76.7773 28.2812 77.4179 25.9186C74.153 29.7116 66.28 28.5797 64.2929 26.7096C62.0804 29.9316 49.1992 28.7067 48.3008 26.1966C45.5268 29.4651 36.9314 29.4651 34.1574 26.1966C33.2584 28.7067 20.3775 29.9316 18.1647 26.7093C16.1779 28.5797 8.30519 29.7116 5.0403 25.9189C5.68096 28.2812 1.79585 28.8991 0 29.3564" fill="#364548"/>
<path fill-rule="evenodd" clip-rule="evenodd" d="M36.0651 45.8691C31.6752 43.7776 29.2659 40.9342 27.9253 37.8307C26.2944 38.2978 24.3345 38.5966 22.0569 38.7249C21.199 38.7731 20.2964 38.7978 19.3497 38.7978C18.2577 38.7978 17.1071 38.7653 15.899 38.7011C19.9248 42.7409 24.8773 45.8509 34.0475 45.9075C34.7245 45.9075 35.3962 45.8945 36.0651 45.8691Z" fill="#BDD9D7"/>
<path fill-rule="evenodd" clip-rule="evenodd" d="M29.5558 40.6946C28.9486 39.8668 28.3595 38.8265 27.9263 37.8301C26.2955 38.2978 24.3349 38.5967 22.057 38.7253C23.6216 39.5778 25.8591 40.3678 29.5561 40.6946" fill="#D3ECEC"/>
</svg>
