<svg width="83" height="83" viewBox="0 0 83 83" fill="none" xmlns="http://www.w3.org/2000/svg">
<rect width="83" height="83" rx="15" fill="#4072AF"/>
<path d="M5.49365 42.3628C5.49365 40.6707 5.71826 39.0461 6.16748 37.4888C6.62419 35.9315 7.30176 34.5164 8.2002 33.2437C9.09863 31.9709 10.0308 31.0724 10.9966 30.5483L11.4233 31.9185C10.3302 32.757 9.4318 34.0373 8.72803 35.7593C8.03174 37.4813 7.6499 39.4092 7.58252 41.543L7.57129 42.4976C7.57129 45.3875 8.09912 47.8957 9.15479 50.022C9.79118 51.2948 10.5474 52.2905 11.4233 53.0093L10.9966 54.2783C10.0008 53.7243 9.04997 52.7959 8.14404 51.4932C6.37712 48.9476 5.49365 45.9041 5.49365 42.3628ZM13.7243 40.674C13.7243 39.4013 13.9543 38.2207 14.4143 37.132C14.8897 36.028 15.5413 35.062 16.3693 34.234C17.2127 33.3907 18.1863 32.739 19.2903 32.279C20.3943 31.8037 21.575 31.566 22.8323 31.566C24.105 31.566 25.2857 31.8037 26.3743 32.279C27.4783 32.739 28.4443 33.3907 29.2723 34.234C30.1157 35.062 30.7673 36.028 31.2273 37.132C31.7027 38.2207 31.9403 39.4013 31.9403 40.674H30.9743C30.9743 39.5393 30.7597 38.4813 30.3303 37.5C29.9163 36.5187 29.3337 35.66 28.5823 34.924C27.8463 34.1727 26.9877 33.59 26.0063 33.176C25.025 32.7467 23.967 32.532 22.8323 32.532C21.6977 32.532 20.6397 32.7467 19.6583 33.176C18.677 33.59 17.8107 34.1727 17.0593 34.924C16.3233 35.66 15.7407 36.5187 15.3113 37.5C14.8973 38.4813 14.6903 39.5393 14.6903 40.674H13.7243ZM35.2651 49.69C35.8478 50.9167 36.6298 51.829 37.6111 52.427C38.6078 53.025 39.6734 53.324 40.8081 53.324C41.9121 53.324 42.9548 53.025 43.9361 52.427C44.9328 51.829 45.7224 50.9167 46.3051 49.69L47.2711 50.196C45.8144 53.0787 43.6601 54.52 40.8081 54.52C37.9868 54.52 35.8248 53.0787 34.3221 50.196L35.2651 49.69ZM58.7797 49.782C57.5224 49.782 56.3417 49.5443 55.2377 49.069C54.1337 48.609 53.16 47.965 52.3167 47.137C51.4887 46.2937 50.837 45.32 50.3617 44.216C49.9017 43.112 49.6717 41.9313 49.6717 40.674C49.6717 39.4013 49.9017 38.2207 50.3617 37.132C50.837 36.028 51.4887 35.062 52.3167 34.234C53.16 33.3907 54.1337 32.739 55.2377 32.279C56.3417 31.8037 57.5224 31.566 58.7797 31.566C60.0524 31.566 61.233 31.8037 62.3217 32.279C63.4257 32.739 64.3917 33.3907 65.2197 34.234C66.063 35.062 66.7147 36.028 67.1747 37.132C67.65 38.2207 67.8877 39.4013 67.8877 40.674C67.8877 41.9313 67.65 43.112 67.1747 44.216C66.7147 45.32 66.063 46.2937 65.2197 47.137C64.3917 47.965 63.4257 48.609 62.3217 49.069C61.233 49.5443 60.0524 49.782 58.7797 49.782ZM50.6377 40.674H58.7797V32.532C57.645 32.532 56.587 32.7467 55.6057 33.176C54.6244 33.59 53.758 34.1727 53.0067 34.924C52.2707 35.66 51.688 36.5187 51.2587 37.5C50.8447 38.4813 50.6377 39.5393 50.6377 40.674ZM76.1081 42.4751C76.1081 44.1447 75.8873 45.7469 75.4455 47.2817C75.0113 48.8091 74.3412 50.2204 73.4353 51.5156C72.5369 52.8109 71.5935 53.7318 70.6052 54.2783L70.1672 53.0093C71.3202 52.1258 72.2449 50.7557 72.9412 48.8989C73.6449 47.0347 74.0043 44.9683 74.0193 42.6997V42.3403C74.0193 40.7681 73.8546 39.3081 73.5251 37.9604C73.1957 36.6053 72.7353 35.3924 72.1438 34.3218C71.5598 33.2511 70.901 32.4163 70.1672 31.8174L70.6052 30.5483C71.5935 31.0949 72.5331 32.0083 73.4241 33.2886C74.3225 34.5688 74.9926 35.9801 75.4343 37.5225C75.8835 39.0648 76.1081 40.7157 76.1081 42.4751Z" fill="#F9F7F7"/>
</svg>
