<svg width="720" height="439" viewBox="0 0 720 439" fill="none" xmlns="http://www.w3.org/2000/svg">
<path d="M72.3493 307.814L64.9755 314.562L74.6227 315.063C76.8748 324.039 77.3423 333.787 75.9439 344.154L73.842 359.769L60.0425 350.967C31.0623 332.479 20.4971 302.299 30.4446 266.587C51.4334 275.929 65.6618 290.123 72.3493 307.814Z" fill="white"/>
<path d="M60.8918 351.178L74.9073 359.998L74.7678 361.003L60.5693 352.064C30.8736 333.374 20.2052 302.775 30.7778 266.587C30.7981 266.592 30.8173 266.601 30.8344 266.613C20.7107 302.403 31.4445 332.645 60.8918 351.178Z" fill="#48A54E"/>
<path d="M73.5545 307.796L66.1591 314.558L75.8346 315.063C78.0932 324.039 78.5621 333.809 77.1596 344.154L75.0516 359.769L61.2159 350.967C32.1464 332.475 27.9519 303.515 31.5312 266.587C52.5772 275.912 66.8474 290.102 73.5545 307.796Z" fill="#48A54E"/>
<path opacity="0.5" d="M76.1092 317.189C77.5934 325.463 77.7399 333.924 76.543 342.244L74.4132 357.918L60.4633 349.084C48.1617 341.295 43.9498 341.816 38.3672 330.356C51.6014 348.252 55.9694 325.263 76.1092 317.189Z" fill="#308732"/>
<path d="M75.9834 320.892C77.0001 328.331 76.984 335.878 75.9357 343.312L73.8055 359.152L59.8526 350.224C57.6601 348.821 55.5733 347.347 53.592 345.802C58.8473 343.511 63.5628 340.104 67.424 335.809C71.2852 331.513 74.2032 326.428 75.9834 320.892Z" fill="#308732"/>
<path d="M71.4273 352.907C71.3395 352.95 71.2442 352.975 71.147 352.98C71.0498 352.985 70.9526 352.97 70.8611 352.936C70.7696 352.902 70.6857 352.849 70.6143 352.781C70.5428 352.713 70.4853 352.631 70.445 352.54L40.2549 286.167C40.1783 285.984 40.1739 285.778 40.2427 285.593C40.3115 285.407 40.448 285.256 40.6234 285.172C40.7988 285.088 40.9992 285.077 41.182 285.142C41.3649 285.207 41.5159 285.343 41.6029 285.521L71.793 351.894C71.8343 351.985 71.8576 352.084 71.8616 352.184C71.8655 352.285 71.85 352.385 71.816 352.479C71.782 352.573 71.7302 352.66 71.6634 352.733C71.5967 352.807 71.5165 352.866 71.4273 352.907Z" fill="#91DD4E"/>
<path d="M70.3954 353.598C70.2319 353.598 70.0718 353.551 69.9338 353.463C69.7959 353.374 69.6857 353.247 69.6162 353.098L39.051 286.943C38.959 286.735 38.9514 286.498 39.03 286.285C39.1085 286.071 39.2669 285.897 39.4711 285.8C39.6752 285.703 39.9089 285.691 40.1218 285.766C40.3346 285.842 40.5097 285.999 40.6094 286.203L71.1746 352.358C71.2221 352.462 71.2486 352.575 71.2526 352.69C71.2566 352.805 71.2381 352.92 71.1981 353.027C71.1581 353.135 71.0974 353.234 71.0194 353.317C70.9415 353.401 70.8479 353.469 70.7441 353.516C70.6345 353.566 70.5159 353.595 70.3954 353.598Z" fill="#181828"/>
<path d="M32.1794 305.464C31.8821 305.464 31.5938 305.361 31.3623 305.174C31.1308 304.986 30.9699 304.724 30.9065 304.431C30.7414 303.652 26.8403 285.176 31.5451 268.165C31.6379 267.83 31.8591 267.545 32.1602 267.374C32.4612 267.203 32.8174 267.159 33.1504 267.253C33.4834 267.346 33.7658 267.569 33.9357 267.872C34.1056 268.176 34.1489 268.534 34.0561 268.87C29.5207 285.254 33.4175 303.687 33.4566 303.88C33.5303 304.22 33.4669 304.575 33.2803 304.868C33.0937 305.161 32.7993 305.368 32.4618 305.442C32.3688 305.46 32.2741 305.467 32.1794 305.464Z" fill="#91DD4E"/>
<path d="M74.5357 361.621C74.2114 361.622 73.8935 361.529 73.6186 361.354L59.7716 352.532C44.9602 343.097 34.7988 330.744 29.5589 315.825C24.3189 300.907 24.2586 284.175 29.3393 266.01C29.4061 265.769 29.5228 265.546 29.6816 265.356C29.8404 265.165 30.0376 265.011 30.26 264.904C30.4823 264.798 30.7246 264.74 30.9706 264.737C31.2165 264.733 31.4604 264.782 31.6859 264.882C52.8869 274.295 67.7414 288.916 74.6477 307.165C74.7718 307.494 74.7946 307.854 74.7132 308.198C74.6317 308.541 74.4497 308.851 74.1913 309.087L69.8856 313.02L75.4184 313.308C75.785 313.327 76.1361 313.465 76.4204 313.701C76.7047 313.937 76.9072 314.258 76.9985 314.619C79.3279 323.883 79.7843 333.921 78.3635 344.448L76.2494 360.1C76.2106 360.389 76.1013 360.664 75.9314 360.899C75.7614 361.134 75.5362 361.322 75.2763 361.446C75.0453 361.56 74.7923 361.619 74.5357 361.621ZM32.1251 268.903C23.2253 303.166 33.6493 331.762 61.6058 349.573L73.1924 356.954L74.9447 343.984C76.2364 334.371 75.9049 325.221 73.9544 316.743L65.5498 316.306C65.2061 316.292 64.8743 316.174 64.5974 315.966C64.3205 315.759 64.1111 315.473 63.9962 315.143C63.8813 314.814 63.8662 314.458 63.9528 314.12C64.0394 313.782 64.2237 313.478 64.482 313.247L70.9964 307.278C64.4519 290.97 51.0656 277.747 32.1251 268.903Z" fill="#181828"/>
<path d="M36.5217 280.509C36.934 280.313 36.956 279.478 36.5707 278.642C36.1855 277.807 35.539 277.287 35.1267 277.483C34.7143 277.678 34.6924 278.513 35.0776 279.349C35.4629 280.185 36.1094 280.704 36.5217 280.509Z" fill="#91DD4E"/>
<path d="M38.2613 295.17C39.28 297.501 39.2007 299.85 38.0818 300.408C36.9629 300.966 35.2344 299.515 34.2115 297.193C33.1887 294.871 33.2722 292.513 34.3911 291.95C34.9422 291.678 35.5559 292.361 36.2448 292.924C36.9337 293.486 37.7436 293.986 38.2613 295.17Z" fill="#91DD4E"/>
<path d="M46.3576 315.692C45.7481 315.028 45.0271 315.014 44.3532 314.895C43.6794 314.777 43.0914 314.53 42.6837 314.985C42.6332 315.039 42.5873 315.098 42.5464 315.161C42.4434 315.112 42.3324 315.086 42.2202 315.086C42.1079 315.086 41.9969 315.112 41.894 315.161C41.4047 315.412 41.2631 316.238 41.585 317.002C41.6751 317.247 41.8174 317.464 41.9997 317.635C42.182 317.806 42.399 317.925 42.6322 317.984C42.8296 318.371 43.0752 318.726 43.3618 319.037C44.5636 320.351 46.2074 320.669 47.0357 319.749C47.864 318.828 47.5593 317.006 46.3576 315.692Z" fill="#91DD4E"/>
<path d="M41.5165 314.378C41.9374 314.178 42.0359 313.49 41.7363 312.84C41.4368 312.191 40.8528 311.826 40.4319 312.025C40.0109 312.224 39.9125 312.912 40.212 313.562C40.5115 314.212 41.0955 314.577 41.5165 314.378Z" fill="#91DD4E"/>
<path d="M36.3226 291.709C36.7436 291.51 36.8421 290.822 36.5425 290.172C36.243 289.522 35.659 289.157 35.238 289.356C34.8171 289.556 34.7186 290.244 35.0181 290.894C35.3177 291.543 35.9017 291.908 36.3226 291.709Z" fill="#91DD4E"/>
<path d="M51.6115 333.248C53.0147 332.584 53.8815 331.458 53.5477 330.734C53.2139 330.01 51.8059 329.962 50.4027 330.626C48.9995 331.29 48.1327 332.416 48.4665 333.14C48.8003 333.864 50.2083 333.912 51.6115 333.248Z" fill="#308732"/>
<path d="M52.6786 329.531C53.1831 329.531 53.5921 329.117 53.5921 328.606C53.5921 328.095 53.1831 327.68 52.6786 327.68C52.1741 327.68 51.7651 328.095 51.7651 328.606C51.7651 329.117 52.1741 329.531 52.6786 329.531Z" fill="#308732"/>
<path d="M91.5256 307.814L98.9893 314.562L89.2245 315.063C86.945 324.039 86.4717 333.787 87.8871 344.154L90.0146 359.769L103.982 350.967C133.316 332.479 144.01 302.299 133.941 266.587C112.697 275.929 98.2946 290.123 91.5256 307.814Z" fill="white"/>
<path d="M103.378 351.178L89.5232 359.998L89.6609 361.003L103.68 352.064C132.999 333.374 143.533 302.775 133.094 266.587L133.038 266.613C143.047 302.403 132.449 332.645 103.378 351.178Z" fill="#48A54E"/>
<path d="M90.2668 307.796L97.6618 314.558L87.9867 315.063C85.7282 324.039 85.2593 333.809 86.6618 344.154L88.7697 359.769L102.609 350.967C131.673 332.475 135.867 303.515 132.292 266.587C111.243 275.912 96.9735 290.102 90.2668 307.796Z" fill="#48A54E"/>
<path opacity="0.5" d="M88.3037 317.189C86.8403 325.463 86.6961 333.924 87.8767 342.244L89.9731 357.918L103.704 349.084C115.813 341.295 119.959 341.816 125.454 330.356C112.427 348.252 108.128 325.263 88.3037 317.189Z" fill="#308732"/>
<path d="M87.8378 320.892C86.8212 328.331 86.8373 335.878 87.8856 343.312L90.0158 359.152L103.969 350.224C106.158 348.821 108.245 347.347 110.229 345.802C104.974 343.511 100.258 340.104 96.3972 335.809C92.536 331.513 89.618 326.428 87.8378 320.892Z" fill="#308732"/>
<path d="M92.3953 352.908C92.4851 352.951 92.5825 352.976 92.6817 352.98C92.781 352.985 92.8801 352.97 92.9735 352.936C93.067 352.902 93.1528 352.849 93.226 352.782C93.2993 352.714 93.3586 352.633 93.4005 352.542L124.165 286.185C124.25 286.002 124.259 285.792 124.191 285.602C124.123 285.413 123.983 285.258 123.801 285.172C123.619 285.086 123.411 285.077 123.223 285.146C123.034 285.214 122.881 285.356 122.796 285.539L92.0313 351.896C91.9889 351.986 91.9647 352.084 91.96 352.184C91.9554 352.284 91.9704 352.384 92.0043 352.478C92.0381 352.572 92.09 352.659 92.1571 352.733C92.2242 352.807 92.3052 352.866 92.3953 352.908Z" fill="#91DD4E"/>
<path d="M93.4431 353.598C93.3171 353.598 93.1925 353.571 93.0772 353.52C92.9734 353.473 92.8798 353.406 92.8019 353.322C92.724 353.238 92.6632 353.139 92.6232 353.032C92.5832 352.924 92.5646 352.81 92.5687 352.695C92.5727 352.58 92.5992 352.467 92.6467 352.362L123.212 286.203C123.312 285.999 123.487 285.842 123.7 285.766C123.912 285.691 124.146 285.703 124.35 285.8C124.554 285.897 124.713 286.071 124.791 286.285C124.87 286.498 124.862 286.735 124.77 286.943L94.2051 353.102C94.1363 353.248 94.0285 353.372 93.8939 353.46C93.7593 353.547 93.6032 353.595 93.4431 353.598Z" fill="#181828"/>
<path d="M131.642 305.465C131.548 305.465 131.455 305.455 131.364 305.434C131.196 305.398 131.037 305.329 130.897 305.23C130.756 305.132 130.635 305.007 130.543 304.862C130.45 304.717 130.386 304.555 130.356 304.385C130.325 304.215 130.328 304.041 130.365 303.872C130.408 303.688 134.275 285.238 129.765 268.869C129.672 268.534 129.716 268.175 129.886 267.872C130.055 267.569 130.338 267.346 130.671 267.253C131.004 267.159 131.36 267.203 131.661 267.374C131.962 267.545 132.183 267.83 132.276 268.165C136.981 285.163 133.08 303.645 132.915 304.423C132.853 304.718 132.693 304.981 132.461 305.171C132.23 305.361 131.94 305.464 131.642 305.465Z" fill="#91DD4E"/>
<path d="M89.8855 361.621C89.6342 361.621 89.3858 361.566 89.1578 361.459C88.897 361.335 88.6709 361.147 88.5002 360.912C88.3294 360.677 88.2195 360.402 88.1803 360.113L86.066 344.475C84.645 333.946 85.1057 323.906 87.4311 314.64C87.5224 314.279 87.7249 313.957 88.0092 313.721C88.2935 313.486 88.6447 313.348 89.0114 313.329L94.5447 313.041L90.2386 309.107C89.9801 308.871 89.7982 308.56 89.7167 308.217C89.6352 307.874 89.658 307.514 89.7822 307.184C96.672 288.932 111.545 274.307 132.749 264.893C132.973 264.79 133.216 264.736 133.461 264.736C133.707 264.736 133.95 264.79 134.174 264.893C134.397 265 134.594 265.154 134.753 265.344C134.912 265.535 135.029 265.758 135.096 265.999C140.177 284.176 140.104 300.964 134.876 315.825C129.648 330.685 119.473 343.107 104.66 352.539L90.8114 361.363C90.5331 361.536 90.212 361.626 89.8855 361.621ZM90.4668 316.734C88.5162 325.213 88.1846 334.374 89.4807 343.981L91.229 356.953L102.821 349.571C130.781 331.756 141.202 303.154 132.301 268.883C113.354 277.73 99.9619 290.955 93.4252 307.28L99.9489 313.25C100.207 313.481 100.392 313.785 100.478 314.123C100.565 314.461 100.55 314.818 100.435 315.147C100.32 315.476 100.111 315.763 99.8336 315.97C99.5566 316.177 99.2249 316.296 98.881 316.31L90.4668 316.734Z" fill="#181828"/>
<path d="M128.88 279.447C129.265 278.612 129.243 277.776 128.831 277.581C128.418 277.386 127.772 277.905 127.386 278.74C127.001 279.576 127.023 280.412 127.436 280.607C127.848 280.802 128.494 280.283 128.88 279.447Z" fill="#91DD4E"/>
<path d="M125.56 295.17C124.541 297.501 124.621 299.85 125.74 300.408C126.859 300.966 128.592 299.515 129.611 297.193C130.63 294.871 130.551 292.513 129.432 291.95C128.88 291.678 128.271 292.361 127.577 292.924C126.884 293.486 126.078 293.986 125.56 295.17Z" fill="#91DD4E"/>
<path d="M117.464 315.692C118.073 315.028 118.794 315.014 119.468 314.895C120.141 314.777 120.729 314.53 121.137 314.985C121.188 315.04 121.235 315.099 121.279 315.161C121.381 315.112 121.491 315.086 121.602 315.086C121.714 315.086 121.824 315.112 121.926 315.161C122.42 315.412 122.557 316.238 122.235 317.002C122.145 317.247 122.003 317.464 121.821 317.635C121.638 317.806 121.422 317.925 121.188 317.984C120.991 318.371 120.745 318.726 120.459 319.037C119.257 320.351 117.614 320.669 116.786 319.749C115.957 318.828 116.262 317.006 117.464 315.692Z" fill="#91DD4E"/>
<path d="M123.747 313.661C124.046 313.011 123.948 312.323 123.527 312.124C123.106 311.925 122.522 312.29 122.223 312.939C121.923 313.589 122.021 314.277 122.442 314.477C122.863 314.676 123.447 314.311 123.747 313.661Z" fill="#91DD4E"/>
<path d="M128.935 290.991C129.235 290.341 129.136 289.653 128.715 289.453C128.295 289.254 127.71 289.619 127.411 290.269C127.111 290.919 127.21 291.607 127.631 291.806C128.052 292.005 128.636 291.64 128.935 290.991Z" fill="#91DD4E"/>
<path d="M115.496 333.243C115.83 332.519 114.963 331.393 113.559 330.729C112.156 330.065 110.748 330.113 110.414 330.837C110.081 331.561 110.948 332.687 112.351 333.351C113.754 334.015 115.162 333.967 115.496 333.243Z" fill="#308732"/>
<path d="M111.143 329.531C111.647 329.531 112.056 329.117 112.056 328.606C112.056 328.095 111.647 327.68 111.143 327.68C110.638 327.68 110.229 328.095 110.229 328.606C110.229 329.117 110.638 329.531 111.143 329.531Z" fill="#308732"/>
<path d="M105.788 306.139L94.8692 309.54L104.678 314.834C102.725 325.294 98.5474 335.676 92.1288 345.782L82.4621 361.003L72.305 345.017C50.9669 311.433 54.4085 274.784 81.8856 242.52C99.2658 262.597 107.293 284.392 105.788 306.139Z" fill="white"/>
<path d="M73.1849 345.862L83.4332 361.874L82.8038 362.855L72.4253 346.628C50.7221 312.704 54.429 275.653 82.8038 243.138L82.8515 243.195C55.1278 275.526 51.6553 312.222 73.1849 345.862Z" fill="#48A54E"/>
<path d="M107.615 306.757L96.6965 310.158L106.505 315.452C104.552 325.912 100.375 336.294 93.9562 346.4L84.2898 361.621L74.133 345.635C52.7955 312.051 62.3027 279.826 83.7134 243.138C101.093 263.215 109.12 285.032 107.615 306.757Z" fill="#48A54E"/>
<path opacity="0.5" d="M105.357 317.665C103.104 326.529 99.2287 335.315 93.7221 343.917L83.9485 359.152L73.6617 343.134C64.6059 329.023 59.9692 327.505 59.6821 312.87C64.8538 337.932 80.4862 316.195 105.357 317.665Z" fill="#308732"/>
<path d="M103.53 321.509C101.031 329.783 97.4012 337.658 92.7469 344.901L82.9411 360.386L72.6377 344.123C71.0172 341.57 69.5407 339 68.2083 336.411C74.7972 336.63 81.356 335.413 87.447 332.844C93.5381 330.274 99.0212 326.41 103.53 321.509Z" fill="#308732"/>
<path d="M83.7377 352.364C83.4954 352.364 83.2631 352.273 83.0918 352.11C82.9205 351.948 82.8242 351.727 82.8242 351.497V268.072C82.8242 267.842 82.9205 267.621 83.0918 267.459C83.2631 267.296 83.4954 267.205 83.7377 267.205C83.98 267.205 84.2123 267.296 84.3837 267.459C84.555 267.621 84.6512 267.842 84.6512 268.072V351.497C84.6512 351.727 84.555 351.948 84.3837 352.11C84.2123 352.273 83.98 352.364 83.7377 352.364Z" fill="#91DD4E"/>
<path d="M82.5197 352.364C82.2774 352.364 82.045 352.273 81.8737 352.11C81.7024 351.948 81.6062 351.727 81.6062 351.497V268.072C81.6062 267.842 81.7024 267.621 81.8737 267.459C82.045 267.296 82.2774 267.205 82.5197 267.205C82.762 267.205 82.9943 267.296 83.1656 267.459C83.3369 267.621 83.4332 267.842 83.4332 268.072V351.497C83.4332 351.727 83.3369 351.948 83.1656 352.11C82.9943 352.273 82.762 352.364 82.5197 352.364Z" fill="#181828"/>
<path d="M65.8784 283.866C65.7806 283.867 65.683 283.856 65.5875 283.836C65.4178 283.798 65.2573 283.729 65.1151 283.63C64.9729 283.532 64.8519 283.407 64.7589 283.263C64.666 283.119 64.6029 282.958 64.5734 282.79C64.5439 282.621 64.5484 282.449 64.5868 282.283C64.7896 281.418 69.7001 260.592 82.9328 245.443C83.0456 245.314 83.1834 245.207 83.3382 245.13C83.493 245.053 83.6618 245.006 83.835 244.993C84.0081 244.979 84.1822 245 84.3473 245.053C84.5124 245.105 84.6654 245.19 84.7974 245.3C84.9293 245.411 85.0378 245.546 85.1165 245.698C85.1952 245.85 85.2427 246.016 85.2562 246.186C85.2698 246.356 85.249 246.526 85.1952 246.689C85.1414 246.851 85.0557 247.001 84.9428 247.13C72.1289 261.795 67.214 282.646 67.1655 282.858C67.0988 283.144 66.9351 283.4 66.7013 283.583C66.4676 283.766 66.1775 283.866 65.8784 283.866Z" fill="#91DD4E"/>
<path d="M83.071 362.855C82.7815 362.855 82.4965 362.783 82.2422 362.644C81.9878 362.504 81.7722 362.303 81.6152 362.058L71.4202 346.114C60.5384 329.126 55.8686 311.405 57.5966 293.441C59.3245 275.477 67.2256 258.157 81.2005 241.892C81.3612 241.703 81.56 241.552 81.7835 241.448C82.007 241.343 82.2501 241.288 82.4964 241.286C82.7418 241.286 82.9842 241.339 83.2077 241.442C83.4312 241.544 83.6305 241.693 83.7924 241.879C101.323 261.977 109.772 284.341 108.221 306.548C108.197 306.9 108.068 307.236 107.851 307.513C107.633 307.789 107.338 307.992 107.003 308.095L100.027 310.273L106.191 313.575C106.517 313.749 106.78 314.024 106.94 314.359C107.1 314.695 107.15 315.073 107.081 315.439C105.064 326.142 100.744 336.727 94.2336 346.899L84.5268 362.066C84.3687 362.31 84.1527 362.51 83.8984 362.647C83.6441 362.785 83.3596 362.856 83.071 362.855ZM82.5008 245.721C56.5339 276.975 53.6136 311.893 74.3232 344.237L83.0666 357.902L91.322 344.999C97.3353 335.608 101.405 325.868 103.418 316.036L94.7044 311.371C94.4022 311.209 94.1542 310.961 93.9919 310.658C93.8296 310.354 93.7602 310.009 93.7926 309.666C93.825 309.322 93.9576 308.996 94.1738 308.729C94.3899 308.462 94.6798 308.266 95.0068 308.165L104.826 305.115C105.915 284.816 98.2122 264.334 82.5008 245.721Z" fill="#181828"/>
<path d="M81.9106 260.416C82.4151 260.416 82.8241 259.588 82.8241 258.565C82.8241 257.543 82.4151 256.714 81.9106 256.714C81.406 256.714 80.9971 257.543 80.9971 258.565C80.9971 259.588 81.406 260.416 81.9106 260.416Z" fill="#91DD4E"/>
<path d="M76.7342 276.769C76.7342 279.659 75.5058 282.015 73.9914 282.015C72.4771 282.015 71.2532 279.667 71.2532 276.769C71.2532 273.871 72.4816 271.524 73.9914 271.524C74.7374 271.524 75.0859 272.534 75.5817 273.456C76.0776 274.378 76.7342 275.305 76.7342 276.769Z" fill="#91DD4E"/>
<path d="M75.1964 301.528C74.8373 300.539 74.0607 300.148 73.4008 299.689C72.7409 299.229 72.1933 298.663 71.5424 298.911C71.4618 298.94 71.3838 298.975 71.3089 299.017C71.2213 298.914 71.114 298.831 70.9935 298.772C70.873 298.714 70.742 298.681 70.6087 298.677C69.9533 298.677 69.4281 299.436 69.4281 300.369C69.4152 300.662 69.4708 300.954 69.5902 301.22C69.7097 301.487 69.8896 301.72 70.1149 301.901C70.1494 302.394 70.2521 302.881 70.4201 303.345C71.1204 305.295 72.7634 306.467 74.0876 305.966C75.4119 305.465 75.8967 303.478 75.1964 301.528Z" fill="#91DD4E"/>
<path d="M70.9486 298.059C71.4531 298.059 71.8622 297.368 71.8622 296.516C71.8622 295.664 71.4531 294.974 70.9486 294.974C70.4441 294.974 70.0352 295.664 70.0352 296.516C70.0352 297.368 70.4441 298.059 70.9486 298.059Z" fill="#91DD4E"/>
<path d="M76.4296 271.524C76.9341 271.524 77.3431 270.972 77.3431 270.29C77.3431 269.608 76.9341 269.056 76.4296 269.056C75.9251 269.056 75.5161 269.608 75.5161 270.29C75.5161 270.972 75.9251 271.524 76.4296 271.524Z" fill="#91DD4E"/>
<path d="M72.4713 322.743C74.153 322.743 75.5163 321.914 75.5163 320.892C75.5163 319.869 74.153 319.041 72.4713 319.041C70.7896 319.041 69.4263 319.869 69.4263 320.892C69.4263 321.914 70.7896 322.743 72.4713 322.743Z" fill="#308732"/>
<path d="M75.8208 319.041C76.3253 319.041 76.7342 318.626 76.7342 318.115C76.7342 317.604 76.3253 317.189 75.8208 317.189C75.3162 317.189 74.9072 317.604 74.9072 318.115C74.9072 318.626 75.3162 319.041 75.8208 319.041Z" fill="#308732"/>
<path d="M37.1492 360.386H123.627V382.445C123.627 393.943 119.072 404.97 110.963 413.101C102.854 421.231 91.856 425.799 80.3883 425.799C68.9206 425.799 57.9226 421.231 49.8136 413.101C41.7047 404.97 37.1492 393.943 37.1492 382.445V360.386Z" fill="#DBDBDD"/>
<path d="M107.963 361.003V383.181C107.959 385.328 107.802 387.471 107.492 389.595L107.458 389.556C107.458 389.556 105.086 407.129 87.4652 413.44C77.5444 416.992 66.6012 415.447 57.6466 409.857C51.3786 405.956 46.2035 400.495 42.6151 393.996C39.0268 387.496 37.1449 380.174 37.1492 372.729V383.438C37.1492 395 41.6892 406.089 49.7703 414.264C57.8515 422.44 68.8118 427.033 80.2403 427.033C91.8454 427.005 102.986 422.415 111.308 414.233C119.631 406.05 124.485 394.916 124.845 383.181V361.003H107.963Z" fill="#BCBCC9"/>
<path opacity="0.5" d="M108.402 361.003V383.163C108.401 385.31 108.246 387.454 107.936 389.577L107.902 389.533C107.902 389.533 105.551 407.097 88.0878 413.402C82.6866 415.334 76.8869 415.808 71.2532 414.776C72.9857 414.461 74.69 414.001 76.3489 413.402C93.812 407.097 96.1632 389.533 96.1632 389.533L96.1973 389.577C96.5065 387.454 96.6623 385.31 96.6633 383.163V361.003H108.402Z" fill="#BCBCC9"/>
<path d="M63.7541 394.857C69.6019 391.436 71.9725 384.503 69.049 379.372C66.1255 374.241 59.015 372.855 53.1672 376.276C47.3194 379.697 44.9488 386.63 47.8723 391.761C50.7958 396.892 57.9064 398.278 63.7541 394.857Z" fill="#E6E6EF"/>
<path d="M80.0836 430.119C68.2149 430.107 56.8356 425.294 48.4435 416.736C40.0514 408.178 35.3323 396.574 35.322 384.472V360.386H124.845V384.472C124.835 396.574 120.116 408.178 111.724 416.736C103.332 425.294 91.9524 430.107 80.0836 430.119ZM38.7685 363.901V384.472C38.7685 395.645 43.1214 406.36 50.8695 414.261C58.6175 422.161 69.1262 426.6 80.0836 426.6C91.0411 426.6 101.55 422.161 109.298 414.261C117.046 406.36 121.399 395.645 121.399 384.472V363.901H38.7685Z" fill="#181828"/>
<path d="M126.643 353.599H36.569C32.1806 353.599 28.623 357.189 28.623 361.619V361.623C28.623 366.053 32.1806 369.643 36.569 369.643H126.643C131.032 369.643 134.589 366.053 134.589 361.623V361.619C134.589 357.189 131.032 353.599 126.643 353.599Z" fill="#DBDBDD"/>
<path opacity="0.5" d="M123.627 361.619C123.628 362.672 123.424 363.716 123.028 364.689C122.631 365.663 122.05 366.547 121.317 367.293C120.584 368.038 119.713 368.629 118.756 369.032C117.798 369.436 116.771 369.643 115.734 369.643H93.1772C95.2394 369.594 97.201 368.728 98.6425 367.229C100.084 365.729 100.891 363.717 100.891 361.621C100.891 359.525 100.084 357.512 98.6425 356.013C97.201 354.514 95.2394 353.647 93.1772 353.599H115.734C117.827 353.599 119.835 354.444 121.315 355.948C122.796 357.452 123.627 359.492 123.627 361.619Z" fill="#BCBCC9"/>
<path d="M65.4655 357.918H31.3657C30.9613 357.918 30.5736 357.755 30.2876 357.466C30.0017 357.177 29.8411 356.784 29.8411 356.375C29.8411 355.966 30.0017 355.574 30.2876 355.284C30.5736 354.995 30.9613 354.833 31.3657 354.833H65.4655C65.8699 354.833 66.2577 354.995 66.5436 355.284C66.8295 355.574 66.9902 355.966 66.9902 356.375C66.9902 356.784 66.8295 357.177 66.5436 357.466C66.2577 357.755 65.8699 357.918 65.4655 357.918Z" fill="white"/>
<path d="M44.4572 358.535C44.7935 358.535 45.0661 358.259 45.0661 357.918C45.0661 357.577 44.7935 357.301 44.4572 357.301C44.1208 357.301 43.8481 357.577 43.8481 357.918C43.8481 358.259 44.1208 358.535 44.4572 358.535Z" fill="white"/>
<path d="M47.1977 360.386C47.7022 360.386 48.1112 359.972 48.1112 359.461C48.1112 358.95 47.7022 358.535 47.1977 358.535C46.6932 358.535 46.2842 358.95 46.2842 359.461C46.2842 359.972 46.6932 360.386 47.1977 360.386Z" fill="white"/>
<path d="M134.589 361.619C134.59 362.672 134.386 363.716 133.99 364.689C133.593 365.663 133.012 366.547 132.279 367.293C131.546 368.038 130.675 368.629 129.717 369.032C128.759 369.436 127.733 369.643 126.696 369.643H104.139C106.201 369.594 108.163 368.728 109.604 367.229C111.046 365.729 111.853 363.717 111.853 361.621C111.853 359.525 111.046 357.512 109.604 356.013C108.163 354.514 106.201 353.647 104.139 353.599H126.696C128.789 353.599 130.797 354.444 132.277 355.948C133.758 357.452 134.589 359.492 134.589 361.619Z" fill="#BCBCC9"/>
<path d="M125.761 371.492H36.0317C34.7487 371.52 33.4733 371.285 32.2801 370.801C31.087 370.318 30.0001 369.595 29.0832 368.676C28.1663 367.756 27.4378 366.659 26.9405 365.447C26.4432 364.236 26.187 362.935 26.187 361.621C26.187 360.307 26.4432 359.006 26.9405 357.794C27.4378 356.583 28.1663 355.485 29.0832 354.566C30.0001 353.646 31.087 352.924 32.2801 352.44C33.4733 351.956 34.7487 351.722 36.0317 351.749H125.761C128.282 351.804 130.682 352.868 132.446 354.713C134.21 356.558 135.198 359.038 135.198 361.621C135.198 364.203 134.21 366.683 132.446 368.528C130.682 370.374 128.282 371.438 125.761 371.492ZM36.0317 355.274C35.2041 355.252 34.3806 355.399 33.6096 355.708C32.8387 356.017 32.136 356.481 31.5429 357.073C30.9499 357.664 30.4785 358.371 30.1567 359.152C29.8349 359.934 29.669 360.773 29.669 361.621C29.669 362.469 29.8349 363.308 30.1567 364.089C30.4785 364.87 30.9499 365.577 31.5429 366.169C32.136 366.76 32.8387 367.224 33.6096 367.533C34.3806 367.842 35.2041 367.99 36.0317 367.967H125.761C127.376 367.924 128.911 367.236 130.039 366.051C131.166 364.865 131.797 363.276 131.797 361.621C131.797 359.966 131.166 358.376 130.039 357.191C128.911 356.005 127.376 355.318 125.761 355.274H36.0317Z" fill="#181828"/>
<path d="M56.1675 378.899H37.0098C36.7238 378.899 36.4494 378.769 36.2471 378.538C36.0448 378.306 35.9312 377.992 35.9312 377.665C35.9312 377.338 36.0448 377.024 36.2471 376.792C36.4494 376.561 36.7238 376.431 37.0098 376.431H56.1675C56.4536 376.431 56.728 376.561 56.9303 376.792C57.1326 377.024 57.2462 377.338 57.2462 377.665C57.2462 377.992 57.1326 378.306 56.9303 378.538C56.728 378.769 56.4536 378.899 56.1675 378.899Z" fill="#181828"/>
<path d="M68.328 378.899H61.9983C61.707 378.899 61.4277 378.769 61.2218 378.538C61.0158 378.306 60.9001 377.992 60.9001 377.665C60.9001 377.338 61.0158 377.024 61.2218 376.792C61.4277 376.561 61.707 376.431 61.9983 376.431H68.328C68.6193 376.431 68.8986 376.561 69.1045 376.792C69.3104 377.024 69.4262 377.338 69.4262 377.665C69.4262 377.992 69.3104 378.306 69.1045 378.538C68.8986 378.769 68.6193 378.899 68.328 378.899Z" fill="#181828"/>
<path d="M52.374 360.386C53.7194 360.386 54.81 359.419 54.81 358.226C54.81 357.033 53.7194 356.066 52.374 356.066C51.0286 356.066 49.938 357.033 49.938 358.226C49.938 359.419 51.0286 360.386 52.374 360.386Z" fill="white"/>
<path d="M56.6372 360.386C57.3099 360.386 57.8552 359.972 57.8552 359.461C57.8552 358.95 57.3099 358.535 56.6372 358.535C55.9645 358.535 55.4192 358.95 55.4192 359.461C55.4192 359.972 55.9645 360.386 56.6372 360.386Z" fill="white"/>
<path d="M114.488 253.628C113.886 253.627 113.298 253.445 112.797 253.106C112.297 252.766 111.908 252.284 111.678 251.72C111.448 251.156 111.388 250.536 111.506 249.938C111.624 249.34 111.915 248.79 112.341 248.359C112.767 247.928 113.309 247.635 113.9 247.516C114.49 247.397 115.102 247.459 115.659 247.692C116.215 247.926 116.69 248.321 117.024 248.829C117.359 249.336 117.537 249.932 117.537 250.543C117.536 251.361 117.214 252.146 116.643 252.725C116.071 253.303 115.296 253.628 114.488 253.628ZM114.488 248.763C114.141 248.763 113.802 248.869 113.513 249.065C113.225 249.261 113 249.539 112.868 249.864C112.736 250.19 112.702 250.547 112.77 250.892C112.838 251.237 113.006 251.554 113.252 251.803C113.498 252.051 113.811 252.22 114.151 252.289C114.492 252.357 114.845 252.321 115.165 252.187C115.486 252.052 115.76 251.824 115.953 251.531C116.146 251.238 116.249 250.894 116.249 250.543C116.248 250.07 116.062 249.617 115.732 249.284C115.401 248.95 114.954 248.763 114.488 248.763Z" fill="#181828"/>
<path d="M23.1422 336.937C22.54 336.937 21.9512 336.756 21.4505 336.417C20.9497 336.078 20.5594 335.596 20.3289 335.032C20.0985 334.468 20.0382 333.848 20.1557 333.249C20.2732 332.651 20.5632 332.101 20.9891 331.669C21.4149 331.238 21.9574 330.944 22.5481 330.825C23.1388 330.706 23.751 330.767 24.3074 331C24.8638 331.234 25.3394 331.63 25.674 332.137C26.0086 332.644 26.1872 333.241 26.1872 333.851C26.186 334.669 25.8648 335.453 25.294 336.032C24.7232 336.61 23.9494 336.935 23.1422 336.937ZM23.1422 332.071C22.7948 332.071 22.4552 332.176 22.1663 332.371C21.8774 332.567 21.6523 332.845 21.5193 333.17C21.3864 333.495 21.3516 333.853 21.4194 334.198C21.4871 334.544 21.6545 334.861 21.9001 335.11C22.1458 335.359 22.4588 335.528 22.7995 335.597C23.1402 335.666 23.4934 335.63 23.8144 335.496C24.1353 335.361 24.4097 335.133 24.6027 334.84C24.7957 334.547 24.8988 334.203 24.8988 333.851C24.8988 333.379 24.7137 332.926 24.3842 332.593C24.0548 332.259 23.6081 332.071 23.1422 332.071Z" fill="#181828"/>
<path d="M145.551 342.49C144.949 342.49 144.36 342.309 143.86 341.97C143.359 341.631 142.969 341.149 142.738 340.586C142.508 340.022 142.447 339.401 142.565 338.803C142.682 338.204 142.972 337.655 143.398 337.223C143.824 336.792 144.367 336.498 144.957 336.379C145.548 336.26 146.16 336.321 146.717 336.554C147.273 336.788 147.749 337.183 148.083 337.691C148.418 338.198 148.596 338.795 148.596 339.405C148.595 340.223 148.274 341.007 147.703 341.585C147.132 342.164 146.359 342.489 145.551 342.49ZM145.551 337.625C145.204 337.625 144.864 337.729 144.575 337.925C144.287 338.12 144.061 338.398 143.928 338.724C143.796 339.049 143.761 339.407 143.829 339.752C143.896 340.097 144.064 340.415 144.309 340.663C144.555 340.912 144.868 341.082 145.209 341.151C145.549 341.219 145.903 341.184 146.224 341.049C146.545 340.915 146.819 340.686 147.012 340.394C147.205 340.101 147.308 339.757 147.308 339.405C147.309 339.17 147.265 338.938 147.177 338.72C147.089 338.503 146.96 338.306 146.797 338.139C146.634 337.973 146.44 337.84 146.226 337.75C146.012 337.659 145.783 337.612 145.551 337.612V337.625Z" fill="#181828"/>
<path opacity="0.18" d="M463.146 261.034C484.503 261.034 501.817 243.49 501.817 221.848C501.817 200.206 484.503 182.662 463.146 182.662C441.788 182.662 424.474 200.206 424.474 221.848C424.474 243.49 441.788 261.034 463.146 261.034Z" fill="#1BF1F1"/>
<path opacity="0.18" d="M108.707 53.6877C123.338 53.6877 135.198 41.6693 135.198 26.8438C135.198 12.0184 123.338 0 108.707 0C94.0758 0 82.2151 12.0184 82.2151 26.8438C82.2151 41.6693 94.0758 53.6877 108.707 53.6877Z" fill="#F107B3"/>
<path d="M437.82 280.78C436.968 281.199 436.072 281.518 435.149 281.729L434.641 281.865C416.612 286.341 340.997 290.6 326.628 290.654H326.2C314.849 290.654 265.222 287.941 236.029 284.605L233.09 284.415C229.111 283.926 225.585 283.438 222.7 282.923C221.071 282.651 219.629 282.353 218.454 282.082L217.706 281.865C215.035 281.132 213.779 280.427 214.634 279.694C214.864 279.525 215.116 279.388 215.382 279.288C217.352 278.477 219.211 277.41 220.911 276.114C222.132 275.21 223.267 274.192 224.303 273.075C224.396 273.008 224.477 272.926 224.543 272.831C225.307 272.018 226.021 271.157 226.68 270.254C226.784 270.155 226.866 270.035 226.921 269.902C230.8 264.003 233.521 257.398 234.933 250.451C236.456 244.456 237.604 238.298 239.768 232.493C241.106 228.398 243.042 224.53 245.51 221.018C246.252 219.968 247.065 218.971 247.941 218.034C248.422 217.528 248.929 217.013 249.463 216.488C253.164 213.002 257.316 210.045 261.803 207.699C263.433 206.831 265.089 206.017 266.771 205.285C275.446 201.619 284.548 199.103 293.855 197.798C296.526 197.418 298.956 197.065 301.521 196.74C309.533 195.763 317.894 195.166 326.2 195.003H326.628C337.456 195.191 348.261 196.097 358.973 197.716C370.131 199.2 380.965 202.575 391.024 207.699C392.12 208.296 393.188 208.92 394.256 209.571C395.861 210.519 397.404 211.57 398.877 212.717C400.427 213.865 401.907 215.106 403.311 216.434C408.198 221.312 411.752 227.398 413.621 234.094C415.17 238.868 416.292 243.887 417.494 248.797C418.887 256.254 421.709 263.36 425.8 269.712C426.525 270.735 427.319 271.705 428.178 272.614C429.305 273.837 430.538 274.954 431.863 275.951C432.722 276.579 433.614 277.158 434.534 277.687C435.437 278.213 436.374 278.675 437.339 279.071L437.82 279.288C438.728 279.83 438.674 280.318 437.82 280.78Z" fill="#122E4F"/>
<path d="M434.547 281.767C422.894 284.051 411.111 285.577 399.269 286.335C405.413 253.905 397.494 224.826 390.979 207.963C395.348 210.297 399.399 213.204 403.03 216.611C420.007 232.826 412.909 261.877 431.342 275.903C433.028 277.195 434.871 278.257 436.825 279.065C438.864 280.065 437.831 280.93 434.547 281.767Z" fill="#35428B"/>
<path d="M217.779 281.731C229.573 284.034 241.5 285.572 253.486 286.334C247.272 253.649 255.281 224.342 261.871 207.346C257.452 209.698 253.354 212.629 249.682 216.062C232.512 232.404 239.691 261.685 221.047 275.821C219.347 277.21 217.474 278.364 215.475 279.253C213.306 279.988 214.457 280.86 217.779 281.731Z" fill="#35428B"/>
<path d="M214.22 279.917C216.708 278.926 219.02 277.551 221.067 275.844C220.021 278.238 218.714 280.514 217.17 282.632C213.354 281.727 212.001 280.822 214.22 279.917Z" fill="#D5E4EC"/>
<path d="M434.461 282.015C433.207 280.254 432.107 278.396 431.173 276.461C432.902 277.707 434.793 278.733 436.797 279.512C438.89 280.346 437.83 281.18 434.461 282.015Z" fill="#D5E4EC"/>
<path d="M343.268 194.318C343.524 195.242 343.545 196.215 343.329 197.149C343.113 198.083 342.668 198.949 342.032 199.668C340.131 201.883 337.808 203.701 335.198 205.019C332.588 206.336 329.742 207.127 326.823 207.345H326.635C323.716 207.13 320.869 206.34 318.259 205.023C315.648 203.705 313.326 201.885 311.426 199.668C310.791 198.949 310.345 198.083 310.129 197.149C309.914 196.215 309.935 195.242 310.19 194.318C313.791 180.088 312.447 150.397 312.447 150.397L326.635 145.635H326.823L341.011 150.397C341.011 150.397 339.667 180.088 343.268 194.318Z" fill="#FDC6A2"/>
<path d="M341.65 181.116C327.717 182.393 318.286 179.525 312.418 176.447C312.418 175.848 312.418 175.248 312.418 174.622C316.596 176.918 321.264 178.24 326.056 178.482V177.517C326.056 178.143 326.19 178.482 326.19 178.482C330.204 178.33 334.14 177.353 337.738 175.613C338.836 175.117 339.935 174.596 341.034 174.022C341.034 174.726 341.034 175.43 341.034 176.134C341.435 177.83 341.65 179.499 341.65 181.116Z" fill="#F1AE8B"/>
<path d="M442.135 288.162V419.628H209.497V288.162C209.495 284.686 210.46 281.28 212.28 278.336C214.1 275.392 216.701 273.03 219.784 271.522C221.942 270.434 224.299 269.815 226.705 269.703C227.034 269.676 227.365 269.676 227.694 269.703H423.831C424.382 269.663 424.936 269.663 425.488 269.703C427.775 269.895 430.001 270.55 432.034 271.631C435.064 273.16 437.615 275.517 439.399 278.437C441.183 281.357 442.131 284.725 442.135 288.162Z" fill="#DAE5F2"/>
<path d="M442.135 365.323V426.416H209.497V376.266C258.338 390.641 348.967 406.313 442.135 365.323Z" fill="#C4D7E9"/>
<path d="M661.163 420H8.83705C3.95648 420 0 424.253 0 429.5C0 434.747 3.95648 439 8.83705 439H661.163C666.044 439 670 434.747 670 429.5C670 424.253 666.044 420 661.163 420Z" fill="#FFB29C"/>
<path opacity="0.45" d="M670 429.884C669.993 432.304 669.059 434.623 667.403 436.332C665.746 438.04 663.502 439 661.163 439H8.81181C6.47477 439 4.23346 438.04 2.58092 436.33C0.92839 434.621 6.22705e-06 432.302 6.22705e-06 429.884C-0.00199886 428.152 0.480257 426.456 1.38869 425C2.1837 426.291 3.28091 427.353 4.57857 428.088C5.87623 428.823 7.33232 429.207 8.81181 429.205H661.163C662.317 429.215 663.462 428.989 664.532 428.541C665.602 428.093 666.577 427.431 667.399 426.593C667.851 426.122 668.257 425.606 668.611 425.052C669.51 426.493 669.992 428.17 670 429.884Z" fill="#E48C7C"/>
<path d="M430.246 432.587H349.884C348.364 432.587 347.131 433.831 347.131 435.364C347.131 436.898 348.364 438.141 349.884 438.141H430.246C431.767 438.141 433 436.898 433 435.364C433 433.831 431.767 432.587 430.246 432.587Z" fill="#D27E72"/>
<path d="M453.477 432.587H442.973C441.501 432.587 440.308 433.831 440.308 435.364C440.308 436.898 441.501 438.141 442.973 438.141H453.477C454.949 438.141 456.142 436.898 456.142 435.364C456.142 433.831 454.949 432.587 453.477 432.587Z" fill="#D27E72"/>
<path d="M94.6867 419.628H14.3246C12.8039 419.628 11.571 420.871 11.571 422.405C11.571 423.939 12.8039 425.182 14.3246 425.182H94.6867C96.2074 425.182 97.4402 423.939 97.4402 422.405C97.4402 420.871 96.2074 419.628 94.6867 419.628Z" fill="white"/>
<path d="M118.424 419.628H107.516C105.987 419.628 104.748 420.871 104.748 422.405C104.748 423.939 105.987 425.182 107.516 425.182H118.424C119.952 425.182 121.191 423.939 121.191 422.405C121.191 420.871 119.952 419.628 118.424 419.628Z" fill="white"/>
<path d="M561.631 432.587H494.378C493.105 432.587 492.073 433.831 492.073 435.364C492.073 436.898 493.105 438.141 494.378 438.141H561.631C562.904 438.141 563.935 436.898 563.935 435.364C563.935 433.831 562.904 432.587 561.631 432.587Z" fill="#D27E72"/>
<path d="M660.558 433H593.304C592.032 433 591 434.243 591 435.777C591 437.311 592.032 438.554 593.304 438.554H660.558C661.83 438.554 662.862 437.311 662.862 435.777C662.862 434.243 661.83 433 660.558 433Z" fill="#D27E72"/>
<path d="M581.271 432.587H572.787C571.598 432.587 570.634 433.831 570.634 435.364C570.634 436.898 571.598 438.141 572.787 438.141H581.271C582.46 438.141 583.423 436.898 583.423 435.364C583.423 433.831 582.46 432.587 581.271 432.587Z" fill="#D27E72"/>
<path d="M394.328 378.899C396.515 378.899 398.287 377.103 398.287 374.888C398.287 372.673 396.515 370.877 394.328 370.877C392.142 370.877 390.37 372.673 390.37 374.888C390.37 377.103 392.142 378.899 394.328 378.899Z" fill="#C4D7E9"/>
<path d="M373.318 381.368C377.018 381.368 380.017 378.329 380.017 374.58C380.017 370.831 377.018 367.792 373.318 367.792C369.618 367.792 366.619 370.831 366.619 374.58C366.619 378.329 369.618 381.368 373.318 381.368Z" fill="#C4D7E9"/>
<path d="M387.02 366.557C388.198 366.557 389.152 365.59 389.152 364.398C389.152 363.205 388.198 362.238 387.02 362.238C385.843 362.238 384.889 363.205 384.889 364.398C384.889 365.59 385.843 366.557 387.02 366.557Z" fill="#C4D7E9"/>
<path d="M387.021 389.39C389.879 389.39 392.197 387.042 392.197 384.145C392.197 381.248 389.879 378.899 387.021 378.899C384.162 378.899 381.844 381.248 381.844 384.145C381.844 387.042 384.162 389.39 387.021 389.39Z" fill="#C4D7E9"/>
<path d="M403.768 373.963C405.113 373.963 406.204 372.719 406.204 371.186C406.204 369.652 405.113 368.409 403.768 368.409C402.423 368.409 401.332 369.652 401.332 371.186C401.332 372.719 402.423 373.963 403.768 373.963Z" fill="#C4D7E9"/>
<path d="M407.422 364.089C410.785 364.089 413.512 361.464 413.512 358.227C413.512 354.989 410.785 352.364 407.422 352.364C404.059 352.364 401.332 354.989 401.332 358.227C401.332 361.464 404.059 364.089 407.422 364.089Z" fill="#C4D7E9"/>
<path d="M277.246 275.227H230.203V269.673H282.577C282.577 271.146 282.015 272.558 281.015 273.6C280.016 274.642 278.66 275.227 277.246 275.227Z" fill="white"/>
<path d="M298.454 275.227H294.104C292.662 275.227 291.279 274.642 290.259 273.6C289.24 272.558 288.667 271.146 288.667 269.673H303.892C303.892 271.146 303.319 272.558 302.299 273.6C301.279 274.642 299.896 275.227 298.454 275.227Z" fill="white"/>
<path d="M203.711 433.204C205.897 433.204 207.669 431.409 207.669 429.193C207.669 426.978 205.897 425.182 203.711 425.182C201.525 425.182 199.752 426.978 199.752 429.193C199.752 431.409 201.525 433.204 203.711 433.204Z" fill="#E48C7C"/>
<path d="M214.978 425.799C215.65 425.799 216.196 425.246 216.196 424.565C216.196 423.883 215.65 423.331 214.978 423.331C214.305 423.331 213.76 423.883 213.76 424.565C213.76 425.246 214.305 425.799 214.978 425.799Z" fill="#E48C7C"/>
<path d="M186.354 432.587C188.372 432.587 190.008 430.791 190.008 428.576C190.008 426.361 188.372 424.565 186.354 424.565C184.336 424.565 182.7 426.361 182.7 428.576C182.7 430.791 184.336 432.587 186.354 432.587Z" fill="#E48C7C"/>
<path d="M193.662 425.799C194.335 425.799 194.88 425.246 194.88 424.565C194.88 423.883 194.335 423.331 193.662 423.331C192.99 423.331 192.444 423.883 192.444 424.565C192.444 425.246 192.99 425.799 193.662 425.799Z" fill="#E48C7C"/>
<path d="M196.403 432.587C197.244 432.587 197.925 431.758 197.925 430.736C197.925 429.713 197.244 428.884 196.403 428.884C195.562 428.884 194.88 429.713 194.88 430.736C194.88 431.758 195.562 432.587 196.403 432.587Z" fill="#E48C7C"/>
<path d="M213.455 434.438C214.632 434.438 215.586 433.61 215.586 432.587C215.586 431.565 214.632 430.736 213.455 430.736C212.278 430.736 211.323 431.565 211.323 432.587C211.323 433.61 212.278 434.438 213.455 434.438Z" fill="#E48C7C"/>
<path d="M208.887 425.182C209.56 425.182 210.105 424.629 210.105 423.948C210.105 423.266 209.56 422.713 208.887 422.713C208.215 422.713 207.669 423.266 207.669 423.948C207.669 424.629 208.215 425.182 208.887 425.182Z" fill="#E48C7C"/>
<path d="M230.203 282.632C233.566 282.632 236.293 279.731 236.293 276.152C236.293 272.574 233.566 269.673 230.203 269.673C226.839 269.673 224.113 272.574 224.113 276.152C224.113 279.731 226.839 282.632 230.203 282.632Z" fill="white"/>
<path opacity="0.72" d="M234.161 288.186C235.338 288.186 236.293 287.219 236.293 286.026C236.293 284.833 235.338 283.866 234.161 283.866C232.984 283.866 232.03 284.833 232.03 286.026C232.03 287.219 232.984 288.186 234.161 288.186Z" fill="white"/>
<path opacity="0.42" d="M230.812 296.208C232.493 296.208 233.857 294.827 233.857 293.123C233.857 291.419 232.493 290.037 230.812 290.037C229.13 290.037 227.767 291.419 227.767 293.123C227.767 294.827 229.13 296.208 230.812 296.208Z" fill="white"/>
<path d="M220.458 284.483C221.804 284.483 222.894 283.378 222.894 282.015C222.894 280.652 221.804 279.546 220.458 279.546C219.113 279.546 218.022 280.652 218.022 282.015C218.022 283.378 219.113 284.483 220.458 284.483Z" fill="white"/>
<path d="M227.157 286.951C227.83 286.951 228.375 286.537 228.375 286.026C228.375 285.515 227.83 285.1 227.157 285.1C226.485 285.1 225.939 285.515 225.939 286.026C225.939 286.537 226.485 286.951 227.157 286.951Z" fill="white"/>
<path d="M217.109 90.7139C221.65 90.7139 225.33 86.9841 225.33 82.3831C225.33 77.7821 221.65 74.0522 217.109 74.0522C212.568 74.0522 208.887 77.7821 208.887 82.3831C208.887 86.9841 212.568 90.7139 217.109 90.7139Z" fill="#F1167D"/>
<path d="M426.301 26.5353C430.674 26.5353 434.218 22.9436 434.218 18.513C434.218 14.0824 430.674 10.4907 426.301 10.4907C421.929 10.4907 418.384 14.0824 418.384 18.513C418.384 22.9436 421.929 26.5353 426.301 26.5353Z" fill="#F1167D"/>
<path d="M88.9142 234.499C100.013 234.499 109.011 225.243 109.011 213.826C109.011 202.408 100.013 193.153 88.9142 193.153C77.8149 193.153 68.8171 202.408 68.8171 213.826C68.8171 225.243 77.8149 234.499 88.9142 234.499Z" fill="#1BF1F1"/>
<path d="M222.894 182.045C230.63 182.045 236.902 175.69 236.902 167.851C236.902 160.013 230.63 153.658 222.894 153.658C215.159 153.658 208.887 160.013 208.887 167.851C208.887 175.69 215.159 182.045 222.894 182.045Z" fill="#11B3D8"/>
<path d="M487.81 79.6058C495.546 79.6058 501.817 73.2513 501.817 65.4125C501.817 57.5738 495.546 51.2192 487.81 51.2192C480.074 51.2192 473.803 57.5738 473.803 65.4125C473.803 73.2513 480.074 79.6058 487.81 79.6058Z" fill="#35428B"/>
<path d="M156.209 167.851C159.404 167.851 161.994 165.226 161.994 161.988C161.994 158.751 159.404 156.126 156.209 156.126C153.014 156.126 150.423 158.751 150.423 161.988C150.423 165.226 153.014 167.851 156.209 167.851Z" fill="#1BF1F1"/>
<path d="M324.598 378.282C340.742 378.282 353.83 365.02 353.83 348.661C353.83 332.302 340.742 319.041 324.598 319.041C308.453 319.041 295.366 332.302 295.366 348.661C295.366 365.02 308.453 378.282 324.598 378.282Z" fill="#F9F7F7"/>
<path d="M360.633 46.545C352.553 39.786 342.631 35.6839 332.191 34.7855C331.634 34.7329 331.067 34.6847 330.501 34.6497C329.787 34.6058 329.065 34.5751 328.338 34.5576C327.906 34.5576 327.473 34.5576 327.015 34.5576C326.557 34.5576 326.129 34.5576 325.692 34.5576C325.255 34.5576 324.909 34.5576 324.52 34.5971H324.161C323.767 34.5971 323.374 34.6409 322.98 34.6672H322.803C322.414 34.6979 322.025 34.7285 321.635 34.768H321.523C321.238 34.7943 320.952 34.825 320.658 34.86C320.122 34.9214 319.59 34.9871 319.062 35.0617L318.695 35.1186C318.401 35.1625 318.107 35.2063 317.83 35.2589L317.281 35.3509L316.39 35.5175L315.927 35.6095C315.663 35.6621 315.404 35.7147 315.144 35.7761L314.47 35.9295C314.245 35.9777 314.037 36.0303 313.799 36.0916L313.255 36.2275C313.155 36.2494 313.051 36.2757 312.952 36.3064C294.88 41.0882 281.132 54.9251 275.286 72.1808C275.247 72.2903 275.208 72.3999 275.178 72.5095C273.895 76.3856 273.026 80.3895 272.583 84.453C271.858 91.0132 272.232 97.6504 273.69 104.084C273.746 104.352 273.811 104.615 273.876 104.882C273.958 105.241 274.049 105.605 274.144 105.964C274.257 106.403 274.373 106.841 274.494 107.279L276.319 115.826L276.83 118.184L278.365 125.271L279.502 125.236L280.367 125.206L284.259 125.083L321.393 123.908H321.596L332.114 123.575L375.203 122.212L377.901 110.08L378.411 107.788L379.012 105.083C379.082 104.768 379.151 104.448 379.216 104.132C379.36 103.449 379.49 102.765 379.605 102.081C381.767 89.5898 382.347 76.476 377.75 65.9175C374.342 58.0239 367.081 51.9535 360.633 46.545ZM317.635 111.189L317.54 111.228C317.68 110.307 317.75 109.377 317.748 108.445C317.755 106.988 317.578 105.535 317.22 104.124C317.063 103.506 316.862 102.901 316.619 102.313C317.611 102.464 318.527 102.942 319.224 103.673C319.922 104.404 320.362 105.347 320.478 106.357C320.593 107.367 320.378 108.388 319.864 109.261C319.35 110.134 318.567 110.812 317.635 111.189Z" fill="#B0D7E9"/>
<path d="M282.132 134.528L275.301 114.705C275.228 114.499 275.15 114.267 275.076 114.061L274.986 113.807C274.137 111.321 273.415 108.792 272.823 106.23C272.74 105.875 272.658 105.521 272.585 105.157C272.524 104.899 272.463 104.623 272.412 104.342C270.912 97.2106 270.609 89.874 271.516 82.6404V82.5572C271.972 79.026 272.745 75.5442 273.826 72.1552C273.865 72.0238 273.908 71.8924 273.956 71.7654C276.824 62.8676 281.859 54.8442 288.596 48.4352C295.333 42.0261 303.556 37.4377 312.506 35.0932C312.625 35.0581 312.741 35.0275 312.857 35.0012L313.406 34.8654C313.614 34.8085 313.86 34.7515 314.107 34.699L314.782 34.5413C315.029 34.4844 315.301 34.4274 315.582 34.3749L316.049 34.2785L316.967 34.1077L317.153 34.0771L317.551 34.0114C317.81 33.9632 318.117 33.9194 318.416 33.8712H318.567L318.792 33.8362C319.329 33.7617 319.874 33.6916 320.419 33.6303C320.704 33.5953 321.003 33.5602 321.284 33.534H321.427L322.582 33.4376H322.764C323.196 33.407 323.581 33.3807 323.984 33.3632H324.356C324.741 33.3632 325.139 33.3325 325.545 33.3237C326.437 33.3237 327.354 33.3237 328.245 33.3237C328.989 33.3237 329.733 33.3719 330.46 33.4201C347.081 34.48 362.006 43.4937 371.42 58.1529C372.168 59.3136 373.479 60.1895 374.881 61.1137C376.758 62.3619 378.701 63.6539 379.614 65.8789C383.749 75.9525 382.642 89.324 380.834 102.293C380.751 102.915 380.648 103.607 380.513 104.382C380.327 105.451 380.124 106.497 379.899 107.5L379.471 123.329L378.03 123.5L282.132 134.528ZM274.107 82.8156V82.9032C273.23 89.8755 273.522 96.9477 274.973 103.821C275.025 104.088 275.076 104.338 275.133 104.592C275.211 104.951 275.284 105.288 275.366 105.63C275.942 108.102 276.643 110.542 277.469 112.94L277.555 113.19L277.776 113.825L283.906 131.681L376.918 120.981L377.321 107.097L377.351 106.97C377.572 105.976 377.784 104.929 377.961 103.865C378.091 103.116 378.19 102.459 378.273 101.863C380.029 89.254 381.119 76.2897 377.226 66.8249C376.62 65.3446 375.088 64.3284 373.466 63.2466C371.913 62.213 370.304 61.1487 369.265 59.5282C360.181 45.3682 346.337 37.0072 330.33 35.9823C329.638 35.9429 328.924 35.9122 328.219 35.8947C327.354 35.8947 326.488 35.8947 325.623 35.8947C325.243 35.8947 324.862 35.9078 324.481 35.9341H324.161L322.971 36.0042H322.807C322.426 36.0348 322.05 36.0655 321.669 36.1049H321.544C321.271 36.1312 321.003 36.1575 320.735 36.1925C320.194 36.2538 319.675 36.3195 319.156 36.3896L318.792 36.4465L317.962 36.5779L317.59 36.6393L317.395 36.6743C317.114 36.7225 316.824 36.7794 316.53 36.8363L316.075 36.9239C315.825 36.9765 315.578 37.0247 315.336 37.0816L314.656 37.2349C314.431 37.2831 314.224 37.3313 314.029 37.3882L313.475 37.524H313.428C313.359 37.5368 313.291 37.5544 313.224 37.5765H313.168C304.629 39.8116 296.783 44.189 290.356 50.3046C283.929 56.4201 279.128 64.0765 276.396 72.5669C276.357 72.6807 276.327 72.7596 276.305 72.8384V72.8866C275.278 76.1224 274.543 79.4456 274.107 82.8156ZM315.781 113.356L316.175 110.982C316.303 110.13 316.367 109.269 316.365 108.407C316.372 107.063 316.209 105.724 315.881 104.421C315.739 103.866 315.558 103.321 315.34 102.792L314.436 100.637L316.724 100.979C318.001 101.167 319.18 101.776 320.08 102.711C320.98 103.647 321.55 104.856 321.703 106.152C321.856 107.449 321.582 108.76 320.924 109.884C320.267 111.007 319.262 111.879 318.065 112.366L317.944 112.419L315.781 113.356ZM318.701 105.214C318.851 106.112 318.936 107.019 318.957 107.929C319.072 107.584 319.13 107.221 319.13 106.856C319.131 106.28 318.983 105.714 318.701 105.214Z" fill="#1B3C47"/>
<path d="M281.968 97.5017C281.645 97.5017 281.335 97.3855 281.107 97.1787C280.878 96.9718 280.75 96.6913 280.75 96.3988V83.1771C280.75 82.8846 280.878 82.6041 281.107 82.3973C281.335 82.1904 281.645 82.0742 281.968 82.0742C282.291 82.0742 282.601 82.1904 282.829 82.3973C283.057 82.6041 283.186 82.8846 283.186 83.1771V96.412C283.182 96.7022 283.052 96.9794 282.824 97.1834C282.596 97.3874 282.288 97.5017 281.968 97.5017Z" fill="#1B3C47"/>
<path d="M281.968 78.372C281.645 78.372 281.335 78.2517 281.107 78.0375C280.878 77.8233 280.75 77.5328 280.75 77.2299V72.1089C280.75 71.806 280.878 71.5155 281.107 71.3013C281.335 71.0871 281.645 70.9668 281.968 70.9668C282.291 70.9668 282.601 71.0871 282.829 71.3013C283.057 71.5155 283.186 71.806 283.186 72.1089V77.2299C283.186 77.5328 283.057 77.8233 282.829 78.0375C282.601 78.2517 282.291 78.372 281.968 78.372Z" fill="#1B3C47"/>
<path d="M333.475 61.2247C339.322 62.5029 344.812 65.1089 349.538 68.8494C350.866 69.8956 352.164 67.586 350.84 66.5531C345.921 62.682 340.216 59.9844 334.143 58.658C332.506 58.3034 331.812 60.8745 333.449 61.2247H333.475Z" fill="white"/>
<path d="M390.37 113.479V116.696C390.37 119.133 389.417 121.47 387.721 123.194C386.025 124.917 383.725 125.885 381.327 125.885H270.913C270.829 125.89 270.744 125.89 270.659 125.885C268.95 125.843 267.288 125.304 265.871 124.332C264.639 123.491 263.629 122.354 262.931 121.022C262.234 119.69 261.869 118.205 261.871 116.696V113.479C261.871 111.042 262.823 108.705 264.519 106.982C266.215 105.258 268.515 104.29 270.913 104.29H316.95C317.306 105.7 317.483 107.15 317.476 108.605C317.478 109.535 317.409 110.464 317.269 111.383L317.364 111.344C318.012 111.082 318.592 110.672 319.059 110.146C319.526 109.619 319.867 108.991 320.057 108.308C320.246 107.626 320.278 106.909 320.151 106.212C320.024 105.515 319.741 104.858 319.323 104.29H381.331C383.729 104.291 386.028 105.26 387.723 106.983C389.418 108.706 390.37 111.043 390.37 113.479Z" fill="#F4CEAE"/>
<path opacity="0.5" d="M389.761 115.811C389.763 117.243 389.483 118.661 388.939 119.985C388.395 121.308 387.597 122.511 386.591 123.523C386.181 123.934 385.741 124.312 385.273 124.654C385.705 122.487 385.706 120.254 385.277 118.086C384.848 115.917 383.996 113.856 382.772 112.02C381.547 110.184 379.974 108.611 378.142 107.39C376.311 106.169 374.257 105.325 372.1 104.907H378.941C381.812 104.911 384.564 106.061 386.593 108.105C388.621 110.15 389.761 112.921 389.761 115.811Z" fill="#CC6F65"/>
<path d="M271.628 108.012C269.194 110.455 267.809 113.759 267.771 117.217C267.733 120.674 269.044 124.009 271.423 126.506C268.689 126.191 266.179 124.837 264.406 122.722C262.633 120.607 261.732 117.89 261.888 115.128C262.044 112.366 263.244 109.769 265.244 107.869C267.244 105.969 269.89 104.909 272.642 104.907H276.487C274.66 105.57 273.001 106.63 271.628 108.012Z" fill="#FCDFCA"/>
<path d="M379.686 127.114H272.554C271.805 127.113 271.058 127.041 270.322 126.901C267.68 126.38 265.288 124.974 263.534 122.91C261.779 120.846 260.764 118.245 260.653 115.526C260.653 115.378 260.653 115.226 260.653 115.091C260.654 111.9 261.908 108.839 264.141 106.582C266.374 104.325 269.401 103.057 272.559 103.056H379.686C382.842 103.06 385.867 104.33 388.098 106.586C390.33 108.842 391.584 111.901 391.588 115.091C391.586 118.281 390.331 121.34 388.099 123.596C385.868 125.852 382.842 127.12 379.686 127.123V127.114ZM272.554 105.656C271.329 105.656 270.116 105.901 268.985 106.375C267.854 106.85 266.826 107.545 265.96 108.421C265.094 109.298 264.408 110.338 263.94 111.482C263.472 112.627 263.232 113.853 263.233 115.091C263.233 115.209 263.233 115.326 263.233 115.443C263.321 117.571 264.116 119.607 265.49 121.222C266.863 122.837 268.735 123.937 270.804 124.344C271.379 124.457 271.964 124.514 272.55 124.514H379.686C382.124 124.461 384.445 123.445 386.15 121.683C387.856 119.921 388.811 117.554 388.811 115.089C388.811 112.624 387.856 110.257 386.15 108.495C384.445 106.734 382.124 105.717 379.686 105.665H321.348C321.691 107.043 321.529 108.501 320.893 109.769C320.257 111.037 319.189 112.03 317.885 112.565L317.765 112.617L315.614 113.561L316.006 111.204C316.133 110.358 316.197 109.503 316.195 108.647C316.197 107.647 316.108 106.648 315.928 105.665L272.554 105.656ZM318.518 105.469C318.666 106.36 318.751 107.261 318.771 108.165C318.886 107.821 318.944 107.462 318.944 107.099C318.945 106.528 318.798 105.965 318.518 105.469Z" fill="#1B3C47"/>
<path d="M363.381 58.8989C358.693 54.1096 353.122 50.3116 346.988 47.7229C340.855 45.1342 334.28 43.806 327.641 43.8145H327.391C314.027 43.8748 301.231 49.3281 291.804 58.9804C282.378 68.6328 277.089 81.6976 277.096 95.3144V131.366C277.114 143.431 281.179 155.128 288.618 164.516L288.639 164.542C297.911 176.273 311.941 183.896 327.641 183.896C355.559 183.896 378.19 159.295 378.19 130.853V95.3188C378.198 88.5535 376.894 81.8533 374.352 75.6032C371.811 69.3531 368.082 63.6762 363.381 58.8989ZM320.55 106.585C320.55 107.51 320.277 108.415 319.767 109.181C319.257 109.946 318.533 110.539 317.689 110.881L317.594 110.92C317.734 109.999 317.803 109.069 317.801 108.137C317.808 106.679 317.632 105.226 317.276 103.814C317.12 103.197 316.92 102.592 316.678 102.004C317.755 102.169 318.738 102.722 319.448 103.562C320.159 104.403 320.55 105.475 320.55 106.585Z" fill="#F4CEAE"/>
<path opacity="0.5" d="M378.19 95.9311V131.47C378.19 159.916 355.408 184.513 327.298 184.513C326.189 184.513 325.086 184.476 323.989 184.403C350.557 182.68 371.575 158.789 371.575 131.465V95.9311C371.574 82.8514 366.656 70.2621 357.818 60.7175C348.981 51.1729 336.886 45.3879 323.989 44.5364C325.083 44.4662 326.187 44.4312 327.298 44.4312C340.796 44.4312 353.74 49.857 363.284 59.5151C372.828 69.1732 378.19 82.2724 378.19 95.9311Z" fill="#CC6F65"/>
<path d="M320.335 183.891C319.323 183.987 318.302 182.716 317.277 182.716C294.748 182.716 276.487 156.986 276.487 129.262V94.6279C276.487 66.9035 294.748 44.4312 317.277 44.4312C318.302 44.4312 319.323 44.475 320.335 44.5714C299.231 46.4916 279.501 67.2937 279.501 93.7511L279.717 133.014C279.717 159.485 299.24 181.97 320.335 183.891Z" fill="#FCEADE"/>
<path d="M290.446 170.32C290.244 170.319 290.046 170.27 289.866 170.176C289.687 170.081 289.533 169.945 289.416 169.777C287.881 167.874 280.014 156.574 279.111 153.776C279.023 153.63 278.964 153.468 278.938 153.298C278.912 153.129 278.919 152.956 278.959 152.789C279 152.623 279.072 152.466 279.172 152.328C279.272 152.191 279.543 151.987 279.543 151.987C279.543 151.987 279.848 151.843 280.014 151.819C280.181 151.795 280.35 151.806 280.512 151.85C280.675 151.894 280.827 151.97 280.96 152.075C281.094 152.179 281.205 152.31 281.288 152.459C281.98 153.651 290.428 167.09 291.475 168.275C291.572 168.413 291.641 168.569 291.679 168.735C291.717 168.9 291.722 169.072 291.694 169.239C291.667 169.407 291.607 169.567 291.519 169.711C291.431 169.855 291.315 169.98 291.18 170.079C290.966 170.235 290.709 170.319 290.446 170.32Z" fill="#1B3C47"/>
<path d="M280.244 153.653C279.987 153.653 279.737 153.576 279.524 153.431C279.311 153.285 279.146 153.079 279.049 152.838C276.547 146.566 275.263 139.863 275.269 133.097V95.716C275.271 83.4138 279.529 71.5024 287.298 62.0573C289.201 59.7409 291.298 57.597 293.567 55.6499L293.704 55.5322C303.037 47.5668 314.84 43.1984 327.036 43.1968H327.324C341.003 43.2728 354.097 48.8399 363.742 58.6812C373.388 68.5225 378.801 81.8376 378.799 95.716V133.097C378.803 137.084 378.359 141.059 377.475 144.944C377.388 145.271 377.179 145.551 376.893 145.725C376.606 145.899 376.264 145.953 375.939 145.877C375.614 145.8 375.33 145.598 375.149 145.313C374.968 145.029 374.902 144.684 374.966 144.352C375.804 140.66 376.224 136.885 376.221 133.097V95.716C376.223 82.5248 371.076 69.8695 361.906 60.5182C352.735 51.167 340.287 45.881 327.285 45.8164H327.036C315.43 45.8212 304.201 49.9899 295.333 57.5852L295.26 57.6462C293.096 59.4995 291.096 61.5414 289.283 63.7486C281.898 72.7231 277.85 84.0422 277.846 95.7335V133.115C277.848 139.538 279.068 145.901 281.438 151.857C281.518 152.056 281.548 152.271 281.526 152.485C281.505 152.698 281.431 152.902 281.313 153.08C281.195 153.258 281.036 153.404 280.85 153.504C280.663 153.605 280.455 153.658 280.244 153.658V153.653Z" fill="#1B3C47"/>
<path d="M270.856 119.718C270.717 119.716 270.58 119.68 270.458 119.613C270.335 119.546 270.23 119.449 270.153 119.332C270.075 119.214 270.026 119.079 270.011 118.939C269.996 118.798 270.014 118.655 270.065 118.523C270.506 117.319 270.622 116.016 270.401 114.75C270.181 113.485 269.631 112.302 268.809 111.326C268.729 111.24 268.666 111.139 268.625 111.029C268.584 110.918 268.565 110.801 268.57 110.683C268.575 110.565 268.604 110.449 268.654 110.342C268.704 110.236 268.774 110.14 268.861 110.062C268.949 109.984 269.05 109.925 269.161 109.888C269.271 109.851 269.387 109.837 269.503 109.847C269.619 109.858 269.731 109.891 269.834 109.947C269.936 110.002 270.027 110.078 270.099 110.17C271.125 111.39 271.811 112.866 272.087 114.447C272.363 116.027 272.219 117.653 271.669 119.158C271.606 119.324 271.494 119.467 271.349 119.567C271.204 119.667 271.032 119.72 270.856 119.718Z" fill="#1B3C47"/>
<path d="M265.777 116.632C265.617 116.632 265.46 116.586 265.324 116.499C265.188 116.412 265.078 116.287 265.006 116.139C264.935 115.991 264.905 115.826 264.919 115.661C264.933 115.496 264.992 115.339 265.088 115.206C265.683 114.396 266.474 113.764 267.382 113.373C268.29 112.981 269.281 112.846 270.256 112.979C270.369 112.995 270.478 113.035 270.577 113.095C270.675 113.154 270.761 113.234 270.83 113.328C270.899 113.422 270.949 113.53 270.978 113.644C271.006 113.759 271.013 113.878 270.997 113.995C270.981 114.112 270.943 114.224 270.885 114.326C270.827 114.428 270.751 114.517 270.66 114.588C270.568 114.659 270.465 114.711 270.354 114.741C270.243 114.77 270.128 114.777 270.015 114.761C269.344 114.672 268.662 114.767 268.037 115.036C267.412 115.305 266.866 115.738 266.453 116.293C266.372 116.399 266.27 116.484 266.153 116.543C266.036 116.601 265.907 116.632 265.777 116.632Z" fill="#1B3C47"/>
<path d="M331.906 123.243C331.921 124.746 331.353 126.193 330.326 127.268C329.299 128.342 327.898 128.956 326.429 128.974C323.396 128.974 320.944 125.348 320.944 122.186L331.906 123.243Z" fill="#F4CEAE"/>
<path d="M365.986 73.0768C361.984 65.1211 355.999 58.3536 348.621 53.4395C341.244 48.5253 332.726 45.6335 323.906 45.0483C322.793 45.1227 321.693 45.2319 320.598 45.3718C330.138 46.6264 339.127 50.5973 346.514 56.8201L348.189 58.2932C348.791 58.844 349.384 59.4035 349.956 59.9849C353.452 63.5103 356.422 67.5302 358.772 71.9184C347.163 68.6268 339.91 59.6046 339.91 59.6046C330.817 67.4728 340.343 71.4069 340.343 71.4069L331.25 74.9039C311.331 79.2752 310.465 57.419 310.465 57.419L296.678 66.7035L283.186 72.7183C297.475 74.9039 308.3 62.2273 308.3 62.2273C308.3 66.5986 307.837 73.2298 319.559 77.9638C332.549 83.2093 345.539 71.4069 345.539 71.4069C338.611 69.2213 339.91 64.8501 339.91 64.413C345.574 71.4769 355.849 74.1346 360.283 74.9914C363.308 81.6786 364.869 88.9455 364.86 96.2968V131.735C364.86 157.84 345.574 180.928 320.598 184.189C321.693 184.334 322.793 184.443 323.906 184.513C350.463 182.795 371.49 158.452 371.49 131.214V96.2837C371.537 88.4417 369.805 79.2621 366.12 72.4473" fill="#FFB594"/>
<path d="M320.996 113.152L326.425 104.887L321.831 99.2322C321.831 99.2322 315.15 97.4923 314.732 98.3622C314.314 99.2322 311.809 108.367 311.809 108.367L315.567 116.632L320.996 113.152Z" fill="#F4CEAE"/>
<path d="M358.093 111.4C358.093 105.428 353.321 100.587 347.435 100.587C341.549 100.587 336.778 105.428 336.778 111.4V115.076C336.778 121.048 341.549 125.888 347.435 125.888C353.321 125.888 358.093 121.048 358.093 115.076V111.4Z" fill="white"/>
<path d="M347.435 119.1C350.294 119.1 352.612 116.752 352.612 113.855C352.612 110.958 350.294 108.609 347.435 108.609C344.576 108.609 342.259 110.958 342.259 113.855C342.259 116.752 344.576 119.1 347.435 119.1Z" fill="#274B5B"/>
<path d="M345.913 111.695C347.931 111.695 349.567 110.038 349.567 107.993C349.567 105.948 347.931 104.29 345.913 104.29C343.895 104.29 342.259 105.948 342.259 107.993C342.259 110.038 343.895 111.695 345.913 111.695Z" fill="white"/>
<path d="M348.349 117.866C349.022 117.866 349.567 117.314 349.567 116.632C349.567 115.951 349.022 115.398 348.349 115.398C347.676 115.398 347.131 115.951 347.131 116.632C347.131 117.314 347.676 117.866 348.349 117.866Z" fill="white"/>
<path d="M316.072 111.4C316.072 105.428 311.437 100.587 305.719 100.587C300.001 100.587 295.366 105.428 295.366 111.4V115.076C295.366 121.048 300.001 125.888 305.719 125.888C311.437 125.888 316.072 121.048 316.072 115.076V111.4Z" fill="white"/>
<path d="M305.414 119.1C308.273 119.1 310.591 116.752 310.591 113.855C310.591 110.958 308.273 108.609 305.414 108.609C302.555 108.609 300.238 110.958 300.238 113.855C300.238 116.752 302.555 119.1 305.414 119.1Z" fill="#274B5B"/>
<path d="M303.892 111.695C305.91 111.695 307.546 110.038 307.546 107.993C307.546 105.948 305.91 104.29 303.892 104.29C301.874 104.29 300.238 105.948 300.238 107.993C300.238 110.038 301.874 111.695 303.892 111.695Z" fill="white"/>
<path d="M306.328 117.866C307 117.866 307.546 117.314 307.546 116.632C307.546 115.951 307 115.398 306.328 115.398C305.655 115.398 305.11 115.951 305.11 116.632C305.11 117.314 305.655 117.866 306.328 117.866Z" fill="white"/>
<path d="M280.488 72.6695L300.057 65.254C306.611 61.0732 312.487 55.8772 317.475 49.8524L311.583 55.1179C314.692 53.3013 307.626 58.1894 310.594 56.4343C307.153 67.8428 322.206 83.6393 340.054 71.5725C340.054 71.5725 333.697 66.272 339.899 59.9402C339.899 59.9402 354.247 79.032 383.062 69.8174C383.062 69.8174 379.621 47.0003 359.408 41.7348L373.6 36.4693C373.6 36.4693 348.226 11.0195 321.991 28.1323V28.1762C321.166 27.3318 320.121 26.7456 318.98 26.4869C318.98 26.4869 318.98 33.2399 315.669 35.4952C315.669 35.4952 296.908 20.4798 273.731 36.9959C273.731 36.9959 284.402 38.1192 284.402 43.3759C284.402 43.3759 266.743 49.7559 266.743 72.652L275.774 71.7744" fill="#1C4152"/>
<path d="M324.059 30.9107C324.059 30.9107 340.804 17.8246 363.561 34.8365C363.561 34.8365 365.708 36.1451 365.278 36.1451C364.849 36.1451 346.386 43.1243 346.386 43.1243C346.386 43.1243 374.295 44.4329 378.589 69.7326H382.453C382.453 69.7326 379.018 45.3053 358.408 42.2519L373.866 37.0175C373.866 37.0175 353.685 15.2074 326.206 25.6763L322.771 26.9849L324.059 30.9107Z" fill="#E1F4F9"/>
<path d="M314.854 36.1874C314.854 36.1874 295.382 27.466 280.237 36.1874C280.237 36.1874 288.026 37.9317 286.295 45.7811C286.295 45.7811 266.823 53.6304 269.419 72.3815L265.525 72.8176C265.525 72.8176 265.525 52.3222 282.833 43.1646L272.015 37.0596C272.015 37.0596 293.651 22.2331 311.392 34.4432L314.854 36.1874Z" fill="#E1F4F9"/>
<path d="M275.637 74.0522L264.916 74.0304V72.7239C264.916 60.5296 269.912 52.9561 274.102 48.7447C276.505 46.3125 279.303 44.3204 282.375 42.8566C281.354 40.126 275.29 38.8674 273.038 38.6322L269.607 38.2707L272.438 36.263C284.759 27.5267 295.871 27.579 303.024 29.1642C307.259 30.0889 311.291 31.797 314.917 34.2031C316.611 32.3173 317.005 28.4152 317.005 26.917V25.3013L318.562 25.6366C324.498 26.9431 325.75 34.9478 325.801 35.2918C325.852 35.6349 325.766 35.9843 325.563 36.2632C325.36 36.5421 325.056 36.7277 324.719 36.7791C324.381 36.8305 324.037 36.7435 323.762 36.5373C323.487 36.3311 323.305 36.0225 323.254 35.6795C323.254 35.5749 322.448 30.645 319.467 28.7853C319.218 31.1719 318.395 35.122 315.706 36.9424L314.93 37.4694L314.209 36.8771C310.652 34.3507 306.624 32.5887 302.373 31.6989C293.671 29.8001 285.021 31.4594 276.641 36.6202C280.157 37.465 285.128 39.4118 285.128 43.671V44.5943L284.27 44.9035C281.115 46.245 278.256 48.2128 275.86 50.6914C270.594 56.0264 267.797 62.9946 267.54 71.4217H275.689C276.03 71.4217 276.357 71.5593 276.598 71.8044C276.84 72.0494 276.975 72.3817 276.975 72.7282C276.975 73.0747 276.84 73.407 276.598 73.6521C276.357 73.8971 276.03 74.0347 275.689 74.0347L275.637 74.0522Z" fill="#1B3C47"/>
<path d="M314.045 54.3052C314.045 54.3052 309.721 79.6264 337.83 70.7418L339.214 72.5187C339.214 72.5187 333.415 78.2004 326.586 76.961C316.64 75.1841 304.532 64.5225 314.045 54.3052Z" fill="#54B9D3"/>
<path d="M359.962 47.8963C361.3 48.5819 362.545 49.4692 363.663 50.533C364.509 51.3714 364.932 52.0598 364.75 52.3268C364.391 52.87 361.971 51.5868 359.036 50.0553C356.1 48.5239 353.681 47.2454 353.837 46.5897C353.917 46.2759 354.653 46.1916 355.779 46.3883C357.229 46.6737 358.637 47.1812 359.962 47.8963Z" fill="#E5F5FA"/>
<path d="M371.28 56.6975C372.054 57.6942 372.658 58.8062 373.07 59.9907C373.37 60.896 373.406 61.5253 373.132 61.6762C372.859 61.827 372.334 61.4606 371.69 60.7709C371.046 60.0813 370.296 59.0812 369.485 58.0251C368.673 56.969 367.906 56.0552 367.35 55.331C366.795 54.6068 366.49 54.0766 366.671 53.8223C366.852 53.568 367.505 53.6715 368.387 54.1499C369.52 54.7958 370.505 55.6631 371.28 56.6975Z" fill="#E5F5FA"/>
<path d="M375.611 64.1096C375.969 65.0327 375.611 65.9047 375.003 66.0153C374.395 66.1259 373.756 65.59 373.469 64.8625C373.183 64.1351 373.299 63.3396 373.845 63.0376C374.391 62.7356 375.254 63.1865 375.611 64.1096Z" fill="#E5F5FA"/>
<path d="M351.571 37.9435C352.949 37.4648 354.248 37.5874 354.419 38.1043C354.589 38.6212 353.666 39.3219 352.393 39.7623C351.12 40.2026 349.9 40.2524 349.62 39.7623C349.34 39.2722 350.189 38.4221 351.571 37.9435Z" fill="#E5F5FA"/>
<path d="M357.445 35.8689C358.265 35.6327 359.08 35.9587 359.271 36.5964C359.462 37.234 358.947 37.9473 358.132 38.1835C357.316 38.4196 356.496 38.0937 356.306 37.456C356.115 36.8184 356.63 36.1051 357.445 35.8689Z" fill="#E5F5FA"/>
<path d="M334.578 28.0795C336.528 27.7422 338.523 27.6802 340.493 27.8955C341.999 28.0835 342.893 28.4274 342.867 28.6953C342.802 29.2751 339.226 29.3591 334.973 30.0869C330.72 30.8146 327.33 31.8543 327.048 31.3305C326.922 31.0826 327.63 30.4747 328.971 29.8109C330.734 28.9765 332.625 28.3928 334.578 28.0795Z" fill="#E5F5FA"/>
<path d="M346.976 27.8434C347.195 27.9333 347.384 28.0866 347.52 28.2844C347.656 28.4822 347.732 28.716 347.739 28.9572C347.747 29.1984 347.685 29.4366 347.562 29.6427C347.439 29.8488 347.259 30.0138 347.046 30.1176C346.832 30.2214 346.593 30.2595 346.359 30.2273C346.124 30.195 345.904 30.0937 345.725 29.9359C345.546 29.7781 345.416 29.5705 345.351 29.3385C345.286 29.1065 345.288 28.8601 345.358 28.6295C345.471 28.307 345.705 28.0433 346.008 27.896C346.311 27.7487 346.659 27.7298 346.976 27.8434Z" fill="#E5F5FA"/>
<path d="M317.088 62.4789C317.421 63.637 317.872 64.7563 318.432 65.8187C318.858 66.6319 319.207 67.1233 319.096 67.2407C318.985 67.3581 318.449 67.0363 317.82 66.2666C317.007 65.2421 316.409 64.058 316.063 62.7877C315.713 61.5521 315.514 60.2769 315.471 58.9913C315.437 58.0172 315.505 57.4084 315.654 57.391C315.803 57.3736 316.003 57.9476 316.229 58.8826C316.454 59.8176 316.692 61.1178 317.088 62.4789Z" fill="#6AC2D9"/>
<path d="M327.222 69.8584C328.745 69.8627 330.265 69.7324 331.765 69.4692C332.938 69.2832 333.682 69.1708 333.73 69.3222C333.779 69.4735 333.118 69.8367 331.958 70.2259C330.425 70.7353 328.816 70.9853 327.2 70.9653C325.559 70.9525 323.944 70.5585 322.485 69.8151C321.378 69.2184 320.866 68.6216 320.953 68.5179C321.041 68.4141 321.706 68.7341 322.805 69.1059C324.229 69.5811 325.719 69.8349 327.222 69.8584Z" fill="#6AC2D9"/>
<path d="M359.249 95.0244C359.013 95.0249 358.782 94.9537 358.581 94.8186C346.26 86.5242 334.879 94.4539 334.403 94.7953C334.121 94.9636 333.792 95.0095 333.481 94.9238C333.17 94.8381 332.9 94.6271 332.724 94.3327C332.548 94.0383 332.479 93.682 332.532 93.3346C332.584 92.9872 332.753 92.6741 333.006 92.4575C333.538 92.0741 346.204 83.1906 359.917 92.4341C360.155 92.5937 360.339 92.8342 360.441 93.1192C360.542 93.4041 360.556 93.7177 360.481 94.0122C360.405 94.3067 360.244 94.566 360.021 94.7504C359.799 94.9348 359.528 95.0343 359.249 95.0337V95.0244Z" fill="#1B3C47"/>
<path d="M319.636 95.0244C319.395 95.0249 319.159 94.9537 318.953 94.8186C306.365 86.5242 294.737 94.4539 294.25 94.7953C293.962 94.9636 293.626 95.0095 293.308 94.9238C292.99 94.8381 292.714 94.6271 292.535 94.3327C292.355 94.0383 292.285 93.682 292.338 93.3346C292.392 92.9872 292.565 92.6741 292.823 92.4575C293.367 92.0741 306.308 83.1906 320.319 92.4341C320.562 92.5937 320.75 92.8342 320.854 93.1192C320.958 93.4041 320.972 93.7177 320.895 94.0122C320.817 94.3067 320.653 94.566 320.425 94.7504C320.198 94.9348 319.921 95.0343 319.636 95.0337V95.0244Z" fill="#1B3C47"/>
<g opacity="0.5">
<path opacity="0.5" d="M366.303 100.499L334.249 123.668V110.474L350.708 98.5839H362.14C362.931 98.5659 363.716 98.7287 364.437 99.0601C365.158 99.3916 365.796 99.8832 366.303 100.499Z" fill="white"/>
<path opacity="0.5" d="M367.127 106.116V113.229L344.47 129.622H339.241C338.085 129.632 336.954 129.278 336.005 128.608L367.127 106.116Z" fill="white"/>
</g>
<path opacity="0.3" d="M361.815 98.7363H337.318C335.002 98.7363 333.124 100.628 333.124 102.96V125.367C333.124 127.7 335.002 129.591 337.318 129.591H361.815C364.132 129.591 366.01 127.7 366.01 125.367V102.96C366.01 100.628 364.132 98.7363 361.815 98.7363Z" fill="white"/>
<path opacity="0.3" d="M315.531 98.7363H291.034C288.717 98.7363 286.84 100.628 286.84 102.96V125.367C286.84 127.7 288.717 129.591 291.034 129.591H315.531C317.848 129.591 319.726 127.7 319.726 125.367V102.96C319.726 100.628 317.848 98.7363 315.531 98.7363Z" fill="white"/>
<path d="M288.736 66.8283C293.422 65.179 297.035 63.2986 297.188 63.592C297.34 63.8854 293.879 66.2148 289.08 67.9041C284.28 69.5934 280.183 69.9313 280.141 69.6379C280.099 69.3445 284.055 68.5043 288.736 66.8283Z" fill="#6AC2D9"/>
<path d="M302.634 59.1375C304.121 57.9831 305.466 57.1892 305.688 57.4356C305.91 57.682 304.9 58.8728 303.39 60.0455C301.879 61.2181 300.454 61.9162 300.26 61.6561C300.067 61.396 301.148 60.3192 302.634 59.1375Z" fill="#6AC2D9"/>
<path d="M310.958 51.5405C313.165 49.6508 315.284 48.5477 315.452 48.7828C315.619 49.018 313.854 50.5187 311.704 52.3614C309.554 54.2041 307.81 55.7262 307.572 55.521C307.333 55.3157 308.742 53.4303 310.958 51.5405Z" fill="#6AC2D9"/>
<path d="M281.99 66.3302C285.655 65.5828 288.549 64.5628 288.663 64.8436C288.777 65.1244 286.039 66.5821 282.226 67.3585C278.413 68.1348 275.255 67.8912 275.269 67.6145C275.282 67.3378 278.33 67.0983 281.99 66.3302Z" fill="#6AC2D9"/>
<path opacity="0.5" d="M326.425 109.583V135.145C326.425 135.145 319.726 131.895 319.726 125.733C319.726 119.57 320.101 110.046 320.101 110.046L325.232 108.644C325.372 108.604 325.52 108.599 325.662 108.628C325.805 108.656 325.94 108.719 326.055 108.809C326.171 108.9 326.264 109.017 326.328 109.152C326.392 109.286 326.425 109.433 326.425 109.583Z" fill="#FCEADE"/>
<path d="M333.063 111.694C332.928 111.693 332.794 111.672 332.665 111.629C325.718 109.331 321 111.543 320.953 111.568C320.801 111.642 320.636 111.684 320.468 111.693C320.3 111.702 320.131 111.678 319.973 111.621C319.814 111.564 319.667 111.477 319.542 111.363C319.417 111.249 319.315 111.111 319.242 110.957C319.169 110.803 319.127 110.637 319.119 110.467C319.11 110.296 319.134 110.126 319.19 109.965C319.246 109.805 319.333 109.657 319.446 109.53C319.558 109.403 319.695 109.3 319.847 109.227C320.077 109.119 325.551 106.544 333.46 109.166C333.749 109.263 333.996 109.46 334.154 109.723C334.313 109.986 334.374 110.297 334.326 110.601C334.278 110.905 334.125 111.182 333.893 111.383C333.662 111.583 333.367 111.693 333.063 111.694Z" fill="#122E4F"/>
<path d="M326.427 136.379C324.799 136.365 323.242 135.716 322.1 134.573C320.958 133.431 320.323 131.889 320.335 130.286C320.335 129.938 320.475 129.604 320.725 129.358C320.975 129.112 321.314 128.974 321.667 128.974C322.02 128.974 322.359 129.112 322.609 129.358C322.859 129.604 322.999 129.938 322.999 130.286C322.982 130.739 323.059 131.19 323.224 131.614C323.388 132.037 323.638 132.424 323.958 132.75C324.277 133.076 324.661 133.336 325.084 133.513C325.508 133.69 325.964 133.782 326.425 133.782C326.885 133.782 327.341 133.69 327.765 133.513C328.189 133.336 328.572 133.076 328.892 132.75C329.212 132.424 329.461 132.037 329.626 131.614C329.791 131.19 329.867 130.739 329.85 130.286C329.85 129.938 329.991 129.604 330.241 129.358C330.49 129.112 330.829 128.974 331.182 128.974C331.536 128.974 331.875 129.112 332.124 129.358C332.374 129.604 332.515 129.938 332.515 130.286C332.526 131.888 331.892 133.429 330.751 134.572C329.61 135.714 328.054 136.364 326.427 136.379Z" fill="#1B3C47"/>
<g opacity="0.3">
<path opacity="0.3" d="M319.719 100.499L287.867 123.668V110.474L304.214 98.5839H315.573C316.362 98.5657 317.144 98.7285 317.862 99.0601C318.58 99.3916 319.215 99.8834 319.719 100.499Z" fill="white"/>
<path opacity="0.3" d="M320.534 106.116V113.229L298.023 129.622H292.846C291.695 129.632 290.57 129.277 289.627 128.608L320.534 106.116Z" fill="white"/>
</g>
<path d="M315.685 130.825H291.485C290.092 130.824 288.756 130.259 287.771 129.255C286.786 128.25 286.232 126.888 286.231 125.467V102.86C286.232 101.439 286.786 100.077 287.771 99.0726C288.756 98.068 290.092 97.5031 291.485 97.502H315.685C317.079 97.5031 318.415 98.0679 319.401 99.0723C320.387 100.077 320.942 101.439 320.944 102.86V125.467C320.942 126.888 320.387 128.251 319.401 129.255C318.415 130.259 317.079 130.824 315.685 130.825ZM291.485 99.6943C290.662 99.6954 289.873 100.029 289.291 100.623C288.709 101.216 288.382 102.021 288.381 102.86V125.467C288.382 126.307 288.709 127.111 289.291 127.705C289.873 128.298 290.662 128.632 291.485 128.633H315.685C316.508 128.632 317.298 128.298 317.881 127.705C318.463 127.111 318.792 126.307 318.794 125.467V102.86C318.792 102.02 318.463 101.216 317.881 100.623C317.298 100.029 316.508 99.6954 315.685 99.6943H291.485Z" fill="#122E4F"/>
<path d="M326.447 77.1376C326.132 77.1376 325.822 77.1376 325.511 77.1159C321.626 76.9473 317.924 75.413 315.049 72.7804C310.098 68.2541 308.006 60.9184 310.305 56.08C310.373 55.918 310.472 55.7715 310.597 55.6492C310.723 55.527 310.872 55.4315 311.035 55.3687C311.198 55.3058 311.372 55.2767 311.547 55.2833C311.721 55.2899 311.893 55.332 312.051 55.407C312.209 55.482 312.35 55.5884 312.466 55.7198C312.582 55.8511 312.67 56.0048 312.725 56.1714C312.781 56.338 312.802 56.5141 312.788 56.6891C312.773 56.8642 312.724 57.0345 312.642 57.1899C311.081 60.5066 312.211 66.6717 316.808 70.8554C319.875 73.6605 326.577 77.3067 337.643 71.289C336.429 69.84 335.699 68.0444 335.556 66.1557C335.435 63.7192 336.478 61.3867 338.652 59.1842L339.678 58.1654L340.576 59.3446C340.61 59.388 344.146 63.9273 351.042 67.3176C359.978 71.7139 370.165 72.2732 381.33 68.9912C380.321 64.5082 375.456 47.6821 358.792 43.4116L354.73 42.3667L370.868 36.4704C366.607 32.8645 361.851 29.8945 356.748 27.652C344.388 22.328 332.791 23.052 322.29 29.8197C322 30.006 321.649 30.0691 321.314 29.9951C320.978 29.9211 320.685 29.7161 320.5 29.4252C320.315 29.1343 320.252 28.7813 320.326 28.4439C320.399 28.1064 320.603 27.8122 320.893 27.626C332.028 20.4723 344.806 19.6703 357.843 25.3065C363.868 27.9281 369.409 31.5545 374.231 36.0325L375.693 37.4763L363.096 42.0502C370.065 44.799 375.762 50.0189 379.709 57.3286C381.81 61.1858 383.296 65.351 384.112 69.6718L384.28 70.7774L383.219 71.1112C367.883 75.9453 356.571 72.9408 349.783 69.5721C345.954 67.6988 342.487 65.1579 339.54 62.0673C338.606 63.1682 338.103 64.5742 338.126 66.0213C338.255 68.653 340.502 70.565 340.524 70.5866L341.951 71.7616L340.369 72.711C335.474 75.6549 330.794 77.1376 326.447 77.1376Z" fill="#1B3C47"/>
<path d="M279.636 73.4353C279.291 73.441 278.958 73.3093 278.71 73.069C278.462 72.8287 278.32 72.4996 278.314 72.154C278.308 71.8084 278.44 71.4747 278.679 71.2262C278.919 70.9778 279.248 70.835 279.592 70.8292C298.371 70.1517 316.625 49.4424 316.807 49.2339C316.917 49.098 317.053 48.9856 317.207 48.9035C317.361 48.8215 317.531 48.7714 317.705 48.7563C317.879 48.7412 318.054 48.7614 318.22 48.8157C318.386 48.87 318.539 48.9572 318.671 49.0722C318.803 49.1873 318.91 49.3277 318.986 49.4851C319.062 49.6426 319.106 49.8138 319.115 49.9886C319.124 50.1634 319.098 50.3382 319.038 50.5026C318.977 50.6669 318.885 50.8175 318.766 50.9452C315.133 54.9484 311.143 58.6093 306.843 61.8819C297.214 69.2439 288.078 73.1312 279.688 73.4353H279.636Z" fill="#1B3C47"/>
<path d="M273.716 58.0077C274.092 57.185 274.571 56.4193 275.14 55.731C275.606 55.1709 276.146 54.6844 276.743 54.2864C277.776 53.6181 278.588 53.5405 278.833 53.8984C279.077 54.2562 278.796 54.9936 278.31 55.9293C278.074 56.3864 277.788 56.9211 277.47 57.5204C277.151 58.1198 276.849 58.7494 276.535 59.4307C276.221 60.112 275.96 60.7846 275.719 61.4013L275.078 63.0916C274.67 64.0747 274.352 64.7733 273.907 64.7948C273.463 64.8164 273.038 64.1049 272.883 62.8329C272.8 62.0922 272.819 61.3427 272.94 60.6078C273.088 59.7084 273.348 58.834 273.716 58.0077Z" fill="white"/>
<path d="M284.225 50.4372C284.96 50.1699 285.737 50.0174 286.523 49.9854C287.19 49.9854 287.724 50.1278 287.951 50.5023C288.177 50.8768 288.04 51.4059 287.575 51.9513C286.96 52.5911 286.191 53.0787 285.334 53.3723C284.477 53.6659 283.558 53.7565 282.656 53.6365C281.934 53.5021 281.469 53.1724 281.375 52.7491C281.28 52.3258 281.614 51.8862 282.127 51.4873C282.761 51.0311 283.47 50.6764 284.225 50.4372Z" fill="white"/>
<path d="M291.811 35.2207C292.683 35.104 293.572 35.2108 294.388 35.5305C295.033 35.8089 295.393 36.2168 295.364 36.6246C295.336 37.0324 294.935 37.3893 294.363 37.652C292.963 38.216 291.427 38.3926 289.928 38.1618C289.307 38.0324 288.837 37.7697 288.702 37.3775C288.568 36.9854 288.821 36.5109 289.38 36.0913C290.095 35.5985 290.934 35.298 291.811 35.2207Z" fill="white"/>
<path d="M362.004 130.825H337.738C336.353 130.824 335.025 130.259 334.046 129.255C333.066 128.25 332.516 126.888 332.515 125.467V102.86C332.516 101.439 333.066 100.077 334.046 99.0726C335.025 98.068 336.353 97.5031 337.738 97.502H362.004C363.389 97.5031 364.717 98.068 365.697 99.0726C366.676 100.077 367.227 101.439 367.228 102.86V125.467C367.227 126.888 366.676 128.25 365.697 129.255C364.717 130.259 363.389 130.824 362.004 130.825ZM337.738 99.6943C336.92 99.6954 336.136 100.029 335.557 100.623C334.979 101.216 334.653 102.021 334.652 102.86V125.467C334.653 126.307 334.979 127.111 335.557 127.705C336.136 128.298 336.92 128.632 337.738 128.633H362.004C362.822 128.632 363.607 128.298 364.185 127.705C364.764 127.111 365.089 126.307 365.09 125.467V102.86C365.089 102.021 364.764 101.216 364.185 100.623C363.607 100.029 362.822 99.6954 362.004 99.6943H337.738Z" fill="#122E4F"/>
<path d="M331.62 153.041H315.539C315.196 153.041 314.867 152.897 314.624 152.641C314.381 152.385 314.245 152.038 314.245 151.677C314.245 151.315 314.381 150.968 314.624 150.712C314.867 150.456 315.196 150.312 315.539 150.312H331.62C333.192 150.317 334.75 149.993 336.202 149.359C337.655 148.725 338.973 147.794 340.082 146.619C340.327 146.378 340.652 146.247 340.987 146.253C341.322 146.259 341.642 146.403 341.88 146.653C342.117 146.903 342.253 147.24 342.258 147.593C342.264 147.947 342.14 148.289 341.911 148.547C340.563 149.976 338.959 151.109 337.193 151.881C335.426 152.652 333.532 153.046 331.62 153.041Z" fill="#1B3C47"/>
<path d="M289.185 112.929C288.89 112.929 288.604 112.831 288.372 112.653L272.067 102.828C271.812 102.613 271.652 102.31 271.62 101.983C271.589 101.656 271.688 101.329 271.898 101.072C272.107 100.814 272.411 100.645 272.745 100.6C273.079 100.554 273.419 100.636 273.692 100.829L289.998 110.653C290.211 110.818 290.366 111.043 290.442 111.297C290.518 111.551 290.51 111.822 290.421 112.072C290.332 112.322 290.165 112.539 289.943 112.693C289.722 112.846 289.457 112.929 289.185 112.929Z" fill="#122E4F"/>
<path d="M363.029 112.929C362.763 112.929 362.503 112.843 362.286 112.684C362.069 112.525 361.906 112.301 361.818 112.042C361.731 111.783 361.723 111.502 361.798 111.239C361.872 110.976 362.024 110.743 362.233 110.573L379.199 100.22C379.467 100.021 379.8 99.9359 380.127 99.9828C380.455 100.03 380.752 100.205 380.958 100.472C381.163 100.738 381.26 101.076 381.229 101.415C381.198 101.754 381.042 102.067 380.792 102.29L363.825 112.643C363.599 112.828 363.318 112.929 363.029 112.929Z" fill="#122E4F"/>
<path d="M326.693 185.747C319.788 185.769 312.949 184.39 306.584 181.694C300.219 178.997 294.458 175.037 289.644 170.051C289.405 169.804 289.272 169.472 289.276 169.127C289.279 168.782 289.419 168.453 289.664 168.212C289.908 167.97 290.238 167.837 290.581 167.841C290.923 167.844 291.25 167.985 291.49 168.231C297.257 174.169 304.412 178.553 312.299 180.981C320.186 183.409 328.552 183.804 336.63 182.129C344.707 180.454 352.238 176.764 358.532 171.395C364.825 166.027 369.679 159.153 372.65 151.405C372.773 151.083 373.018 150.824 373.331 150.684C373.644 150.544 373.999 150.535 374.318 150.659C374.638 150.783 374.895 151.03 375.034 151.346C375.173 151.661 375.182 152.019 375.058 152.34C371.287 162.175 364.649 170.63 356.016 176.593C347.383 182.556 337.161 185.747 326.693 185.747Z" fill="#1B3C47"/>
<g clip-path="url(#clip0)">
<path d="M583.5 411.605H536.781C535.92 411.604 535.091 411.323 534.465 410.819C533.838 410.315 533.461 409.625 533.41 408.892L528.168 329.844H592.113L586.862 408.892C586.816 409.625 586.441 410.316 585.816 410.82C585.19 411.325 584.361 411.606 583.5 411.605Z" fill="#F9F7F7"/>
<path d="M590.748 327.54L585.506 406.58C585.46 407.31 585.089 407.997 584.47 408.501C583.85 409.005 583.028 409.289 582.171 409.293H557.072C578.556 379.334 578.077 333.49 559.106 327.54H590.748Z" fill="#DBCEC8"/>
<path d="M572.22 358.17C575.54 358.17 578.231 355.876 578.231 353.045C578.231 350.214 575.54 347.919 572.22 347.919C568.901 347.919 566.21 350.214 566.21 353.045C566.21 355.876 568.901 358.17 572.22 358.17Z" fill="#DBCEC8"/>
<path d="M561.51 351.047C562.993 351.047 564.194 350.022 564.194 348.758C564.194 347.494 562.993 346.469 561.51 346.469C560.028 346.469 558.826 347.494 558.826 348.758C558.826 350.022 560.028 351.047 561.51 351.047Z" fill="#DBCEC8"/>
<path d="M587.449 383.674H532.226L530.807 362.494H588.859L587.449 383.674Z" fill="#637582"/>
<path d="M538.498 384.252H533.211L531.268 363.064H536.546L538.498 384.252Z" fill="#81919B"/>
<path d="M588.209 362.879L586.799 384.075H569.192C571.283 377.137 572.531 370.035 572.916 362.879H588.209Z" fill="#455760"/>
<path d="M530.654 362.871H590.731" stroke="#3E3127" stroke-width="3" stroke-miterlimit="10"/>
<path d="M530.654 384.059H588.408" stroke="#3E3127" stroke-width="3" stroke-miterlimit="10"/>
<path d="M583.274 409.509H536.556C535.694 409.509 534.865 409.228 534.239 408.723C533.612 408.219 533.235 407.53 533.184 406.796L527.942 327.725H591.888L586.636 406.773C586.597 407.511 586.225 408.207 585.599 408.716C584.973 409.226 584.14 409.51 583.274 409.509V409.509Z" stroke="#3E3127" stroke-width="5" stroke-miterlimit="10"/>
<path d="M534.712 319.678L536.339 312.51C536.576 311.453 537.258 310.506 538.257 309.848C539.256 309.189 540.502 308.864 541.762 308.934L580.445 310.946C581.763 311.016 582.999 311.512 583.902 312.333C584.805 313.153 585.308 314.237 585.308 315.362V320.449" fill="#455760"/>
<path d="M534.938 319.678L536.565 312.51C536.802 311.453 537.484 310.506 538.483 309.848C539.482 309.189 540.728 308.864 541.988 308.934L580.671 310.946C581.988 311.016 583.225 311.512 584.128 312.333C585.031 313.153 585.534 314.237 585.534 315.362V320.449" stroke="#3E3127" stroke-width="5" stroke-miterlimit="10"/>
<path d="M595.919 329.112H522.863C522.623 329.112 522.393 329.031 522.223 328.886C522.054 328.742 521.959 328.546 521.959 328.341V327.139C521.959 324.534 523.172 322.036 525.331 320.193C527.49 318.35 530.419 317.314 533.473 317.312H585.308C588.364 317.312 591.295 318.347 593.456 320.19C595.617 322.033 596.831 324.533 596.831 327.139V328.341C596.831 328.443 596.808 328.544 596.762 328.638C596.716 328.732 596.648 328.818 596.564 328.889C596.479 328.961 596.378 329.017 596.267 329.056C596.157 329.094 596.038 329.113 595.919 329.112Z" fill="#637582"/>
<path d="M594.508 323.401C592.665 322.39 590.518 321.855 588.326 321.86H536.483C533.633 321.864 530.885 322.768 528.771 324.398C526.656 326.028 525.324 328.267 525.032 330.685H522.374C522.135 330.685 521.905 330.604 521.735 330.459C521.566 330.315 521.47 330.119 521.47 329.914V328.704C521.47 327.414 521.769 326.136 522.348 324.945C522.927 323.753 523.776 322.67 524.846 321.758C525.916 320.846 527.187 320.123 528.585 319.63C529.983 319.137 531.481 318.884 532.994 318.885H584.828C586.757 318.884 588.654 319.298 590.346 320.087C592.038 320.876 593.469 322.016 594.508 323.401Z" fill="#81919B"/>
<path d="M596.443 329.56H523.423C523.183 329.56 522.953 329.479 522.784 329.334C522.614 329.19 522.519 328.994 522.519 328.789V327.579C522.531 324.986 523.744 322.502 525.894 320.669C528.044 318.835 530.957 317.801 533.998 317.791H585.832C588.879 317.791 591.803 318.821 593.961 320.656C596.12 322.49 597.337 324.98 597.347 327.579V328.789C597.347 328.994 597.251 329.19 597.082 329.334C596.912 329.479 596.682 329.56 596.443 329.56Z" stroke="#3E3127" stroke-width="5" stroke-miterlimit="10"/>
<path d="M533.871 325.305C535.149 325.305 536.185 324.422 536.185 323.332C536.185 322.242 535.149 321.359 533.871 321.359C532.593 321.359 531.557 322.242 531.557 323.332C531.557 324.422 532.593 325.305 533.871 325.305Z" fill="#81919B"/>
<path d="M538.698 326.029C539.461 326.029 540.08 325.501 540.08 324.85C540.08 324.199 539.461 323.671 538.698 323.671C537.934 323.671 537.315 324.199 537.315 324.85C537.315 325.501 537.934 326.029 538.698 326.029Z" fill="#81919B"/>
<path d="M565.062 377.839C563.01 379.08 559.693 378.996 556.828 377.462C553.294 375.566 551.785 372.174 553.475 369.893C553.516 369.827 553.564 369.765 553.62 369.708C553.789 370.123 554.023 370.517 554.316 370.88C554.882 371.598 555.628 372.2 556.5 372.642C557.372 373.085 558.349 373.357 559.359 373.438C560.025 373.471 560.685 373.561 561.329 373.708C562.445 374.139 563.343 374.897 563.86 375.843C564.303 376.521 564.673 377.215 565.062 377.839Z" fill="#919FA8"/>
<path d="M566.734 376.267C566.657 376.376 566.57 376.479 566.472 376.575C566.207 375.967 565.905 375.37 565.568 374.787C565.255 374.213 564.854 373.676 564.375 373.192C563.818 372.628 563.099 372.197 562.287 371.943C561.528 371.758 560.745 371.651 559.956 371.627C559.338 371.599 558.729 371.493 558.148 371.311C557.176 370.989 556.306 370.477 555.608 369.816C555.252 369.457 554.938 369.07 554.668 368.66C556.657 367.118 560.281 367.041 563.381 368.706C566.915 370.587 568.415 373.978 566.734 376.267Z" fill="#919FA8"/>
<path d="M591.752 407.451H524.661C521.981 407.451 519.808 409.304 519.808 411.59V413.941C519.808 416.227 521.981 418.08 524.661 418.08H591.752C594.432 418.08 596.605 416.227 596.605 413.941V411.59C596.605 409.304 594.432 407.451 591.752 407.451Z" fill="#B7DBEB"/>
<path d="M595.928 413.733C595.202 413.481 594.425 413.352 593.641 413.355H529.316C527.664 413.351 526.078 413.905 524.905 414.897C524.328 415.389 523.87 415.975 523.56 416.619C523.25 417.263 523.093 417.954 523.098 418.65C523.094 419.321 523.245 419.986 523.54 420.608C522.191 420.154 521.07 419.314 520.37 418.23C519.67 417.147 519.435 415.89 519.706 414.675C519.977 413.46 520.737 412.364 521.855 411.576C522.972 410.787 524.377 410.356 525.827 410.357H590.143C591.394 410.358 592.614 410.681 593.646 411.284C594.678 411.886 595.473 412.739 595.928 413.733Z" fill="#EFF7F9"/>
<path d="M590.821 408.607H526.496C523.052 408.607 520.26 410.987 520.26 413.922C520.26 416.857 523.052 419.236 526.496 419.236H590.821C594.265 419.236 597.057 416.857 597.057 413.922C597.057 410.987 594.265 408.607 590.821 408.607Z" stroke="#3E3127" stroke-width="5" stroke-miterlimit="10"/>
</g>
<rect x="401" y="3" width="319" height="134" rx="28" fill="#F9F7F7"/>
<path d="M396.081 145.839C392.324 146.676 389.07 143.132 390.224 139.46L400.867 105.586C402.021 101.914 406.717 100.868 409.32 103.703L433.335 129.857C435.938 132.693 434.496 137.283 430.739 138.119L396.081 145.839Z" fill="#F9F7F7"/>
<path d="M450.437 48.7987H455.596C455.081 44.5969 451.333 41.6207 446.451 41.6207C440.818 41.6207 436.369 45.5856 436.369 52.4854C436.369 59.1587 440.468 63.2884 446.513 63.2884C451.94 63.2884 455.823 59.9208 455.823 54.2567V51.4659H446.729V55.1836H450.91C450.859 57.408 449.314 58.8189 446.554 58.8189C443.393 58.8189 441.57 56.4812 441.57 52.4237C441.57 48.397 443.496 46.0902 446.554 46.0902C448.593 46.0902 449.984 47.0891 450.437 48.7987ZM459.697 63H464.733V54.4112C464.733 52.5266 466.072 51.2599 467.874 51.2599C468.471 51.2599 469.367 51.3629 469.851 51.5277V47.1509C469.429 47.0376 468.904 46.9656 468.44 46.9656C466.71 46.9656 465.33 47.9748 464.754 50.0653H464.589V47.1818H459.697V63ZM479.346 63.2987C483.496 63.2987 486.225 61.2905 486.802 58.1804L482.178 58.0465C481.787 59.0969 480.757 59.6634 479.439 59.6634C477.503 59.6634 476.308 58.3761 476.308 56.44V56.3061H486.854V55.0497C486.854 49.8388 483.682 46.9759 479.192 46.9759C474.413 46.9759 471.344 50.2507 471.344 55.1527C471.344 60.2195 474.372 63.2987 479.346 63.2987ZM476.308 53.3814C476.38 51.8058 477.626 50.6112 479.295 50.6112C480.953 50.6112 482.147 51.7646 482.168 53.3814H476.308ZM497.69 63.2987C501.84 63.2987 504.569 61.2905 505.146 58.1804L500.522 58.0465C500.13 59.0969 499.101 59.6634 497.782 59.6634C495.846 59.6634 494.652 58.3761 494.652 56.44V56.3061H505.197V55.0497C505.197 49.8388 502.025 46.9759 497.535 46.9759C492.757 46.9759 489.688 50.2507 489.688 55.1527C489.688 60.2195 492.716 63.2987 497.69 63.2987ZM494.652 53.3814C494.724 51.8058 495.97 50.6112 497.638 50.6112C499.296 50.6112 500.491 51.7646 500.512 53.3814H494.652ZM517.568 47.1818H514.715V43.392H509.679V47.1818H507.589V50.8892H509.679V58.582C509.648 61.7848 511.729 63.3913 515.282 63.2266C516.497 63.1648 517.372 62.9176 517.856 62.7734L517.094 59.1381C516.878 59.1896 516.373 59.2926 515.992 59.2926C515.179 59.2926 514.715 58.9631 514.715 58.0259V50.8892H517.568V47.1818ZM521.007 63H526.043V47.1818H521.007V63ZM523.53 45.3384C524.962 45.3384 526.115 44.2571 526.115 42.9286C526.115 41.6001 524.962 40.5291 523.53 40.5291C522.109 40.5291 520.945 41.6001 520.945 42.9286C520.945 44.2571 522.109 45.3384 523.53 45.3384ZM535.154 53.9787C535.165 52.1765 536.215 51.1055 537.811 51.1055C539.408 51.1055 540.355 52.1559 540.345 53.9066V63H545.381V52.918C545.391 49.3548 543.218 46.9759 539.892 46.9759C537.554 46.9759 535.783 48.1602 535.082 50.0859H534.907V47.1818H530.118V63H535.154V53.9787ZM556.742 69.2614C561.51 69.2614 564.764 67.0884 564.764 63.0618V47.1818H559.749V49.8903H559.605C558.997 48.4382 557.617 46.9759 555.125 46.9759C551.819 46.9759 548.823 49.5195 548.823 55.0703C548.823 60.446 551.675 62.7837 555.146 62.7837C557.473 62.7837 559.028 61.7024 559.625 60.2401H559.801V63.0206C559.801 65.0391 558.565 65.7702 556.876 65.7702C555.259 65.7702 554.291 65.1523 554.023 64.174L549.255 64.4418C549.626 67.212 552.231 69.2614 556.742 69.2614ZM556.896 59.1175C555.032 59.1175 553.992 57.6037 553.992 55.0703C553.992 52.5472 555.022 50.9098 556.896 50.9098C558.74 50.9098 559.811 52.506 559.811 55.0703C559.811 57.614 558.73 59.1175 556.896 59.1175ZM582.655 52.0117C582.387 48.881 579.823 46.9759 575.539 46.9759C571.255 46.9759 568.526 48.8398 568.546 52.0117C568.526 54.4421 570.081 56.0075 573.242 56.5945L576.002 57.1197C577.31 57.3771 577.907 57.7891 577.928 58.4893C577.907 59.2823 577.022 59.8075 575.734 59.8075C574.303 59.8075 573.335 59.1896 573.119 58.0362L568.145 58.1598C568.505 61.2905 571.193 63.2987 575.714 63.2987C579.946 63.2987 583.026 61.1875 583.046 57.9332C583.026 55.6264 581.501 54.2567 578.35 53.6491L575.302 53.0724C573.963 52.8047 573.531 52.331 573.541 51.7234C573.531 50.9201 574.468 50.4258 575.631 50.4258C576.96 50.4258 577.887 51.1364 578.031 52.1353L582.655 52.0117ZM600.88 63.2987C605.854 63.2987 608.871 60.0135 608.871 55.1424C608.871 50.261 605.854 46.9759 600.88 46.9759C595.906 46.9759 592.888 50.261 592.888 55.1424C592.888 60.0135 595.906 63.2987 600.88 63.2987ZM600.911 59.4986C599.047 59.4986 598.017 57.7273 598.017 55.1115C598.017 52.4854 599.047 50.7038 600.911 50.7038C602.713 50.7038 603.743 52.4854 603.743 55.1115C603.743 57.7273 602.713 59.4986 600.911 59.4986ZM621.311 47.1818H618.294V46.2962C618.294 45.3899 618.665 44.8338 619.839 44.8338C620.313 44.8338 620.889 44.9368 621.26 45.0501L622.063 41.3633C621.466 41.1985 620.096 40.9205 618.706 40.9205C615.483 40.9205 613.268 42.7124 613.268 46.3786V47.1818H611.137V50.8892H613.268V63H618.294V50.8892H621.311V47.1818ZM640.633 47.1818H637.781V43.392H632.745V47.1818H630.654V50.8892H632.745V58.582C632.714 61.7848 634.794 63.3913 638.347 63.2266C639.562 63.1648 640.438 62.9176 640.922 62.7734L640.159 59.1381C639.943 59.1896 639.439 59.2926 639.058 59.2926C638.244 59.2926 637.781 58.9631 637.781 58.0259V50.8892H640.633V47.1818ZM649.448 53.9787C649.459 52.1765 650.53 51.1055 652.126 51.1055C653.743 51.1055 654.68 52.1456 654.67 53.9066V63H659.705V52.918C659.716 49.3342 657.532 46.9759 654.206 46.9759C651.838 46.9759 650.169 48.1396 649.459 50.0859H649.284V41.9091H644.412V63H649.448V53.9787ZM671.113 63.2987C675.263 63.2987 677.992 61.2905 678.569 58.1804L673.945 58.0465C673.554 59.0969 672.524 59.6634 671.206 59.6634C669.27 59.6634 668.075 58.3761 668.075 56.44V56.3061H678.621V55.0497C678.621 49.8388 675.449 46.9759 670.959 46.9759C666.18 46.9759 663.111 50.2507 663.111 55.1527C663.111 60.2195 666.139 63.2987 671.113 63.2987ZM668.075 53.3814C668.147 51.8058 669.393 50.6112 671.062 50.6112C672.72 50.6112 673.914 51.7646 673.935 53.3814H668.075ZM445.524 82.1818H442.672V78.392H437.636V82.1818H435.545V85.8892H437.636V93.582C437.605 96.7848 439.685 98.3913 443.238 98.2266C444.453 98.1648 445.329 97.9176 445.813 97.7734L445.051 94.1381C444.834 94.1896 444.33 94.2926 443.949 94.2926C443.135 94.2926 442.672 93.9631 442.672 93.0259V85.8892H445.524V82.1818ZM448.964 98H454V82.1818H448.964V98ZM451.487 80.3384C452.918 80.3384 454.072 79.2571 454.072 77.9286C454.072 76.6001 452.918 75.5291 451.487 75.5291C450.066 75.5291 448.902 76.6001 448.902 77.9286C448.902 79.2571 450.066 80.3384 451.487 80.3384ZM458.075 98H463.111V88.6388C463.111 87.0735 464.027 86.0746 465.346 86.0746C466.653 86.0746 467.519 86.9911 467.519 88.4535V98H472.359V88.5565C472.359 87.0426 473.193 86.0746 474.583 86.0746C475.86 86.0746 476.766 86.9293 476.766 88.505V98H481.802V87.3516C481.802 84.0046 479.743 81.9759 476.756 81.9759C474.418 81.9759 472.575 83.2013 471.988 85.0859H471.823C471.401 83.1911 469.702 81.9759 467.508 81.9759C465.346 81.9759 463.698 83.1602 463.039 85.0859H462.864V82.1818H458.075V98ZM493.187 98.2987C497.337 98.2987 500.066 96.2905 500.643 93.1804L496.019 93.0465C495.628 94.0969 494.598 94.6634 493.28 94.6634C491.343 94.6634 490.149 93.3761 490.149 91.44V91.3061H500.694V90.0497C500.694 84.8388 497.522 81.9759 493.032 81.9759C488.254 81.9759 485.185 85.2507 485.185 90.1527C485.185 95.2195 488.213 98.2987 493.187 98.2987ZM490.149 88.3814C490.221 86.8058 491.467 85.6112 493.135 85.6112C494.793 85.6112 495.988 86.7646 496.009 88.3814H490.149ZM517.158 76.9091H511.978L512.452 91.543H516.685L517.158 76.9091ZM514.573 98.2987C515.984 98.2987 517.23 97.104 517.251 95.6211C517.23 94.1587 515.984 92.9744 514.573 92.9744C513.09 92.9744 511.875 94.1587 511.896 95.6211C511.875 97.104 513.09 98.2987 514.573 98.2987Z" fill="black"/>
<defs>
<clipPath id="clip0">
<rect width="81.6062" height="114.163" fill="white" transform="translate(518 307)"/>
</clipPath>
</defs>
</svg>
