<svg width="87" height="87" viewBox="0 0 87 87" fill="none" xmlns="http://www.w3.org/2000/svg">
<path fill-rule="evenodd" clip-rule="evenodd" d="M59.3086 68.0633C59.4235 67.8424 59.5336 67.6473 59.6274 67.4454C59.6865 67.3163 59.7776 67.2905 59.9061 67.2939C60.6762 67.3156 61.4462 67.3394 62.217 67.3469C62.8715 67.3537 63.5274 67.3414 64.1827 67.334C64.9208 67.3251 65.6589 67.2864 66.3964 67.3075C67.3785 67.336 68.3355 67.5284 69.2239 67.9654C70.2849 68.4881 71.0876 69.284 71.6348 70.3327C71.9841 71.0022 72.1867 71.7125 72.2675 72.467C72.3844 73.5599 72.3076 74.6277 71.961 75.673C71.5314 76.9685 70.7158 77.9602 69.5828 78.7031C68.7107 79.2747 67.7544 79.6125 66.7294 79.8055C65.6447 80.0101 64.5565 79.9442 63.4683 79.9476C62.2748 79.9524 61.0819 79.9265 59.8884 79.9129C59.6797 79.9109 59.6498 79.8715 59.7049 79.6723L59.7559 79.4888C59.8721 79.1231 59.9346 79.1068 60.3057 79.0457C60.5626 79.0042 60.8291 78.9077 61.0445 78.7649C61.1696 78.682 61.2213 78.4659 61.2702 78.2994C61.3123 78.1539 61.3144 77.9942 61.3157 77.8406C61.3327 75.5126 61.3504 73.1854 61.3599 70.8588C61.362 70.2709 61.3484 69.6816 61.3157 69.0944C61.2926 68.6831 61.0731 68.4018 60.5837 68.3046C60.2031 68.2291 59.8197 68.1707 59.4371 68.1034L59.3086 68.0633ZM70.2353 73.6999C70.1836 73.2364 70.1585 72.7687 70.0755 72.312C69.8771 71.2157 69.3972 70.2607 68.5544 69.5124C67.1916 68.3032 65.5509 68.117 63.8313 68.2611C63.4398 68.2937 63.3555 68.4276 63.3494 68.83C63.3398 69.4009 63.3303 69.9718 63.3297 70.5428C63.3269 72.3535 63.3269 74.1641 63.3297 75.9748C63.3303 76.49 63.3358 77.0052 63.3507 77.5191C63.367 78.0452 63.558 78.4904 64.0732 78.6943C64.8855 79.0158 65.7398 79.0538 66.5922 78.9226C67.9536 78.714 68.9058 77.9208 69.5447 76.732C70.0504 75.7886 70.1931 74.7589 70.2353 73.6999ZM73.5447 79.8654C73.5284 79.5833 73.6439 79.3502 73.7866 79.1361C73.8254 79.0783 73.9586 79.081 74.0504 79.0626L74.8293 78.9084C75.1046 78.8499 75.2493 78.665 75.2881 78.3952C75.3139 78.2171 75.3384 78.037 75.3404 77.8569C75.3574 76.4316 75.3737 75.0063 75.3805 73.581C75.3873 72.1536 75.3819 70.7263 75.3819 69.2989L75.3758 69.0264C75.3479 68.5676 75.1263 68.3297 74.6709 68.2624L73.6833 68.1122C73.5617 68.0959 73.5175 68.0374 73.5617 67.9294C73.6378 67.7452 73.7105 67.5542 73.8179 67.3883C73.858 67.3272 73.9933 67.3034 74.0843 67.3054C74.556 67.3122 75.0278 67.3476 75.4995 67.3469L79.6054 67.3224C80.3966 67.3217 81.1606 67.4597 81.8702 67.8383C82.6511 68.2543 83.0882 68.8979 83.2132 69.7747C83.3437 70.6957 83.0644 71.4719 82.3915 72.0884C82.1149 72.3426 81.7567 72.5084 81.4358 72.715L81.3312 72.7803C81.6289 72.8897 81.9123 72.9842 82.1883 73.097C82.9957 73.428 83.638 73.9453 83.9779 74.7711C84.2464 75.4229 84.2463 76.1026 84.0873 76.7782C83.8399 77.8358 83.1432 78.5393 82.2372 79.0715C81.3869 79.5711 80.4666 79.862 79.4865 79.9109C78.5825 79.9564 77.6745 79.9394 76.7684 79.9496L76.2437 79.9524C75.371 79.9326 74.4976 79.9102 73.6242 79.8871L73.5447 79.8654ZM77.3081 75.7267H77.3169C77.3169 76.174 77.3108 76.6212 77.319 77.0684C77.3244 77.358 77.3142 77.6557 77.3768 77.9344C77.4705 78.351 77.6609 78.7269 78.1285 78.8465C78.7599 79.009 79.4049 79.0416 80.0438 78.9308C80.8438 78.7915 81.4821 78.3904 81.8321 77.6285C82.0917 77.0623 82.1305 76.4622 82.0414 75.8491C81.9232 75.0416 81.4943 74.4557 80.7813 74.0717C80.3137 73.8195 79.8148 73.6653 79.2833 73.6449C78.6879 73.6224 78.0918 73.6211 77.4964 73.6027C77.3292 73.598 77.3061 73.6829 77.3067 73.8202C77.3101 74.455 77.3081 75.0906 77.3081 75.7267ZM78.5757 72.6851C78.9013 72.6688 79.2697 72.6641 79.636 72.6274C80.3375 72.5574 80.8316 72.2046 81.0892 71.5338C81.2204 71.1932 81.2149 70.8425 81.2183 70.4884C81.2285 69.5661 80.6902 68.8102 79.8141 68.4976C79.1378 68.2563 78.4405 68.2522 77.739 68.2713C77.4549 68.2787 77.3278 68.4031 77.3237 68.6893L77.2816 72.4201C77.2796 72.5682 77.3434 72.6321 77.4875 72.6369L78.5757 72.6851Z" fill="#94795D"/>
<path fill-rule="evenodd" clip-rule="evenodd" d="M7.16583 79.1482L7.11621 79.7898C6.65402 79.7898 6.22786 79.7864 5.80169 79.7912C4.99898 79.7993 4.19627 79.8123 3.39288 79.8238L3.3154 79.8286C3.20053 79.815 2.99186 79.815 2.98643 79.781C2.95244 79.59 2.96332 79.3895 2.97215 79.1917C2.97283 79.1693 3.051 79.1407 3.09654 79.1298L3.72117 78.9905C4.11063 78.8892 4.24793 78.7213 4.26628 78.319C4.28735 77.8656 4.30842 77.4116 4.31046 76.9582C4.31658 75.8422 4.30978 74.7275 4.31454 73.6115C4.31522 73.3505 4.22482 73.1561 3.98149 73.05C3.69194 72.9223 3.40104 72.7972 3.10809 72.6789C2.96943 72.6232 2.78932 72.5926 2.80563 72.4064C2.82194 72.2167 2.99662 72.1671 3.16111 72.1297C3.84215 71.9741 4.52388 71.8225 5.20289 71.6567C5.42175 71.603 5.63109 71.5126 5.89277 71.4215C5.90636 71.5629 5.93151 71.6975 5.92879 71.832L5.88869 72.4716C5.88801 72.5437 5.9254 72.6402 5.97909 72.6803C6.01172 72.7054 6.12115 72.6599 6.17552 72.6178C6.75597 72.176 7.37041 71.7947 8.07117 71.5724C9.15663 71.2278 10.0885 71.5472 10.741 72.4832C10.9707 72.8128 10.9714 72.8128 11.2902 72.5824C11.8373 72.1848 12.4096 71.8341 13.0499 71.603C14.4555 71.0953 15.806 71.7396 16.2947 73.1554C16.4728 73.6692 16.5408 74.2001 16.5394 74.7425L16.5265 78.3434C16.5258 78.6405 16.6244 78.8097 16.9071 78.9021C17.2245 79.0061 17.5535 79.0775 17.911 79.1713L17.8281 79.7905C17.4216 79.7905 17.0478 79.7878 16.674 79.7912C15.7605 79.7993 14.847 79.8041 13.9342 79.8252C13.7751 79.8292 13.7336 79.7898 13.7255 79.641C13.699 79.1645 13.6949 79.1652 14.1435 79.0578L14.2944 79.0191C14.7328 78.8994 14.8789 78.7649 14.8823 78.3203C14.8925 77.0439 14.919 75.764 14.8545 74.4903C14.7872 73.169 13.7384 72.4655 12.4579 72.804C12.0399 72.9141 11.6613 73.1071 11.3092 73.3573C11.1903 73.4422 11.1678 73.5401 11.1773 73.6889C11.2134 74.2517 11.2358 74.8152 11.2406 75.3786C11.2487 76.3649 11.2365 77.3511 11.2406 78.338C11.2419 78.7377 11.3785 78.8906 11.7734 78.983L12.36 79.1183L12.4687 79.1428C12.4769 79.3304 12.4844 79.5179 12.4755 79.7055C12.4701 79.8231 12.379 79.8333 12.2771 79.8313C11.7068 79.817 11.1359 79.798 10.5656 79.7993C9.87166 79.8007 9.17838 79.8204 8.4851 79.8326H8.32197C8.32197 79.6335 8.31246 79.4432 8.32877 79.2535C8.33217 79.208 8.41237 79.1441 8.46743 79.1298L9.15119 78.9851C9.44142 78.9137 9.58008 78.7648 9.59639 78.4699C9.67387 77.1037 9.72961 75.7368 9.60115 74.3714C9.576 74.1063 9.48968 73.8371 9.37957 73.5931C9.02953 72.8196 8.24177 72.4968 7.33303 72.7292C6.90143 72.8393 6.51197 73.0371 6.14358 73.2866C5.96958 73.4048 5.88665 73.5612 5.88665 73.759C5.88665 75.1217 5.89141 76.4845 5.89549 77.8466L5.90297 78.372C5.91112 78.7383 6.06677 78.9314 6.4304 79.0102C6.66422 79.0632 6.90075 79.0993 7.16583 79.1482Z" fill="#50382B"/>
<path fill-rule="evenodd" clip-rule="evenodd" d="M48.2587 71.561C48.3641 72.0735 48.362 72.5343 47.9855 72.8837C47.6116 73.231 47.1386 73.1141 46.6771 73.0366C46.7199 73.2799 46.7675 73.4865 46.7906 73.6959C46.9585 75.2517 46.289 76.4065 44.846 77.0664C44.3009 77.3152 43.7225 77.4076 43.1318 77.4552C42.8382 77.4783 42.5813 77.7026 42.5534 77.9439C42.5249 78.1886 42.6785 78.4401 42.9857 78.5135C43.348 78.5998 43.7259 78.6243 44.0977 78.6671C44.8956 78.7582 45.7024 78.7996 46.4908 78.9424C47.683 79.1572 48.3484 80.1978 48.1384 81.3954C47.9515 82.4611 47.3343 83.2366 46.4738 83.8314C45.0241 84.8359 43.4336 85.1296 41.7398 84.6171C40.7713 84.3235 40.0882 83.6866 39.8523 82.6562C39.7341 82.1403 39.8598 81.6734 40.2479 81.3233C40.7094 80.9087 41.2117 80.539 41.695 80.1475L41.8513 79.9905L41.6719 79.8647C41.1791 79.6309 40.7849 79.3108 40.6319 78.7548C40.5796 78.5665 40.634 78.4428 40.7937 78.3463C41.0656 78.1825 41.3361 78.016 41.6046 77.8467C41.731 77.7679 41.8561 77.6863 41.9736 77.5952C42.134 77.4729 42.1198 77.3818 41.9281 77.3111C41.4822 77.1467 41.086 76.9081 40.7787 76.541C40.2656 75.9287 40.1201 75.1993 40.1623 74.4293C40.2282 73.2262 40.8814 72.4337 41.9431 71.9239C43.2052 71.3183 44.4715 71.2803 45.7581 71.8322C46.2339 72.0361 46.7355 72.0796 47.246 72.0442C47.6273 72.0171 47.9603 71.873 48.2587 71.561ZM43.6076 80.1801C42.6601 80.1719 42.3631 80.2888 41.8071 80.855C41.1845 81.4898 41.1879 82.37 41.8092 83.0076C42.2809 83.4908 42.8695 83.7172 43.524 83.7851C44.2887 83.864 45.0417 83.8321 45.7364 83.4494C46.4772 83.0395 46.8456 82.2783 46.6791 81.5116C46.5411 80.8788 46.0749 80.5893 45.5073 80.4227C44.8616 80.2338 44.1942 80.1978 43.6076 80.1801ZM41.7466 74.1254C41.7813 74.3885 41.7956 74.6549 41.854 74.9125C42.0056 75.58 42.2958 76.1665 42.9599 76.4636C43.7395 76.8136 44.7352 76.6634 45.0764 75.5691C45.3102 74.8194 45.2817 74.0751 44.9996 73.3438C44.8739 73.0176 44.6713 72.7416 44.3811 72.5391C43.7041 72.0667 42.4827 72.0041 41.9852 73.0481C41.8234 73.3873 41.7602 73.7482 41.7466 74.1254Z" fill="#4F382B"/>
<path fill-rule="evenodd" clip-rule="evenodd" d="M32.183 71.3929C32.2081 71.5092 32.2584 71.641 32.2598 71.7736C32.2618 72.0257 32.2347 72.2779 32.2204 72.53V72.7489L32.4338 72.5858C33.0183 72.1046 33.6464 71.6947 34.3777 71.4738C35.6977 71.0762 37.0163 71.7987 37.4465 73.1431C37.6096 73.6543 37.6742 74.1797 37.6803 74.7139C37.6939 75.9006 37.7021 77.0874 37.7143 78.2741C37.7184 78.7003 37.7673 78.7764 38.1704 78.8994C38.3987 78.9694 38.6346 79.0184 38.8704 79.0551C39.0003 79.0754 39.056 79.1264 39.0492 79.2535L39.0506 79.3704C39.0458 79.8618 39.0118 79.8843 38.5354 79.8829C37.3948 79.8809 36.255 79.8877 35.1145 79.8972C34.7746 79.8999 34.774 79.9101 34.74 79.5743L34.7332 79.3813C34.7543 79.0918 34.7611 79.0945 35.0458 79.0523C35.2375 79.0238 35.4278 78.9796 35.6147 78.9307C35.8071 78.8811 35.8995 78.739 35.9254 78.5487C35.9383 78.4522 35.9553 78.3557 35.9546 78.2591C35.9383 76.9623 35.9593 75.6641 35.8887 74.3693C35.8316 73.3219 35.0322 72.6979 33.9808 72.7693C33.4649 72.8053 32.9986 72.9773 32.5731 73.2743C32.2924 73.4707 32.236 73.7542 32.2374 74.0593C32.2428 75.2719 32.2544 76.4845 32.2673 77.6977C32.27 77.9635 32.2775 78.2292 32.3026 78.493C32.3291 78.7811 32.4304 78.8974 32.7132 78.9599C32.9837 79.0197 33.2596 79.0544 33.5485 79.1026L33.573 79.3256C33.5825 79.8455 33.5281 79.8843 33.0231 79.8822C31.8438 79.8775 30.6646 79.885 29.486 79.8979C29.3004 79.9006 29.2216 79.8421 29.2264 79.6613L29.2236 79.5839C29.193 79.1155 29.2066 79.0979 29.6498 79.0218L29.8591 78.9796C30.339 78.8715 30.462 78.7438 30.4688 78.2564C30.4913 76.7129 30.4994 75.17 30.515 73.6264C30.5171 73.4048 30.4335 73.2328 30.2269 73.1411C29.9373 73.0133 29.645 72.8916 29.3521 72.7713C29.1903 72.7047 29.0055 72.6626 28.9993 72.439C28.9953 72.2813 29.1638 72.1419 29.3942 72.095C29.8571 72.0013 30.324 71.9231 30.7815 71.8082C31.2369 71.6947 31.6841 71.5425 32.183 71.3929Z" fill="#4F372B"/>
<path fill-rule="evenodd" clip-rule="evenodd" d="M57.6816 75.4249C57.6598 76.8665 57.2853 78.0322 56.2658 78.9069C54.9744 80.0169 52.9598 80.3941 51.3129 79.5642C50.6101 79.2101 50.0935 78.667 49.7571 77.9622C49.2412 76.8781 49.1121 75.7382 49.3812 74.5705C49.6477 73.4157 50.3471 72.579 51.3938 72.0373C52.4704 71.4807 53.6041 71.2632 54.7997 71.5554C56.312 71.9245 57.3988 73.1575 57.615 74.7275C57.6537 75.0028 57.6686 75.2815 57.6816 75.4249ZM55.93 76.2059L55.8716 76.1991C55.8716 76.0631 55.879 75.9272 55.8702 75.7912C55.8206 74.9444 55.6303 74.1376 55.1395 73.4286C54.6739 72.7571 54.0398 72.3609 53.2147 72.3031C52.291 72.2378 51.5148 72.7544 51.2422 73.6978C50.833 75.1143 50.9717 76.4947 51.6908 77.7922C52.0041 78.3577 52.4684 78.7751 53.0903 78.9946C54.309 79.4235 55.3897 78.8682 55.7071 77.6203C55.824 77.1595 55.858 76.6776 55.93 76.2059Z" fill="#4F382B"/>
<path fill-rule="evenodd" clip-rule="evenodd" d="M27.7442 75.5365C27.7191 76.5709 27.4751 77.5273 26.8362 78.3585C26.1517 79.2489 25.211 79.7247 24.1412 79.9252C22.8763 80.1617 21.6882 79.9469 20.6721 79.098C20.1895 78.6943 19.8599 78.177 19.6424 77.5884C19.2855 76.6233 19.1965 75.6343 19.416 74.6264C19.6505 73.5477 20.2595 72.7232 21.2036 72.17C22.2952 71.5317 23.4731 71.247 24.7312 71.5338C26.3488 71.9035 27.2827 72.9577 27.628 74.5536C27.6973 74.8758 27.7068 75.2089 27.7442 75.5365ZM25.973 76.2189L25.9261 76.2121V76.0177C25.8996 75.0688 25.714 74.1649 25.1478 73.3764C24.7285 72.7912 24.167 72.4242 23.4472 72.3215C22.2741 72.1543 21.5074 72.8503 21.2532 73.7958C20.9215 75.0308 21.0255 76.2508 21.5387 77.4219C21.8588 78.1519 22.3645 78.7208 23.1414 78.9967C24.3526 79.427 25.4496 78.8574 25.7561 77.6143C25.869 77.1596 25.903 76.6851 25.973 76.2189Z" fill="#4F372B"/>
<path fill-rule="evenodd" clip-rule="evenodd" d="M55.9801 22.7994C56.8141 25.2103 57.4136 27.6714 57.6114 30.2216C57.8561 33.3862 57.7446 36.5291 57.0771 39.6414L56.9915 39.8902C56.7822 39.8909 56.5687 39.8643 56.3642 39.8963C54.6357 40.1682 52.9093 40.4496 51.1822 40.7296C49.3967 41.0191 47.6098 41.2971 45.8276 41.6057C45.1962 41.7145 44.4146 41.5846 44.1597 42.4574L44.0373 42.4988L44.1237 37.2802L44.036 24.6883L44.8679 24.5456C46.228 24.3233 47.588 24.097 48.9501 23.8801C50.5746 23.6225 52.2004 23.3711 53.8262 23.1196C54.544 23.0095 55.2624 22.9068 55.9801 22.7994Z" fill="#439934"/>
<path fill-rule="evenodd" clip-rule="evenodd" d="M42.3209 57.713C41.4435 56.9586 40.5354 56.2374 39.6946 55.4435C35.1693 51.1751 31.8585 46.1502 30.2279 40.0921C29.7787 38.4255 29.4796 36.7311 29.3831 35.0087C29.3151 33.803 29.2179 32.587 29.3035 31.3874C29.5299 28.1976 29.9914 25.0384 30.9266 21.9655L30.9783 21.8942C31.0694 22.0151 31.1999 22.1225 31.2461 22.2592C32.1596 24.948 33.0656 27.6396 33.9676 30.3332C36.8012 38.796 39.6314 47.2608 42.4698 55.7222C42.5255 55.8874 42.6689 56.0226 42.7722 56.1715L42.3209 57.713Z" fill="#45A538"/>
<path fill-rule="evenodd" clip-rule="evenodd" d="M55.9803 22.7994C55.2618 22.9061 54.5434 23.0094 53.8263 23.1195C52.2005 23.371 50.5747 23.6225 48.9503 23.8801C47.5888 24.0962 46.2288 24.3226 44.8681 24.5455L44.0361 24.6882L44.0293 24.1458C44.0015 23.7 43.9552 23.2541 43.9491 22.8082L43.856 14.2754C43.8343 12.4953 43.8016 10.7152 43.7656 8.93579C43.7432 7.82994 43.7194 6.72341 43.6698 5.61891C43.6426 5.02555 43.5467 4.4349 43.5087 3.84153C43.4863 3.50033 43.5162 3.15641 43.5236 2.81384C43.9478 3.63558 44.3631 4.46344 44.7987 5.27907C45.4873 6.56844 46.585 7.51864 47.5739 8.55516C51.4794 12.6544 54.2518 17.4176 55.9803 22.7994Z" fill="#46A037"/>
<path fill-rule="evenodd" clip-rule="evenodd" d="M44.0384 42.4989L44.1607 42.4575C44.4156 41.5848 45.1973 41.7146 45.8287 41.6058C47.6108 41.2972 49.3977 41.0193 51.1833 40.7297C52.9103 40.4504 54.6368 40.169 56.3652 39.8964C56.5698 39.8645 56.7832 39.891 56.9925 39.8903C56.6697 41.043 56.4155 42.2209 56.0056 43.3417C55.5401 44.6128 54.9773 45.8539 54.3798 47.0705C53.4867 48.8887 52.3741 50.5852 51.0813 52.1396C50.0849 53.3372 48.9743 54.4458 47.8616 55.5394C47.2458 56.1437 46.5213 56.6364 45.8457 57.1802L45.6703 57.0606L45.0402 56.5222L44.3884 55.0922C43.9391 53.4188 43.704 51.7155 43.6646 49.9837L43.6768 49.6927L43.7658 48.4326C43.7951 48.0024 43.8345 47.5728 43.8528 47.1426C43.9181 45.5956 43.9765 44.0473 44.0384 42.4989Z" fill="#409433"/>
<path fill-rule="evenodd" clip-rule="evenodd" d="M44.0384 42.4988C43.9772 44.0471 43.9188 45.5962 43.8529 47.1445C43.8345 47.5754 43.7958 48.005 43.7659 48.4345L43.3689 48.5847C42.4867 45.9877 41.6038 43.4178 40.7406 40.8417C39.3125 36.5794 37.9022 32.311 36.4762 28.0473C35.3255 24.6067 34.1646 21.1682 32.9976 17.7324C32.9425 17.572 32.7862 17.4455 32.6774 17.3035L35.2195 12.6293C35.3071 12.7808 35.422 12.9229 35.4771 13.086C36.6529 16.566 37.8267 20.0467 38.9904 23.5308C40.5047 28.0643 42.0089 32.5999 43.5218 37.134C43.5823 37.3148 43.6816 37.482 43.7767 37.6853L44.1247 37.2802C44.0955 39.0202 44.067 40.7588 44.0384 42.4988Z" fill="#4FAA41"/>
<path fill-rule="evenodd" clip-rule="evenodd" d="M32.6766 17.3035C32.786 17.4455 32.9424 17.5719 32.9967 17.7323C34.1638 21.1682 35.3247 24.606 36.4754 28.0473C37.9014 32.311 39.3117 36.5794 40.7397 40.8417C41.6029 43.4177 42.4859 45.987 43.3681 48.5847L43.765 48.4345L43.676 49.6946L43.5951 49.9849C43.4571 51.364 43.3409 52.7458 43.1723 54.1221C43.0881 54.812 42.9079 55.489 42.7713 56.1714C42.6687 56.0225 42.5246 55.8873 42.4689 55.7221C39.6298 47.2607 36.8003 38.7959 33.9667 30.3331C33.0647 27.6395 32.158 24.9479 31.2452 22.2591C31.199 22.1225 31.0685 22.0151 30.9774 21.8941L32.6766 17.3035Z" fill="#4AA73C"/>
<path fill-rule="evenodd" clip-rule="evenodd" d="M44.1239 37.2803L43.7759 37.6854C43.6807 37.4821 43.5815 37.3149 43.521 37.1341C42.008 32.5999 40.5038 28.0644 38.9895 23.5309C37.8259 20.0468 36.6521 16.5661 35.4762 13.0861C35.4211 12.923 35.3063 12.7809 35.2186 12.6294L38.3622 8.49414C38.4614 8.626 38.6028 8.74359 38.6537 8.89244C39.5265 11.4481 40.391 14.0057 41.2515 16.5654C42.0549 18.9566 42.8461 21.3504 43.659 23.7375C43.7133 23.8972 43.903 24.0101 44.0294 24.146L44.0362 24.6884L44.1239 37.2803Z" fill="#57AE47"/>
<path fill-rule="evenodd" clip-rule="evenodd" d="M44.0294 24.1459C43.9023 24.0106 43.7133 23.8978 43.659 23.7374C42.8467 21.3503 42.0549 18.9565 41.2515 16.5653C40.391 14.0056 39.5265 11.448 38.6537 8.89234C38.6028 8.74349 38.4614 8.6259 38.3622 8.49405C39.3844 7.49287 40.3747 6.45566 41.4384 5.5007C42.3839 4.65245 43.1437 3.74303 43.1791 2.402L43.2539 2.13489L43.523 2.81322C43.5162 3.15578 43.4856 3.4997 43.5081 3.8409C43.5468 4.43427 43.6426 5.02492 43.6691 5.61829C43.7188 6.72278 43.7426 7.82931 43.765 8.93516C43.801 10.7146 43.8336 12.4947 43.8554 14.2748L43.9485 22.8076C43.9553 23.2541 44.0022 23.7 44.0294 24.1459Z" fill="#60B24F"/>
<path fill-rule="evenodd" clip-rule="evenodd" d="M42.772 56.1708C42.9086 55.4884 43.0888 54.8115 43.173 54.1216C43.3416 52.7459 43.4578 51.3634 43.5958 49.9843L43.6305 49.9789L43.6645 49.985C43.7039 51.7168 43.9391 53.4201 44.3883 55.0935C44.2966 55.2145 44.1681 55.3212 44.1192 55.4572C43.742 56.5216 43.3858 57.5948 43.0065 58.6585C42.9549 58.8039 42.8094 58.9174 42.7081 59.0446L42.32 57.7124L42.772 56.1708Z" fill="#A9AA88"/>
<path fill-rule="evenodd" clip-rule="evenodd" d="M42.7082 59.0451C42.8095 58.9174 42.9549 58.8045 43.0066 58.6591C43.3858 57.5954 43.742 56.5221 44.1192 55.4578C44.1675 55.3218 44.2966 55.2151 44.3884 55.0941L45.0402 56.5242C44.9117 56.7063 44.7337 56.8715 44.6623 57.0747L43.4144 60.7396C43.3627 60.8871 43.188 60.9904 43.0698 61.1148L42.7082 59.0451Z" fill="#B6B598"/>
<path fill-rule="evenodd" clip-rule="evenodd" d="M43.0698 61.1141C43.1874 60.9897 43.3628 60.8864 43.4144 60.7389L44.6623 57.074C44.733 56.8708 44.9118 56.7056 45.0402 56.5234L45.671 57.0611C45.3665 57.3622 45.1972 57.7102 45.2992 58.1499L45.1075 58.7773C45.0205 58.8847 44.8941 58.9785 44.8513 59.1015C44.4156 60.3494 44.0003 61.6041 43.5612 62.8513C43.5055 63.009 43.3512 63.1334 43.2431 63.2734L43.0698 61.1141Z" fill="#C2C1A7"/>
<path fill-rule="evenodd" clip-rule="evenodd" d="M43.2425 63.2727C43.3513 63.1327 43.5055 63.0083 43.5606 62.8507C43.9997 61.6034 44.4156 60.3487 44.8506 59.1008C44.8935 58.9778 45.0199 58.8847 45.1069 58.7766L44.8425 61.6558C44.7718 61.7373 44.6698 61.8087 44.6359 61.9032L43.7563 64.4234C43.6945 64.5954 43.5762 64.749 43.4838 64.9101C43.4016 64.8027 43.2547 64.6987 43.2479 64.5873C43.2221 64.1509 43.2405 63.7111 43.2425 63.2727Z" fill="#CECDB7"/>
<path fill-rule="evenodd" clip-rule="evenodd" d="M43.4842 64.9108C43.5766 64.7498 43.6949 64.5961 43.7567 64.4242L44.6363 61.9039C44.6702 61.8087 44.7729 61.7381 44.8429 61.6565L44.8497 63.546L44.2169 65.1684L43.4842 64.9108Z" fill="#DBDAC7"/>
<path fill-rule="evenodd" clip-rule="evenodd" d="M44.2172 65.1684L44.85 63.546L44.9805 65.4655L44.2172 65.1684Z" fill="#EBE9DC"/>
<path fill-rule="evenodd" clip-rule="evenodd" d="M45.2987 58.1499C45.1974 57.7108 45.366 57.3628 45.6705 57.061L45.8458 57.1807L45.2987 58.1499Z" fill="#CECDB7"/>
<path fill-rule="evenodd" clip-rule="evenodd" d="M43.6644 49.9856L43.6305 49.9795L43.5958 49.9849L43.6767 49.6947L43.6644 49.9856Z" fill="#4FAA41"/>
</svg>
