<svg width="28" height="28" viewBox="0 0 42 49" fill="none" xmlns="http://www.w3.org/2000/svg">
<path d="M41 8.5C41 9.3145 40.5963 10.1885 39.6583 11.0861C38.7177 11.9862 37.3037 12.8429 35.474 13.5835C31.82 15.0625 26.7031 16 21 16C15.2969 16 10.18 15.0625 6.52595 13.5835C4.69631 12.8429 3.28226 11.9862 2.34167 11.0861C1.40366 10.1885 1 9.3145 1 8.5C1 7.6855 1.40366 6.81155 2.34167 5.9139C3.28226 5.01379 4.69631 4.15711 6.52595 3.41654C10.18 1.93751 15.2969 1 21 1C26.7031 1 31.82 1.93751 35.474 3.41654C37.3037 4.15711 38.7177 5.01379 39.6583 5.9139C40.5963 6.81155 41 7.6855 41 8.5Z" stroke="black" stroke-width="2"/>
<path d="M41 19.5C41 24.1944 32.0457 28 21 28C9.9543 28 1 24.1944 1 19.5" stroke="black" stroke-width="2"/>
<path d="M41 30C41 34.6944 32.0457 38.5 21 38.5C9.9543 38.5 1 34.6944 1 30" stroke="black" stroke-width="2"/>
<path d="M41 39C41 43.6944 32.0457 47.5 21 47.5C9.9543 47.5 1 43.6944 1 39" stroke="black" stroke-width="2"/>
<line x1="1" y1="10" x2="1" y2="39" stroke="black" stroke-width="2" stroke-linecap="round"/>
</svg>
